<svg xmlns="http://www.w3.org/2000/svg" xmlns:xlink="http://www.w3.org/1999/xlink" width="332.8004150390625" height="277.780029296875" viewBox="0 0 332.8004150390625 277.780029296875" fill="none">
<g opacity="0.15">
<path d="M80.7896 68.4067C119.67 31.5767 169.29 6.03665 222.43 0.686654C238.7 -0.953346 255.61 0.0766835 270.56 6.71668C295.96 17.9867 312.15 43.8466 320.26 70.4166C332.33 109.967 329.09 154.707 308.13 190.357C287.17 226.007 247.81 251.117 206.46 251.537C178.4 251.817 151.08 241.387 123.02 241.387C101.62 241.387 80.5197 247.467 59.1297 246.857C37.7397 246.247 14.1397 236.297 7.46969 215.967C3.38969 203.527 6.49969 189.927 10.5997 177.487C24.0097 136.787 48.7597 98.7666 80.8097 68.4166L80.7896 68.4067Z"  style="mix-blend-mode:normal" fill="url(#linear_fill_IwsCwB44hamWFwf5OAoq7)" >
</path>
</g>
<path d="M197.45 75.4567L179.72 93.1766L179.72 94.7867L197.92 76.5867L210.19 76.5867L210.19 75.4567L197.45 75.4567Z"  style="mix-blend-mode:normal" fill="url(#linear_fill_RLQY0PjBI2V5Gi6C2uE5-)" >
</path>
<path d="M40.6394 276.707L18.5693 276.707C16.8393 276.707 15.3394 275.497 14.9694 273.807L11.7294 259.097L47.4794 259.097L44.2394 273.807C43.8694 275.497 42.3694 276.707 40.6394 276.707Z"  style="mix-blend-mode:normal" fill="url(#linear_fill_vgsYSZ-hcfheESZIwCMql)" >
</path>
<path d="M47.4796 259.137C46.7896 259.277 45.9196 259.397 44.8796 259.517C41.5996 259.867 36.7796 260.067 31.7596 260.117C31.5396 260.117 31.3196 260.117 31.0996 260.117L30.8396 260.117C30.5696 260.117 30.2997 260.117 30.0297 260.117L28.9696 260.117C28.9196 260.117 28.8696 260.117 28.8196 260.117C28.7196 260.117 28.6297 260.117 28.5297 260.117C28.3997 260.117 28.2696 260.117 28.1396 260.117C27.6996 260.117 27.2696 260.117 26.8296 260.107C26.6496 260.107 26.4596 260.107 26.2896 260.107C24.3896 260.077 22.5396 260.027 20.7896 259.957C19.0996 259.877 17.5096 259.787 16.0896 259.677C16.0496 259.677 15.9996 259.677 15.9596 259.667C14.4096 259.537 13.0696 259.377 12.0096 259.197C11.9096 259.177 11.8196 259.157 11.7196 259.147C11.8496 259.117 11.9896 259.097 12.1296 259.067C13.2696 258.877 14.6896 258.717 16.3196 258.587C16.4296 258.577 16.5397 258.567 16.6497 258.557C19.1197 258.367 22.0296 258.237 25.0796 258.177C26.2396 258.157 27.4096 258.137 28.5796 258.137C28.7096 258.137 28.8496 258.137 28.9896 258.137L30.2096 258.137L30.2296 258.137C30.2996 258.137 30.3696 258.137 30.4396 258.137C30.6296 258.137 30.8297 258.137 31.0197 258.137L31.0696 258.137C31.1796 258.137 31.2897 258.137 31.3997 258.137C31.6997 258.137 31.9996 258.137 32.2996 258.137C33.0396 258.147 33.7796 258.157 34.5096 258.177C38.0796 258.257 41.4096 258.417 44.0096 258.667C45.3896 258.797 46.5596 258.957 47.4596 259.127L47.4796 259.137Z"  style="mix-blend-mode:normal" fill="url(#linear_fill_4ooMtFQF84SLIcEVVM3cs)" >
</path>
<path d="M58.8505 270.597C53.0305 268.887 48.7605 263.387 44.8905 259.507C44.6105 259.217 44.3204 258.937 44.0404 258.667C42.9604 257.647 41.9105 256.787 40.8505 256.217C39.6605 255.567 38.4705 255.277 37.2405 255.537C34.8205 256.047 33.3004 257.067 32.3304 258.137C31.7404 258.807 31.3605 259.507 31.1205 260.107C31.1105 260.127 31.1005 260.147 31.1005 260.157C31.1005 260.137 31.0904 260.117 31.0804 260.107L30.8605 260.107C30.5905 260.107 30.3204 260.107 30.0504 260.107L29.3905 260.107C29.6005 259.557 29.8604 258.897 30.2004 258.187C30.2104 258.167 30.2205 258.137 30.2305 258.117C30.2305 258.097 30.2505 258.077 30.2605 258.067C30.2905 257.987 30.3305 257.917 30.3705 257.837C30.5605 257.447 30.7705 257.037 31.0005 256.637C31.3405 256.037 31.7305 255.417 32.1605 254.817C32.7905 253.937 33.5205 253.097 34.3605 252.367C35.2905 251.557 36.3604 250.887 37.5704 250.477C38.6104 250.127 39.7505 249.957 41.0105 250.067C42.2105 250.167 43.4105 250.597 44.5905 251.287C47.2405 252.837 49.7804 255.647 51.9604 258.657C56.0304 264.287 58.8705 270.597 58.8705 270.597L58.8505 270.597Z"  style="mix-blend-mode:normal" fill="#24683E" >
</path>
<path d="M1.41003 266.767C1.41003 266.767 10.3 246.947 19.26 246.237C28.22 245.527 31.45 258.067 31.45 258.067L29.5699 258.067C29.5699 258.067 29.48 253.047 23.03 251.707C16.58 250.367 11.18 263.897 1.41003 266.757L1.41003 266.767Z"  style="mix-blend-mode:normal" fill="#24683E" >
</path>
<path d="M29.3596 260.117L28.9796 260.117C28.9296 260.117 28.8796 260.117 28.8296 260.117C28.7296 260.117 28.6396 260.117 28.5396 260.117C28.4096 260.117 28.2797 260.117 28.1497 260.117C27.7097 260.117 27.2796 260.117 26.8396 260.107C26.6596 260.107 26.4696 260.107 26.2996 260.107C26.1896 259.997 26.0696 259.887 25.9396 259.787C24.3096 258.467 21.9796 258.227 20.7996 259.967C20.7896 259.987 20.7697 260.007 20.7597 260.017C20.6297 260.217 20.5097 260.447 20.4097 260.707C20.3497 260.867 20.2896 261.047 20.2396 261.227C19.0796 265.687 18.3197 270.197 16.7697 276.007C15.5197 271.067 14.9996 266.527 15.3696 262.817C15.4796 261.687 15.6796 260.627 15.9596 259.667C16.0696 259.287 16.1896 258.927 16.3296 258.587C17.2996 256.087 18.9597 254.327 21.3997 253.597C24.9897 252.507 27.1896 255.197 28.4496 257.827C28.4996 257.937 28.5496 258.037 28.5996 258.157C28.6596 258.287 28.7197 258.427 28.7797 258.567C28.8097 258.617 28.8296 258.677 28.8596 258.737C28.9796 259.027 29.0896 259.317 29.1796 259.587C29.1896 259.607 29.1996 259.627 29.1996 259.647C29.2096 259.677 29.2196 259.707 29.2296 259.737C29.2296 259.747 29.2296 259.757 29.2396 259.767C29.2796 259.897 29.3296 260.017 29.3596 260.137L29.3596 260.117Z"  style="mix-blend-mode:normal" fill="url(#linear_fill_08B4aamhweUJtKfOJ-r2b)" >
</path>
<path d="M64.38 273.057C60.67 267.417 56.9 261.797 51.95 258.647C49.49 257.087 46.75 256.127 43.58 256.087C42.61 256.067 41.7 256.117 40.85 256.217C38.26 256.517 36.1699 257.297 34.5399 258.177C33.3899 258.797 32.47 259.487 31.77 260.097C31.55 260.097 31.33 260.097 31.11 260.097C31.1 260.117 31.09 260.137 31.09 260.147C31.09 260.127 31.0799 260.107 31.0699 260.097L30.85 260.097C30.58 260.097 30.3099 260.097 30.0399 260.097L28.98 260.097C28.93 260.097 28.88 260.097 28.83 260.097C28.89 259.997 28.96 259.897 29.02 259.787C29.34 259.297 29.7199 258.757 30.1899 258.187C30.2099 258.167 30.22 258.147 30.24 258.127C30.25 258.107 30.27 258.087 30.28 258.067C30.32 258.027 30.36 257.977 30.39 257.937C30.63 257.667 30.87 257.387 31.14 257.097C31.36 256.867 31.59 256.637 31.83 256.407C32.02 256.227 32.2299 256.037 32.4399 255.857C32.4899 255.817 32.54 255.767 32.59 255.737C35.21 253.507 39.0699 251.497 44.5699 251.287C44.8299 251.277 45.1 251.267 45.37 251.267C58.81 251.187 63.11 265.367 64.37 273.057L64.38 273.057Z"  style="mix-blend-mode:normal" fill="url(#linear_fill_Cc3Qmx59i6Ji4i1MZU1D4)" >
</path>
<path d="M32.49 252.047C32.41 253.007 32.3001 253.937 32.1501 254.817C32.0601 255.367 31.95 255.897 31.84 256.407C31.8 256.607 31.75 256.807 31.71 256.997C31.68 257.097 31.6601 257.197 31.6301 257.307C31.5701 257.567 31.51 257.827 31.44 258.067C31.44 258.087 31.43 258.107 31.42 258.127C31.26 258.717 31.11 259.257 30.96 259.737C30.92 259.867 30.88 259.987 30.84 260.107C30.57 260.107 30.3001 260.107 30.0301 260.107L28.97 260.107C28.99 259.997 29.0001 259.897 29.0101 259.787C29.0901 259.207 29.15 258.657 29.19 258.117C29.2 257.987 29.21 257.847 29.22 257.717C29.22 257.657 29.22 257.597 29.22 257.537C29.24 257.207 29.24 256.877 29.24 256.567C29.24 256.007 29.21 255.477 29.17 254.957C29.07 253.787 28.86 252.697 28.57 251.677C26.61 244.857 20.7201 241.297 16.3901 237.867C10.3901 233.117 7.64007 229.987 10.1501 218.337C12.8601 228.327 24.56 232.397 30.07 240.727C30.69 241.667 31.18 242.667 31.54 243.707C32.5 246.407 32.67 249.337 32.46 252.037L32.49 252.047Z"  style="mix-blend-mode:normal" fill="url(#linear_fill_-tCIQ9VQaoFcrxOT_xtep)" >
</path>
<path d="M71.2805 251.307C64.0405 248.847 49.5605 246.587 41.7705 248.507C40.2205 248.887 38.8104 249.597 37.5604 250.477C35.6604 251.817 34.0905 253.577 32.8905 255.237C32.8805 255.237 32.8705 255.257 32.8705 255.267C32.7205 255.467 32.5804 255.667 32.4504 255.867C32.1804 256.257 31.9304 256.637 31.7104 257.007C31.5704 257.227 31.4504 257.437 31.3204 257.637C31.2304 257.787 31.1504 257.937 31.0704 258.077C31.0604 258.097 31.0504 258.117 31.0404 258.137C30.9804 258.257 30.9105 258.367 30.8605 258.477C30.8005 258.587 30.7404 258.697 30.6904 258.797C30.3904 259.367 30.1804 259.827 30.0504 260.117L28.9905 260.117C28.9405 260.117 28.8905 260.117 28.8405 260.117C28.7405 260.117 28.6504 260.117 28.5504 260.117L28.3104 260.057C28.3104 260.057 28.5404 259.327 29.0504 258.137C29.1104 258.007 29.1705 257.877 29.2305 257.737C29.3005 257.577 29.3704 257.417 29.4504 257.257C29.5704 257.007 29.7005 256.737 29.8405 256.457C30.0305 256.087 30.2304 255.697 30.4604 255.277C31.0104 254.287 31.6805 253.197 32.4805 252.067C33.4505 250.687 34.6205 249.247 36.0205 247.837C38.5405 245.297 41.7805 242.897 45.9005 241.247C59.3605 235.847 72.2905 251.667 71.2705 251.317L71.2805 251.307Z"  style="mix-blend-mode:normal" fill="url(#linear_fill_Ox8wDIVotofZd2_vjF3LL)" >
</path>
<path d="M36.03 247.827C35.58 249.437 34.9999 250.957 34.3499 252.367C33.8899 253.387 33.39 254.347 32.89 255.237C32.88 255.237 32.8699 255.257 32.8699 255.267C32.7799 255.427 32.6899 255.587 32.5999 255.737C32.2799 256.287 31.95 256.817 31.64 257.307C31.54 257.457 31.4499 257.597 31.3599 257.737C31.2799 257.847 31.21 257.967 31.13 258.067C31.12 258.087 31.0999 258.107 31.0899 258.127C31.0099 258.247 30.9299 258.357 30.8599 258.467C30.7999 258.567 30.7399 258.647 30.6699 258.737C30.2999 259.257 29.97 259.717 29.66 260.107L28.9799 260.107C28.9299 260.107 28.8799 260.107 28.8299 260.107C28.7299 260.107 28.6399 260.107 28.5399 260.107C28.4099 260.107 28.28 260.107 28.15 260.107C28.45 259.487 28.74 258.827 29.02 258.127C29.1 257.937 29.1699 257.747 29.2399 257.547C29.2999 257.397 29.36 257.237 29.41 257.077C29.52 256.777 29.6299 256.467 29.7199 256.167C29.8899 255.667 30.0399 255.157 30.1899 254.637C31.1499 251.227 31.7199 247.387 31.5699 243.717C31.4399 240.557 30.7599 237.537 29.3399 235.017C24.8899 227.177 27.05 214.927 27.13 214.507C27.13 214.727 27.22 219.357 34.65 232.697C37.5 237.807 37.3399 243.147 36.0399 247.817L36.03 247.827Z"  style="mix-blend-mode:normal" fill="#24683E" >
</path>
<path d="M111.88 262.027L187.2 262.027L187.2 277.247L111.88 277.247L111.88 262.027Z"  style="mix-blend-mode:normal" fill="#D5EAFF" >
</path>
<path d="M187.2 262.037L187.2 262.087C186.93 262.987 178.28 263.787 165.84 264.147C165.43 264.167 165 264.197 164.56 264.197C159.96 264.327 154.88 264.397 149.54 264.397C147.04 264.397 144.63 264.377 142.27 264.347C141.58 264.347 140.9 264.327 140.22 264.327C136.77 264.257 133.51 264.177 130.51 264.087C129.98 264.067 129.48 264.047 128.98 264.027C118.69 263.607 111.87 262.857 111.87 262.047C111.87 261.237 118.35 260.507 128.24 260.087C128.72 260.067 129.21 260.047 129.7 260.047C132.96 259.887 136.55 259.807 140.36 259.737C141.03 259.737 141.72 259.717 142.39 259.717C144.7 259.697 147.09 259.677 149.52 259.677C155.2 259.677 160.57 259.767 165.38 259.897C165.79 259.917 166.2 259.917 166.59 259.947C178.81 260.317 187.17 261.137 187.17 262.067L187.2 262.037Z"  style="mix-blend-mode:normal" fill="#696969" >
</path>
<path d="M187.2 262.037L187.2 262.087C186.93 262.987 178.28 263.787 165.84 264.147C165.43 264.167 165 264.197 164.56 264.197C159.96 264.327 154.88 264.397 149.54 264.397C147.04 264.397 144.63 264.377 142.27 264.347C141.58 264.347 140.9 264.327 140.22 264.327C136.77 264.257 133.51 264.177 130.51 264.087C129.98 264.067 129.48 264.047 128.98 264.027C118.69 263.607 111.87 262.857 111.87 262.047C111.87 261.237 118.35 260.507 128.24 260.087C128.72 260.067 129.21 260.047 129.7 260.047C132.96 259.887 136.55 259.807 140.36 259.737C141.03 259.737 141.72 259.717 142.39 259.717C144.7 259.697 147.09 259.677 149.52 259.677C155.2 259.677 160.57 259.767 165.38 259.897C165.79 259.917 166.2 259.917 166.59 259.947C178.81 260.317 187.17 261.137 187.17 262.067L187.2 262.037Z"  style="mix-blend-mode:normal" fill="#ABC8EE" >
</path>
<g opacity="0.15">
<path d="M192.84 172.087L187.2 262.037L187.2 262.087C186.93 262.987 178.28 263.787 165.84 264.147C165.43 264.167 165 264.197 164.56 264.197C159.96 264.327 154.88 264.397 149.54 264.397C147.04 264.397 144.63 264.377 142.27 264.347C141.58 264.347 140.9 264.327 140.22 264.327C136.77 264.257 133.51 264.177 130.51 264.087C129.98 264.067 129.48 264.047 128.98 264.027C118.69 263.607 111.87 262.857 111.87 262.047L105.16 172.097L192.83 172.097L192.84 172.087Z"  style="mix-blend-mode:normal" fill="url(#linear_fill_bWwDGTQs42cP6o9tbVpk4)" >
</path>
</g>
<g opacity="0.33">
<path d="M17.2695 85.2267L70.3295 85.2267C75.8523 85.2267 80.3295 89.7038 80.3295 95.2267L80.3295 140.827C80.3295 146.35 75.8523 150.827 70.3295 150.827L17.2695 150.827C11.7467 150.827 7.26953 146.35 7.26953 140.827L7.26953 95.2267C7.26953 89.7038 11.7467 85.2267 17.2695 85.2267Z"  style="mix-blend-mode:normal" fill="url(#linear_fill_ZrT3zgbISxtuLHf4JVqlj)" >
</path>
</g>
<path d="M15.6518 91.7105C15.6853 92.5824 15.0055 93.3164 14.1336 93.3499C13.2616 93.3834 12.5276 92.7038 12.4941 91.8318C12.4606 90.9598 13.1403 90.2258 14.0123 90.1923C14.8842 90.1588 15.6183 90.8385 15.6518 91.7105Z"  style="mix-blend-mode:normal" fill="url(#linear_fill_2cmn_3Ct6rbkbCbYofHYX)" >
</path>
<path d="M20.5982 91.7105C20.6317 92.5824 19.9521 93.3164 19.0801 93.3499C18.2081 93.3834 17.474 92.7038 17.4405 91.8318C17.407 90.9598 18.0868 90.2258 18.9588 90.1923C19.8308 90.1588 20.5647 90.8385 20.5982 91.7105Z"  style="mix-blend-mode:normal" fill="#FFFFFF" >
</path>
<path d="M25.5542 91.7101C25.5877 92.5821 24.908 93.3161 24.036 93.3496C23.1641 93.3831 22.4301 92.7034 22.3966 91.8314C22.3631 90.9594 23.0428 90.2254 23.9147 90.1919C24.7867 90.1584 25.5207 90.8382 25.5542 91.7101Z"  style="mix-blend-mode:normal" fill="#FFFFFF" >
</path>
<path d="M12.8593 100.257L42.5892 100.257C43.0918 100.257 43.4993 100.664 43.4993 101.167L43.4993 101.717C43.4993 102.219 43.0918 102.627 42.5892 102.627L12.8593 102.627C12.3567 102.627 11.9492 102.219 11.9492 101.717L11.9492 101.167C11.9492 100.664 12.3567 100.257 12.8593 100.257Z"  style="mix-blend-mode:normal" fill="#FFFFFF" >
</path>
<path d="M12.8593 106.777L33.7192 106.777C34.2218 106.777 34.6293 107.184 34.6293 107.687L34.6293 108.237C34.6293 108.739 34.2218 109.147 33.7192 109.147L12.8593 109.147C12.3567 109.147 11.9492 108.739 11.9492 108.237L11.9492 107.687C11.9492 107.184 12.3567 106.777 12.8593 106.777Z"  style="mix-blend-mode:normal" fill="#FFFFFF" >
</path>
<path d="M74.5995 144.757L12.1095 144.757L12.1095 114.857L12.6694 114.857L12.6694 144.187L74.5995 144.187L74.5995 144.757Z"  style="mix-blend-mode:normal" fill="#FFFFFF" >
</path>
<g opacity="0.5">
<path d="M74.1198 115.257C60.6497 114.887 63.6797 134.017 49.6997 134.967C41.6997 135.507 42.5898 126.017 29.2698 125.747C18.9098 125.537 12.3898 134.427 12.3898 134.427L12.3898 144.477L74.1198 144.307L74.1198 115.257Z"  style="mix-blend-mode:normal" fill="url(#linear_fill_Z_J35tsT7DgP4UICIODYH)" >
</path>
</g>
<path d="M125.86 183.107L76.1003 183.107L43.4004 150.397L44.2003 149.597L76.5703 181.967L125.86 181.967L125.86 183.107Z"  style="mix-blend-mode:normal" fill="url(#linear_fill_ls5dXCQcft78eBNr8uvTd)" >
</path>
<path d="M261.74 163.847L237.01 139.117L198.59 139.117L198.59 137.987L237.48 137.987L262.54 163.037L261.74 163.847Z"  style="mix-blend-mode:normal" fill="url(#linear_fill_PDxGi6gpyAaC2Ae_A-Co8)" >
</path>
<path d="M205.05 137.957C205.08 106.967 180.02 81.8068 149.07 81.7768C118.12 81.7468 92.9997 106.847 92.9697 137.837C92.9397 168.827 150.03 217.557 150.03 217.557C150.03 217.557 205.03 168.957 205.06 137.957L205.05 137.957Z"  style="mix-blend-mode:normal" fill="url(#linear_fill_fCYOO61haiaN5x1hlct1Q)" >
</path>
<path    stroke="rgba(255, 255, 255, 1)" stroke-width="1.4900000095367432"  stroke-linecap="round" style="mix-blend-mode:normal" d="M142.45 197.277C142.45 197.277 147.13 133.167 135.03 128.717C125.62 125.257 118.82 142.057 130.21 144.357C138.57 146.037 150.88 145.287 164.53 144.767C170.87 144.527 175.38 138.087 172.98 132.207C172.31 130.567 171.2 129.097 169.29 128.447C153.25 122.907 157.86 167.227 155.54 198.027">
</path>
<path d="M168.02 214.037L129.87 214.037C127.1 214.037 124.34 211.257 123.68 207.677C122.98 203.887 124.87 200.667 127.92 200.667L169.96 200.667C173.01 200.667 174.9 203.897 174.2 207.677C173.54 211.267 170.78 214.037 168.01 214.037L168.02 214.037Z"  style="mix-blend-mode:normal" fill="url(#linear_fill_YOEW1pp5ebDVlcVOdRpfF)" >
</path>
<path d="M166.78 222.597L131.11 222.597C128.52 222.597 125.97 220.177 125.4 217.057C124.8 213.777 126.59 210.987 129.42 210.987L168.46 210.987C171.3 210.987 173.08 213.777 172.48 217.057C171.91 220.177 169.36 222.597 166.77 222.597L166.78 222.597Z"  style="mix-blend-mode:normal" fill="url(#linear_fill_QQVjm9DclQkLe1puHMYjt)" >
</path>
<path d="M165.679 230.107L132.199 230.107C129.769 230.107 127.399 227.977 126.899 225.237C126.369 222.367 128.069 219.937 130.719 219.937L167.159 219.937C169.809 219.937 171.509 222.367 170.979 225.237C170.479 227.977 168.109 230.107 165.679 230.107Z"  style="mix-blend-mode:normal" fill="url(#linear_fill_MqtwnydpGVIVVQq7TLxVA)" >
</path>
<path d="M164.719 236.757L133.169 236.757C130.879 236.757 128.669 234.867 128.229 232.437C127.759 229.907 129.379 227.767 131.869 227.767L166.029 227.767C168.509 227.767 170.129 229.907 169.669 232.437C169.219 234.857 167.019 236.757 164.729 236.757L164.719 236.757Z"  style="mix-blend-mode:normal" fill="url(#linear_fill_M17GZ_Vk7L1NDDSuCIf2O)" >
</path>
<path d="M124.985 192.848L172.965 192.898C175.268 192.901 177.133 194.77 177.131 197.073L177.128 199.793C177.126 202.096 175.257 203.961 172.954 203.958L124.974 203.908C122.671 203.906 120.806 202.037 120.808 199.734L120.811 197.014C120.813 194.711 122.682 192.846 124.985 192.848Z"  style="mix-blend-mode:normal" fill="url(#linear_fill_Zk-G_Hb25gcH2renMx5tQ)" >
</path>
<g opacity="0.33">
<path d="M267.73 149.217L322.8 149.217C328.323 149.217 332.8 153.694 332.8 159.217L332.8 206.627C332.8 212.15 328.323 216.627 322.8 216.627L267.73 216.627C262.208 216.627 257.73 212.15 257.73 206.627L257.73 159.217C257.73 153.694 262.208 149.217 267.73 149.217Z"  style="mix-blend-mode:normal" fill="url(#linear_fill_i9fmXfPqnw5SEFk4exGQx)" >
</path>
</g>
<path d="M266.341 155.87C266.375 156.764 265.678 157.516 264.784 157.551C263.89 157.585 263.138 156.888 263.103 155.994C263.069 155.1 263.766 154.347 264.66 154.313C265.554 154.279 266.307 154.976 266.341 155.87Z"  style="mix-blend-mode:normal" fill="url(#linear_fill_8HkHsyzg_xXe3IQdP8TQP)" >
</path>
<path d="M271.427 155.864C271.461 156.758 270.764 157.511 269.87 157.545C268.976 157.58 268.223 156.883 268.189 155.989C268.155 155.095 268.852 154.342 269.746 154.308C270.64 154.273 271.392 154.97 271.427 155.864Z"  style="mix-blend-mode:normal" fill="#FFFFFF" >
</path>
<path d="M276.524 155.869C276.558 156.763 275.861 157.516 274.967 157.55C274.073 157.584 273.32 156.887 273.286 155.993C273.252 155.099 273.949 154.347 274.843 154.312C275.737 154.278 276.489 154.975 276.524 155.869Z"  style="mix-blend-mode:normal" fill="#FFFFFF" >
</path>
<path d="M263.48 164.657L294.02 164.657C294.539 164.657 294.96 165.077 294.96 165.597L294.96 166.147C294.96 166.666 294.539 167.087 294.02 167.087L263.48 167.087C262.961 167.087 262.54 166.666 262.54 166.147L262.54 165.597C262.54 165.077 262.961 164.657 263.48 164.657Z"  style="mix-blend-mode:normal" fill="#FFFFFF" >
</path>
<path d="M263.48 171.357L284.91 171.357C285.429 171.357 285.85 171.777 285.85 172.297L285.85 172.847C285.85 173.366 285.429 173.787 284.91 173.787L263.48 173.787C262.961 173.787 262.54 173.366 262.54 172.847L262.54 172.297C262.54 171.777 262.961 171.357 263.48 171.357Z"  style="mix-blend-mode:normal" fill="#FFFFFF" >
</path>
<path d="M326.91 210.297L262.78 210.297L262.78 179.657L263.2 179.657L263.2 209.877L326.91 209.877L326.91 210.297Z"  style="mix-blend-mode:normal" fill="#FFFFFF" >
</path>
<path d="M263.131 207.137C262.931 207.137 262.741 207.047 262.621 206.877C262.411 206.597 262.471 206.197 262.751 205.987L269.861 200.737C271.211 199.747 272.911 199.387 274.541 199.757L283.091 201.707C284.141 201.947 285.251 201.797 286.191 201.287L298.871 194.467C300.511 193.587 302.491 193.557 304.151 194.387L307.481 196.057C308.781 196.707 310.311 196.687 311.591 195.997L326.591 187.937C326.901 187.767 327.291 187.887 327.451 188.197C327.621 188.507 327.501 188.897 327.191 189.057L312.191 197.117C310.551 197.997 308.571 198.027 306.911 197.197L303.581 195.527C302.281 194.877 300.751 194.897 299.471 195.587L286.791 202.407C285.571 203.067 284.151 203.257 282.801 202.947L274.251 200.997C272.981 200.707 271.661 200.987 270.611 201.757L263.501 207.007C263.391 207.087 263.251 207.127 263.121 207.127L263.131 207.137Z"  style="mix-blend-mode:normal" fill="url(#linear_fill_iVTLfKkAIi9x2XmMmN_le)" >
</path>
<path d="M263.201 201.637C262.981 201.637 262.771 201.527 262.651 201.327C262.471 201.027 262.571 200.637 262.881 200.457L271.431 195.427C272.671 194.697 274.201 194.617 275.521 195.207L281.781 198.017C282.641 198.397 283.611 198.387 284.461 197.987L291.371 194.677C292.681 194.047 294.231 194.097 295.501 194.817L299.461 197.067C300.521 197.667 301.841 197.607 302.841 196.917L326.551 180.507C326.841 180.307 327.241 180.377 327.441 180.667C327.641 180.957 327.571 181.357 327.281 181.557L303.571 197.967C302.171 198.937 300.311 199.017 298.831 198.177L294.871 195.927C293.961 195.417 292.861 195.377 291.921 195.827L285.011 199.137C283.821 199.707 282.461 199.717 281.261 199.187L275.001 196.377C274.061 195.957 272.971 196.017 272.081 196.537L263.531 201.567C263.431 201.627 263.321 201.657 263.211 201.657L263.201 201.637Z"  style="mix-blend-mode:normal" fill="url(#linear_fill_YNVhW19Hbde_YmeZ9B-Jq)" >
</path>
<path d="M239.791 178.957C239.791 178.957 237.711 181.397 236.491 181.207C235.271 181.017 235.141 175.877 235.141 175.877C235.141 175.877 236.361 176.337 236.921 176.207C237.481 176.077 238.461 174.647 238.461 174.647L239.791 178.957Z"  style="mix-blend-mode:normal" fill="url(#linear_fill_cELNce3tIx__ZZkDT5K0q)" >
</path>
<path d="M205.17 176.867C205.17 176.867 207.25 179.307 208.47 179.117C209.69 178.927 209.82 173.787 209.82 173.787C209.82 173.787 208.6 174.247 208.04 174.117C207.48 173.987 206.5 172.557 206.5 172.557L205.17 176.867Z"  style="mix-blend-mode:normal" fill="url(#linear_fill_7suVtGJ_dY03IvlK3yqP9)" >
</path>
<path d="M236.341 142.557C236.341 142.557 242.011 144.837 250.611 160.127C250.611 160.127 253.841 166.057 252.801 168.207C251.761 170.357 243.121 178.347 240.071 179.557L237.781 174.727L244.171 165.557L234.391 154.737L236.341 142.567L236.341 142.557Z"  style="mix-blend-mode:normal" fill="url(#linear_fill_X_nYy0PYYlmhaMxwHooM8)" >
</path>
<path d="M213.75 140.797C213.75 140.797 207.05 142.707 196.33 156.947C196.33 156.947 192.51 162.517 193.33 164.757C194.15 166.997 201.92 175.837 204.83 177.347L207.6 172.777L202.19 162.997L213.03 153.237L213.75 140.797Z"  style="mix-blend-mode:normal" fill="url(#linear_fill_MBQJsGCHaJn0uhgLMnLYx)" >
</path>
<path d="M237.361 183.317C238.861 211.147 240.441 272.177 240.441 272.177L231.671 272.177C231.671 272.177 224.341 212.377 222.141 203.177C222.141 203.177 217.081 225.707 209.531 272.177L201.431 272.177C201.431 272.177 202.711 220.297 208.661 182.587C222.581 182.647 237.361 183.317 237.361 183.317Z"  style="mix-blend-mode:normal" fill="url(#linear_fill_WB1QzUcux6UhR8qj2Tnv6)" >
</path>
<path d="M240.071 272.177C240.071 272.177 246.461 275.577 244.931 277.247L233.681 277.247C233.651 277.307 233.361 273.887 234.891 272.177L240.071 272.177Z"  style="mix-blend-mode:normal" fill="#3B3E6A" >
</path>
<path d="M201.971 272.177C201.971 272.177 195.581 275.577 197.111 277.247L208.361 277.247C208.391 277.307 208.681 273.887 207.151 272.177L201.971 272.177Z"  style="mix-blend-mode:normal" fill="#3B3E6A" >
</path>
<path d="M229.631 134.637C229.631 134.637 229.211 140.937 230.111 142.037C231.011 143.137 228.461 144.837 226.011 144.837C223.561 144.837 221.561 141.437 221.561 141.437C221.561 141.437 222.761 141.477 222.761 139.737L222.761 136.337L229.631 134.627L229.631 134.637Z"  style="mix-blend-mode:normal" fill="url(#linear_fill_762msPPXR7mjpdbnDGZ43)" >
</path>
<path d="M228.231 135.707C228.231 135.707 218.191 140.327 217.931 134.307C217.671 128.287 218.571 122.157 218.571 122.157L232.831 124.087C232.831 124.087 234.321 134.447 228.231 135.707Z"  style="mix-blend-mode:normal" fill="url(#linear_fill_4YM81sW6GO1K9QUiNW8bz)" >
</path>
<path d="M229.171 136.977C228.711 137.167 228.191 137.257 227.631 137.277C225.351 137.327 223.311 135.877 222.461 133.767L222.151 132.987C222.161 132.887 222.241 132.817 222.331 132.797C222.881 132.707 224.691 132.227 225.071 129.777C225.071 129.777 225.331 127.567 223.551 127.457C221.771 127.347 221.141 128.747 221.141 128.747C221.141 128.747 220.341 127.567 221.011 125.187C219.571 125.047 218.151 124.677 217.111 123.867C215.771 122.847 215.051 121.107 215.721 118.247C215.801 117.597 215.981 117.027 216.141 116.647C216.621 115.497 217.701 116.387 219.191 117.407C218.661 116.407 219.091 114.287 219.781 115.027C220.471 115.777 223.961 116.687 227.351 117.357C228.501 117.587 229.291 118.067 229.781 118.697C232.771 119.127 235.101 120.027 235.801 122.357C236.301 124.017 235.941 125.287 235.541 126.057C235.541 126.057 239.691 132.687 229.181 136.997L229.171 136.977Z"  style="mix-blend-mode:normal" fill="#363636" >
</path>
<g style="mix-blend-mode:darken" opacity="0.3">
<path d="M221.891 141.377C222.241 141.257 222.751 140.877 222.751 139.737L222.751 137.267C222.751 137.267 223.561 137.247 224.431 137.007C225.301 136.777 224.221 141.437 222.491 141.667C222.181 141.707 222.001 141.587 221.891 141.377Z"  style="mix-blend-mode:normal" fill="#F38479" >
</path>
</g>
<path d="M213.751 140.797C210.851 141.137 207.051 183.347 207.051 183.347C208.031 187.727 234.791 186.127 236.331 184.877C238.461 183.147 237.221 186.337 237.221 169.407C237.221 152.477 238.271 145.997 238.271 145.997C238.421 144.187 237.171 142.567 235.381 142.257C233.531 141.937 218.421 140.257 213.741 140.807L213.751 140.797Z"  style="mix-blend-mode:normal" fill="url(#linear_fill_y20iuMCP4cxeepyRMox5p)" >
</path>
<g style="mix-blend-mode:darken" opacity="0.16">
<path d="M237.631 153.327C237.421 157.047 237.231 162.297 237.231 169.397C237.231 186.327 238.471 183.137 236.341 184.867C235.531 185.527 228.151 186.077 221.191 185.807C233.721 182.517 237.631 153.327 237.631 153.327Z"  style="mix-blend-mode:darken" fill="url(#linear_fill_LD3MYnH-6PORc7mx1niyq)" >
</path>
</g>
<path d="M332.8 276.707L0 276.707L0 277.777L332.8 277.777L332.8 276.707Z"  style="mix-blend-mode:normal" fill="#1E1E1E" >
</path>
<g opacity="0.33">
<path d="M219.82 50.1866L274.36 50.1866C279.883 50.1866 284.36 54.6638 284.36 60.1866L284.36 86.9166C284.36 92.4395 279.883 96.9166 274.36 96.9166L219.82 96.9166C214.297 96.9166 209.82 92.4395 209.82 86.9166L209.82 60.1866C209.82 54.6638 214.297 50.1866 219.82 50.1866Z"  style="mix-blend-mode:normal" fill="url(#linear_fill_OwL7n5KZXTiireUESgTiz)" >
</path>
</g>
<path d="M221.464 59.1839C221.51 60.398 220.564 61.42 219.35 61.4667C218.136 61.5133 217.114 60.5669 217.067 59.3528C217.02 58.1387 217.967 57.1166 219.181 57.07C220.395 57.0233 221.417 57.9698 221.464 59.1839Z"  style="mix-blend-mode:normal" fill="url(#linear_fill_F-EoxjVyZP5dOxu5-p8qA)" >
</path>
<path d="M228.339 59.1898C228.385 60.4039 227.439 61.4259 226.225 61.4725C225.011 61.5192 223.989 60.5728 223.942 59.3587C223.895 58.1445 224.842 57.1225 226.056 57.0758C227.27 57.0292 228.292 57.9756 228.339 59.1898Z"  style="mix-blend-mode:normal" fill="#FFFFFF" >
</path>
<path d="M235.223 59.1857C235.27 60.3998 234.324 61.4218 233.109 61.4685C231.895 61.5151 230.873 60.5687 230.827 59.3546C230.78 58.1404 231.726 57.1184 232.941 57.0717C234.155 57.0251 235.177 57.9715 235.223 59.1857Z"  style="mix-blend-mode:normal" fill="#FFFFFF" >
</path>
<path d="M218.85 72.2567L256.08 72.2567C256.87 72.2567 257.51 72.8969 257.51 73.6867L257.51 74.5367C257.51 75.3265 256.87 75.9667 256.08 75.9667L218.85 75.9667C218.06 75.9667 217.42 75.3265 217.42 74.5367L217.42 73.6867C217.42 72.8969 218.06 72.2567 218.85 72.2567Z"  style="mix-blend-mode:normal" fill="#FFFFFF" >
</path>
<path d="M218.85 80.3467L244.54 80.3467C245.33 80.3467 245.97 80.9869 245.97 81.7767L245.97 82.6266C245.97 83.4164 245.33 84.0566 244.54 84.0566L218.85 84.0566C218.06 84.0566 217.42 83.4164 217.42 82.6266L217.42 81.7767C217.42 80.9869 218.06 80.3467 218.85 80.3467Z"  style="mix-blend-mode:normal" fill="#FFFFFF" >
</path>
<defs>
<linearGradient id="linear_fill_IwsCwB44hamWFwf5OAoq7" x1="5.5396728515625" y1="125.75555419921875" x2="327.260986328125" y2="125.75555419921875" gradientUnits="userSpaceOnUse">
<stop offset="0" stop-color="#B3DDFF"  />
<stop offset="1" stop-color="#3592DE"  />
</linearGradient>
<linearGradient id="linear_fill_RLQY0PjBI2V5Gi6C2uE5-" x1="170.6796875" y1="85.11663818359375" x2="229.3997802734375" y2="85.11663818359375" gradientUnits="userSpaceOnUse">
<stop offset="0.20999999344348907" stop-color="#8E8E8E"  />
<stop offset="0.5199999809265137" stop-color="#9A9A9A"  />
<stop offset="1" stop-color="#B6B6B6"  />
</linearGradient>
<linearGradient id="linear_fill_vgsYSZ-hcfheESZIwCMql" x1="11.7393798828125" y1="267.90667724609375" x2="47.4793701171875" y2="267.90667724609375" gradientUnits="userSpaceOnUse">
<stop offset="0" stop-color="#1B91FB"  />
<stop offset="1" stop-color="#2857E4"  />
</linearGradient>
<linearGradient id="linear_fill_4ooMtFQF84SLIcEVVM3cs" x1="29.099609375" y1="254.24658203125" x2="29.4796142578125" y2="257.8665771484375" gradientUnits="userSpaceOnUse">
<stop offset="0" stop-color="#1B91FB"  />
<stop offset="1" stop-color="#2857E4"  />
</linearGradient>
<linearGradient id="linear_fill_08B4aamhweUJtKfOJ-r2b" x1="15.2596435546875" y1="264.667236328125" x2="29.36279296875" y2="264.667236328125" gradientUnits="userSpaceOnUse">
<stop offset="0" stop-color="#4EB387"  />
<stop offset="1" stop-color="#0C996A"  />
</linearGradient>
<linearGradient id="linear_fill_Cc3Qmx59i6Ji4i1MZU1D4" x1="28.8299560546875" y1="262.1663818359375" x2="64.3800048828125" y2="262.1663818359375" gradientUnits="userSpaceOnUse">
<stop offset="0" stop-color="#4EB387"  />
<stop offset="1" stop-color="#0C996A"  />
</linearGradient>
<linearGradient id="linear_fill_-tCIQ9VQaoFcrxOT_xtep" x1="9.2401123046875" y1="239.2366943359375" x2="32.572509765625" y2="239.2366943359375" gradientUnits="userSpaceOnUse">
<stop offset="0" stop-color="#4EB387"  />
<stop offset="1" stop-color="#0C996A"  />
</linearGradient>
<linearGradient id="linear_fill_Ox8wDIVotofZd2_vjF3LL" x1="62.6431884765625" y1="234.06805419921875" x2="52.15234375" y2="251.2041015625" gradientUnits="userSpaceOnUse">
<stop offset="0" stop-color="#4EB387"  />
<stop offset="1" stop-color="#0C996A"  />
</linearGradient>
<linearGradient id="linear_fill_bWwDGTQs42cP6o9tbVpk4" x1="148.989990234375" y1="178.63665771484375" x2="148.739990234375" y2="252.816650390625" gradientUnits="userSpaceOnUse">
<stop offset="0" stop-color="#B3DDFF" stop-opacity="0" />
<stop offset="1" stop-color="#3592DE"  />
</linearGradient>
<linearGradient id="linear_fill_ZrT3zgbISxtuLHf4JVqlj" x1="57.759521484375" y1="98.2066650390625" x2="21.6895751953125" y2="149.41668701171875" gradientUnits="userSpaceOnUse">
<stop offset="0" stop-color="#B3DDFF"  />
<stop offset="1" stop-color="#3592DE"  />
</linearGradient>
<linearGradient id="linear_fill_2cmn_3Ct6rbkbCbYofHYX" x1="14.79150390625" y1="94.85009765625" x2="12.821533203125" y2="86.570068359375" gradientUnits="userSpaceOnUse">
<stop offset="0" stop-color="#1B91FB"  />
<stop offset="1" stop-color="#2857E4"  />
</linearGradient>
<linearGradient id="linear_fill_Z_J35tsT7DgP4UICIODYH" x1="43.1798095703125" y1="148.68206787109375" x2="43.4298095703125" y2="118.45721435546875" gradientUnits="userSpaceOnUse">
<stop offset="0" stop-color="#1B91FB" stop-opacity="0" />
<stop offset="0.9399999976158142" stop-color="#275AE5" stop-opacity="0.94" />
<stop offset="1" stop-color="#2857E4"  />
</linearGradient>
<linearGradient id="linear_fill_ls5dXCQcft78eBNr8uvTd" x1="43.400390625" y1="166.3466796875" x2="125.8603515625" y2="166.3466796875" gradientUnits="userSpaceOnUse">
<stop offset="0.20999999344348907" stop-color="#8E8E8E"  />
<stop offset="0.5199999809265137" stop-color="#9A9A9A"  />
<stop offset="1" stop-color="#B6B6B6"  />
</linearGradient>
<linearGradient id="linear_fill_PDxGi6gpyAaC2Ae_A-Co8" x1="198.5899658203125" y1="150.9166259765625" x2="262.5399169921875" y2="150.9166259765625" gradientUnits="userSpaceOnUse">
<stop offset="0.20999999344348907" stop-color="#8E8E8E"  />
<stop offset="0.5199999809265137" stop-color="#9A9A9A"  />
<stop offset="1" stop-color="#B6B6B6"  />
</linearGradient>
<linearGradient id="linear_fill_fCYOO61haiaN5x1hlct1Q" x1="92.9697265625" y1="149.666748046875" x2="205.0496826171875" y2="149.666748046875" gradientUnits="userSpaceOnUse">
<stop offset="0" stop-color="#FFA826"  />
<stop offset="1" stop-color="#FFD05C"  />
</linearGradient>
<linearGradient id="linear_fill_YOEW1pp5ebDVlcVOdRpfF" x1="184.6881103515625" y1="204.79669189453125" x2="109.2000732421875" y2="210.03668212890625" gradientUnits="userSpaceOnUse">
<stop offset="0" stop-color="#3A51A2"  />
<stop offset="1" stop-color="#1A2869"  />
</linearGradient>
<linearGradient id="linear_fill_QQVjm9DclQkLe1puHMYjt" x1="125.27978515625" y1="216.7867431640625" x2="172.59765625" y2="216.7867431640625" gradientUnits="userSpaceOnUse">
<stop offset="0" stop-color="#3A51A2"  />
<stop offset="1" stop-color="#1A2869"  />
</linearGradient>
<linearGradient id="linear_fill_MqtwnydpGVIVVQq7TLxVA" x1="185.9046630859375" y1="222.396728515625" x2="110.420654296875" y2="227.646728515625" gradientUnits="userSpaceOnUse">
<stop offset="0" stop-color="#3A51A2"  />
<stop offset="1" stop-color="#1A2869"  />
</linearGradient>
<linearGradient id="linear_fill_M17GZ_Vk7L1NDDSuCIf2O" x1="128.1494140625" y1="232.25665283203125" x2="169.740234375" y2="232.25665283203125" gradientUnits="userSpaceOnUse">
<stop offset="0" stop-color="#3A51A2"  />
<stop offset="1" stop-color="#1A2869"  />
</linearGradient>
<linearGradient id="linear_fill_Zk-G_Hb25gcH2renMx5tQ" x1="148.9388427734375" y1="196.19561767578125" x2="148.9388427734375" y2="204.06561279296875" gradientUnits="userSpaceOnUse">
<stop offset="0" stop-color="#3A51A2"  />
<stop offset="1" stop-color="#1A2869"  />
</linearGradient>
<linearGradient id="linear_fill_i9fmXfPqnw5SEFk4exGQx" x1="316.8204345703125" y1="161.836669921875" x2="284.00048828125" y2="193.9366455078125" gradientUnits="userSpaceOnUse">
<stop offset="0" stop-color="#B3DDFF"  />
<stop offset="1" stop-color="#3592DE"  />
</linearGradient>
<linearGradient id="linear_fill_8HkHsyzg_xXe3IQdP8TQP" x1="265.463134765625" y1="159.10540771484375" x2="263.43310546875" y2="150.59539794921875" gradientUnits="userSpaceOnUse">
<stop offset="0" stop-color="#1B91FB"  />
<stop offset="1" stop-color="#2857E4"  />
</linearGradient>
<linearGradient id="linear_fill_iVTLfKkAIi9x2XmMmN_le" x1="262.500732421875" y1="197.49786376953125" x2="327.547607421875" y2="197.49786376953125" gradientUnits="userSpaceOnUse">
<stop offset="0" stop-color="#1B91FB"  />
<stop offset="1" stop-color="#2857E4"  />
</linearGradient>
<linearGradient id="linear_fill_YNVhW19Hbde_YmeZ9B-Jq" x1="262.57080078125" y1="191.00469970703125" x2="327.5477294921875" y2="191.00469970703125" gradientUnits="userSpaceOnUse">
<stop offset="0" stop-color="#FFA826"  />
<stop offset="1" stop-color="#FFD05C"  />
</linearGradient>
<linearGradient id="linear_fill_cELNce3tIx__ZZkDT5K0q" x1="229.8106689453125" y1="173.0067138671875" x2="252.5706787109375" y2="187.69549560546875" gradientUnits="userSpaceOnUse">
<stop offset="0" stop-color="#FFCFC1"  />
<stop offset="1" stop-color="#FF9E82"  />
</linearGradient>
<linearGradient id="linear_fill_7suVtGJ_dY03IvlK3yqP9" x1="215.14990234375" y1="170.916748046875" x2="192.389892578125" y2="185.60552978515625" gradientUnits="userSpaceOnUse">
<stop offset="0" stop-color="#FFCFC1"  />
<stop offset="1" stop-color="#FF9E82"  />
</linearGradient>
<linearGradient id="linear_fill_X_nYy0PYYlmhaMxwHooM8" x1="248.783447265625" y1="126.74664306640625" x2="239.04150390625" y2="192.4366455078125" gradientUnits="userSpaceOnUse">
<stop offset="0" stop-color="#1B91FB"  />
<stop offset="1" stop-color="#2857E4"  />
</linearGradient>
<linearGradient id="linear_fill_MBQJsGCHaJn0uhgLMnLYx" x1="208.7137451171875" y1="120.806640625" x2="198.9715576171875" y2="186.49664306640625" gradientUnits="userSpaceOnUse">
<stop offset="0" stop-color="#1B91FB"  />
<stop offset="1" stop-color="#2857E4"  />
</linearGradient>
<linearGradient id="linear_fill_WB1QzUcux6UhR8qj2Tnv6" x1="220.780517578125" y1="270.7166748046875" x2="225.2705078125" y2="197.03668212890625" gradientUnits="userSpaceOnUse">
<stop offset="0" stop-color="#3A51A2"  />
<stop offset="1" stop-color="#1A2869"  />
</linearGradient>
<linearGradient id="linear_fill_762msPPXR7mjpdbnDGZ43" x1="216.0736083984375" y1="133.10662841796875" x2="233.663818359375" y2="143.40667724609375" gradientUnits="userSpaceOnUse">
<stop offset="0" stop-color="#FFCFC1"  />
<stop offset="1" stop-color="#FF9E82"  />
</linearGradient>
<linearGradient id="linear_fill_4YM81sW6GO1K9QUiNW8bz" x1="212.5068359375" y1="120.42291259765625" x2="248.7440185546875" y2="150.7574462890625" gradientUnits="userSpaceOnUse">
<stop offset="0" stop-color="#FFCFC1"  />
<stop offset="1" stop-color="#FF9E82"  />
</linearGradient>
<linearGradient id="linear_fill_y20iuMCP4cxeepyRMox5p" x1="232.0789794921875" y1="133.46600341796875" x2="223.589599609375" y2="169.42913818359375" gradientUnits="userSpaceOnUse">
<stop offset="0" stop-color="#1B91FB"  />
<stop offset="1" stop-color="#2857E4"  />
</linearGradient>
<linearGradient id="linear_fill_LD3MYnH-6PORc7mx1niyq" x1="237.6304931640625" y1="169.5965576171875" x2="221.1805419921875" y2="169.5965576171875" gradientUnits="userSpaceOnUse">
<stop offset="0" stop-color="#4A4A4A"  />
<stop offset="0.7300000190734863" stop-color="#444444"  />
<stop offset="1" stop-color="#414141"  />
</linearGradient>
<linearGradient id="linear_fill_OwL7n5KZXTiireUESgTiz" x1="268.8902587890625" y1="53.4266357421875" x2="231.63037109375" y2="87.816650390625" gradientUnits="userSpaceOnUse">
<stop offset="0" stop-color="#B3DDFF"  />
<stop offset="1" stop-color="#3592DE"  />
</linearGradient>
<linearGradient id="linear_fill_F-EoxjVyZP5dOxu5-p8qA" x1="220.2701416015625" y1="63.5382080078125" x2="217.5201416015625" y2="52.0482177734375" gradientUnits="userSpaceOnUse">
<stop offset="0" stop-color="#1B91FB"  />
<stop offset="1" stop-color="#2857E4"  />
</linearGradient>
</defs>
</svg>
