<svg xmlns="http://www.w3.org/2000/svg" xmlns:xlink="http://www.w3.org/1999/xlink" width="333.6500244140625" height="281.25" viewBox="0 0 333.6500244140625 281.25" fill="none">
<g opacity="0.15">
<path    style="mix-blend-mode:normal" fill="url(#linear_fill_TT1R7ZVQG0hKhax-4JYmo_0)"  d="M18.2105 223.928C9.17048 183.638 -3.56951 137.068 38.0905 110.878C58.0705 98.3178 82.1505 91.7778 98.8505 75.0978C115.77 58.2078 122.82 33.0578 140.71 17.2078C162.68 -2.26222 196.58 -2.8222 224.63 3.8478C268.96 14.3978 312.95 45.9778 318.84 91.1678C325.03 138.688 306.04 190.558 272.15 225.178C228.39 269.878 164.41 271.448 105.45 267.048C76.7205 264.898 44.3905 257.268 30.3705 232.108">
</path>
</g>
<g opacity="0.15">
<path d="M57.0402 13.9477C66.5502 6.74773 77.8301 3.83775 90.3201 10.7778C135.39 35.8477 70.3902 87.6677 39.6602 87.6177C16.3102 87.5877 25.8101 60.3677 31.9501 47.6177C37.9301 35.1977 45.9002 22.3777 57.0402 13.9477Z"  style="mix-blend-mode:normal" fill="url(#linear_fill_vE6BPxGw53ubAe9wleoIu)" >
</path>
</g>
<path d="M333.65 280.178L0.849609 280.178L0.849609 281.248L333.65 281.248L333.65 280.178Z"  style="mix-blend-mode:normal" fill="#1E1E1E" >
</path>
<path d="M215.71 280.178L212.37 264.968L203.03 264.968C203.03 264.968 203.47 270.918 201.88 274.188C201.36 275.488 194.34 277.698 192.48 278.128L192.08 280.178L215.73 280.178L215.71 280.178Z"  style="mix-blend-mode:normal" fill="#3B3E6A" >
</path>
<path d="M172.4 280.178L172.2 264.968L162.86 264.968C162.86 264.968 160.16 270.918 158.56 274.188C158.04 275.488 151.02 277.698 149.16 278.128L148.76 280.178L172.41 280.178L172.4 280.178Z"  style="mix-blend-mode:normal" fill="#3B3E6A" >
</path>
<path d="M208.12 159.618L208.18 160.318C211.7 198.648 214.37 267.548 214.37 267.548L200.48 267.548C200.48 267.548 190.55 198.268 187.04 185.598C187.04 185.598 186.11 188.998 173.9 267.548L160.65 267.548C160.65 267.548 162.78 210.548 167.42 158.038C186.59 158.118 208.11 159.608 208.11 159.608L208.12 159.618Z"  style="mix-blend-mode:normal" fill="url(#linear_fill__5YC8I983r9I8QR8EejYr)" >
</path>
<path d="M95.48 278.788C93.97 277.008 92.15 275.548 90.24 274.218C88.33 272.898 88.43 270.528 86.73 266.978C84.7 262.138 80.7401 264.298 80.6501 267.428C80.37 276.818 82.4101 281.248 82.4101 281.248L84.23 281.248L84.75 277.708C84.75 277.708 85.88 279.928 86.82 280.568C87.69 281.158 95.6401 281.648 96.2901 279.728L95.49 278.778L95.48 278.788Z"  style="mix-blend-mode:normal" fill="#3B3E6A" >
</path>
<path d="M108.78 278.788C107.27 277.008 105.45 275.548 103.54 274.218C101.63 272.898 101.73 270.528 100.03 266.978C98.0001 262.138 94.04 264.298 93.95 267.428C93.67 276.818 95.7101 281.248 95.7101 281.248L97.5301 281.248L98.05 277.708C98.05 277.708 99.18 279.928 100.12 280.568C100.99 281.158 108.94 281.648 109.59 279.728L108.79 278.778L108.78 278.788Z"  style="mix-blend-mode:normal" fill="#3B3E6A" >
</path>
<path d="M96.44 84.5378C96.44 84.5378 92.94 79.7478 88.8 83.9278C88.8 83.9278 88.51 84.6178 81.24 85.4278L80.53 95.3578C80.31 98.3578 82.8 100.858 85.8 100.658L84.34 109.798C87.1 110.728 89.7 110.698 90.08 110.568C91.98 109.918 92.16 108.788 92.16 108.788C92.16 108.788 92.2 106.428 91.64 101.218C91.64 101.218 96.28 105.438 97.36 94.2778C97.36 94.2778 97.84 87.7378 96.44 84.5378Z"  style="mix-blend-mode:normal" fill="url(#linear_fill_iX92zrnX6e6u_ldQfth4x)" >
</path>
<path d="M73.0204 164.958C70.5304 167.128 78.0504 244.808 79.5904 268.578L88.8304 268.978L88.8704 168.038L73.0204 164.958Z"  style="mix-blend-mode:normal" fill="url(#linear_fill_VQCCSfS86yPE7a-Fl49-I)" >
</path>
<path d="M77.8709 166.278L92.3309 268.978L101.661 267.938C101.661 267.938 102.311 186.748 98.791 167.598L77.8809 166.278L77.8709 166.278Z"  style="mix-blend-mode:normal" fill="url(#linear_fill_tbvhKBln817lvvQ5w1RPR)" >
</path>
<path d="M143.73 150.198C138.86 151.238 130.98 154.928 127.56 153.048L125.49 145.778L141.03 142.468L142.58 145.818L143.74 150.208L143.73 150.198Z"  style="mix-blend-mode:normal" fill="url(#linear_fill_RVZb0hYzQdyJQH056WL_Q)" >
</path>
<path d="M99.68 135.348C100.61 142.788 100.77 157.288 100.78 164.858C100.78 167.828 100.77 169.738 100.77 169.738C96 169.358 88.8801 166.978 71.8501 166.548C70.4801 166.508 70.03 164.618 70.38 163.378L72.6001 140.298L72.75 138.718L72.4101 118.248C72.9501 114.498 75.01 111.068 78.19 108.668L82.56 105.368L92.1501 108.518C96.8501 118.268 100.81 121.298 101.64 125.838C102.23 129.068 99.1 130.758 99.68 135.338L99.68 135.348Z"  style="mix-blend-mode:normal" fill="url(#linear_fill_LuQVBNaLVQkfS70CZUeUL)" >
</path>
<path d="M132.99 148.008C131.16 146.428 129.24 145.098 127.23 143.998C125.94 143.298 118.91 144.828 117.44 144.758L110.71 142.828L110.71 150.998L120.14 153.178C122.54 155.828 125.56 156.048 126.92 155.998C127.35 155.978 127.77 155.858 128.15 155.658L130.67 154.318C130.84 154.228 131 154.118 131.15 153.998L132.92 152.548C133.2 152.318 133.44 152.028 133.62 151.708C134.31 150.478 134.05 148.928 132.99 148.008Z"  style="mix-blend-mode:normal" fill="url(#linear_fill_3g83LpPa24CAnYdWBj1Cj)" >
</path>
<path d="M139.29 145.138L135.24 145.398C134.82 145.258 129.7 142.098 129.26 142.188C127.18 142.618 121.07 144.038 122.12 145.688C122.89 146.898 129.02 144.988 129.02 144.988L139.29 145.138Z"  style="mix-blend-mode:normal" fill="url(#linear_fill_g6pn-vhrN-Qf9OVgfvZ1b)" >
</path>
<path d="M125.89 153.508C125.63 153.328 122.89 150.208 122.89 150.208C122 149.258 120.49 149.128 119.52 150.008C119.42 150.098 119.34 150.188 119.29 150.258L117.96 152.208C117.59 152.748 117.73 153.478 118.27 153.848C118.63 154.098 119.64 154.618 119.95 154.828C120.44 155.168 121.61 155.508 121.99 155.768C122.42 156.068 123.54 156.348 123.83 156.548C124.3 156.868 124.95 156.748 125.27 156.278L126.17 154.958C126.49 154.488 126.37 153.838 125.9 153.518L125.89 153.508Z"  style="mix-blend-mode:normal" fill="url(#linear_fill_ruxhWuUEG8pryc7es05YY)" >
</path>
<path d="M89.6102 113.738C89.6102 113.738 94.6303 108.638 95.9603 136.968L113.61 143.668L110.94 153.068L91.9103 147.338C89.8703 147.118 85.8903 143.028 85.7103 140.588L83.3503 126.358C82.6103 121.878 84.4903 117.368 88.2003 114.748L89.6202 113.748L89.6102 113.738Z"  style="mix-blend-mode:normal" fill="url(#linear_fill_zsnny_ozG9Zkm4WYTHg-R)" >
</path>
<g opacity="0.1">
<path d="M100.79 164.848C100.79 167.818 100.78 169.728 100.78 169.728C96.01 169.348 88.89 166.968 71.86 166.538C70.49 166.498 70.04 164.608 70.39 163.368L72.61 140.288C74.8 150.068 81.37 163.508 100.79 164.848Z"  style="mix-blend-mode:normal" fill="#363636" >
</path>
</g>
<path d="M184.14 96.6178L168.37 100.908C165.95 101.568 164.06 103.448 163.39 105.868L155.62 132.528L135.38 143.668L137.43 152.368C137.43 152.368 166.73 146.178 167.36 142.858L172.47 113.168L184.15 96.6278L184.14 96.6178Z"  style="mix-blend-mode:normal" fill="url(#linear_fill_z2NV7AMp8syBQNkiUvzcE)" >
</path>
<path d="M201.09 100.168L193.45 97.9977L193.44 97.8377L182.65 97.5877L169.56 110.798L168.31 134.268L166.74 158.938L208.47 160.998L201.09 100.168Z"  style="mix-blend-mode:normal" fill="url(#linear_fill_W3WCYu6v4HKMsueXeeBGG)" >
</path>
<path d="M182.389 136.023L212.902 140.072C215.371 140.4 217.107 142.667 216.779 145.136L213.994 166.122C213.666 168.592 211.399 170.328 208.93 170L178.417 165.95C175.948 165.623 174.212 163.355 174.54 160.886L177.325 139.9C177.653 137.431 179.92 135.695 182.389 136.023Z"  style="mix-blend-mode:normal" fill="#ABC8EE" >
</path>
<path d="M182.387 75.8291C183.674 79.1331 183.17 82.4142 181.26 83.1579C179.351 83.9015 176.76 81.826 175.473 78.522C174.187 75.2181 174.691 71.937 176.6 71.1934C178.51 70.4497 181.101 72.5252 182.387 75.8291Z"  style="mix-blend-mode:normal" fill="#363636" >
</path>
<path d="M186.29 102.168C182.97 102.168 180.45 97.6277 180.45 97.6277C180.45 97.6277 183.07 96.8878 183.52 96.4478C183.86 96.1278 184.15 95.5677 184.15 94.5677C184.15 92.2077 184.15 89.9778 184.15 89.9778L190.34 88.4377L193.44 87.6678C193.44 87.6678 192.87 96.1978 194.09 97.6778C195.31 99.1678 189.61 102.168 186.3 102.168L186.29 102.168Z"  style="mix-blend-mode:normal" fill="url(#linear_fill_xsGxfHMfgE0xdeY18342L)" >
</path>
<g style="mix-blend-mode:darken" opacity="0.3">
<path d="M192.619 90.7178C191.489 92.5278 189.279 95.7278 183.519 96.4478C183.859 96.1278 184.149 95.5678 184.149 94.5678C184.149 92.2078 184.149 89.9778 184.149 89.9778L190.339 88.4378L192.629 90.7178L192.619 90.7178Z"  style="mix-blend-mode:normal" fill="#F38479" >
</path>
</g>
<path d="M197.84 83.0778C197.56 84.0978 197.23 85.1078 196.79 86.0978C196.39 86.9878 195.92 87.8478 195.33 88.6278C195.09 88.9478 193.45 90.2778 193.45 90.5178C193.28 90.5978 193.1 90.6678 192.92 90.7278C192.92 90.7278 180.3 98.7478 178.85 90.7278C177.92 85.5578 177.63 80.2478 177.54 77.1178C177.49 75.3878 177.5 74.3178 177.5 74.3178L196.97 74.3178C196.97 74.3178 198.23 78.7478 197.84 83.0778Z"  style="mix-blend-mode:normal" fill="url(#linear_fill_tjeg3roIKDkvUJDEXn5Id)" >
</path>
<path d="M198.47 80.5478C198.27 81.3978 198.07 82.2378 197.84 83.0778C197.56 84.0978 197.23 85.1078 196.79 86.0978C196.39 86.9878 195.92 87.8478 195.33 88.6278C195.09 88.9478 193.45 90.2778 193.45 90.5178L193.49 89.1678C193.51 88.7678 193.75 88.4178 194.12 88.2578C195.03 87.8678 196.64 86.7878 196.69 84.0678C196.69 84.0678 196.64 81.1878 194.34 81.3578C192.96 81.4578 192.2 82.1778 191.82 82.7378C191.65 82.9878 191.28 82.9278 191.2 82.6378C191.04 81.9678 190.87 80.8078 190.9 78.9378C190.91 78.3478 190.94 77.6778 191 76.9378C191.04 76.4078 190.52 76.0078 190.02 76.1978C189.27 76.4778 188.18 76.8478 186.93 77.1778C184.03 77.9378 180.23 78.4578 177.54 77.1178C175.48 76.0878 174.07 73.9478 174.23 69.9678C174.17 69.0778 174.27 68.2578 174.38 67.7078C174.73 66.0378 176.4 66.9578 178.65 67.9378C177.69 66.7478 177.71 63.7978 178.84 64.6078C179.95 65.4278 184.85 65.7478 189.56 65.7678C191.7 65.7778 193.08 66.5678 193.82 67.7378C194.19 68.3178 194.93 68.1878 195.49 68.3778C196.31 68.6478 196.91 69.0378 197.47 69.7078C199.98 72.7978 199.32 76.9878 198.47 80.5478Z"  style="mix-blend-mode:normal" fill="#363636" >
</path>
<path d="M86.7 76.0478C86.7 76.0478 90.92 76.7278 94.09 78.9078C97.26 81.0778 96.52 83.1278 96.19 83.9378C95.86 84.7478 95.36 85.6178 95.05 85.5478C95.05 85.5478 94.95 87.7578 94.45 89.5378C93.94 91.3178 93.64 92.0578 93.54 93.4278C93.44 94.7978 93.44 95.6878 92.76 95.5778C92.08 95.4578 90.94 96.4478 90.9 97.8878C90.86 99.3278 91.9 103.978 90.67 105.398C89.44 106.818 89.48 108.388 88.54 109.288C87.6 110.188 86.95 111.768 85.51 114.288C84.07 116.808 82.85 116.978 81.98 119.738C81.11 122.498 81.96 124.068 80.86 125.998C79.76 127.928 77.31 130.518 77.47 133.478C77.47 133.478 76.57 131.148 77.26 129.448C77.26 129.448 75.54 130.648 74.98 131.918C74.42 133.198 72.08 135.788 70.86 136.708C69.64 137.628 68.37 136.028 67.44 133.318C66.5 130.618 66.47 129.338 66.47 129.338C66.47 129.338 66.03 130.228 66.04 131.758C66.04 131.758 64.84 130.118 65.36 128.148C65.88 126.178 66.44 126.278 66.17 123.878C65.9 121.468 66.05 118.778 67.19 115.408C68.34 112.038 71.2 108.058 71.63 103.838C72.06 99.6178 71.17 93.6578 72.31 87.3978C73.45 81.1378 79.96 73.6278 86.69 76.0578L86.7 76.0478Z"  style="mix-blend-mode:normal" fill="#363636" >
</path>
<path d="M94.36 94.0378C94.36 94.0378 93.89 89.1678 91.61 89.4478C89.33 89.7278 90.86 95.6378 92.16 96.7178C93.46 97.7978 94.7 95.8278 94.36 94.0378Z"  style="mix-blend-mode:normal" fill="url(#linear_fill_HxYPgP14GPVTebiXT5gfM)" >
</path>
<path d="M198.75 155.388L197.72 155.858C194.96 155.508 191.4 156.188 189.8 156.008C189.05 155.918 186.47 155.808 186.17 156.528C185.91 157.158 187.77 158.188 188.74 158.568C183.92 160.888 177.68 166.218 188.05 162.008C188.05 162.008 188.05 162.018 188.05 162.028C187.03 162.538 180.19 166.228 181.25 167.178C182.19 168.008 187.49 165.288 189.17 164.458C189.17 164.468 189.19 164.488 189.19 164.498C187.53 165.478 182.45 168.268 183.66 168.748C185.08 169.308 190.19 167.288 190.81 167.048C190.2 167.338 185.18 169.718 186.71 170.578C187.82 171.198 192.27 168.398 193.85 167.488C194.08 167.358 194.27 167.218 194.44 167.068C196.86 165.458 199.32 163.168 200.38 162.148C200.42 162.108 200.45 162.078 200.48 162.048L200.92 161.618L202.83 160.828C201.2 159.188 199.74 157.518 198.75 155.388Z"  style="mix-blend-mode:normal" fill="url(#linear_fill_24Bz9-bBEa8J0CscqJQyL)" >
</path>
<path d="M201.09 100.168C201.09 100.168 212.28 106.238 222.62 135.038C223.1 136.358 222.84 137.848 222.03 138.998C212.69 152.298 205.19 160.068 202.76 162.458C202.31 162.908 201.58 162.878 201.15 162.408L200.13 161.288C199.27 160.348 198.54 159.308 197.94 158.188L196.98 156.388C196.79 156.028 196.81 155.588 197.03 155.248L209.54 136.098L199.21 121.628L201.09 100.168Z"  style="mix-blend-mode:normal" fill="url(#linear_fill_0aTGzcK3oxxEX8bAhl4Qi)" >
</path>
<path d="M122.02 34.6879L145.99 34.6879C151.512 34.6879 155.99 39.165 155.99 44.6879L155.99 68.6579C155.99 74.1807 151.512 78.6579 145.99 78.6579L122.02 78.6579C116.497 78.6579 112.02 74.1807 112.02 68.6579L112.02 44.6879C112.02 39.165 116.497 34.6879 122.02 34.6879Z"  style="mix-blend-mode:normal" fill="url(#linear_fill_YPxJaGNP-_yB4GiXBwzzO)" >
</path>
<path d="M130.66 65.1779C129.98 65.1779 129.329 64.9079 128.859 64.4279L123.65 59.2179C122.65 58.2179 122.65 56.6078 123.65 55.6078C124.65 54.6078 126.26 54.6078 127.26 55.6078L130.66 59.0078L140.76 48.9079C141.76 47.9079 143.37 47.9079 144.37 48.9079C145.37 49.9079 145.37 51.5179 144.37 52.5179L132.47 64.4178C131.99 64.8978 131.339 65.1678 130.669 65.1678L130.66 65.1779Z"  style="mix-blend-mode:normal" fill="#FFFFFF" >
</path>
<path d="M251.12 81.8378L281.89 81.8378C287.385 81.8378 291.84 86.2926 291.84 91.7878L291.84 133.838C291.84 139.333 287.385 143.788 281.89 143.788L251.12 143.788C245.625 143.788 241.17 139.333 241.17 133.838L241.17 91.7878C241.17 86.2926 245.625 81.8378 251.12 81.8378Z"  style="mix-blend-mode:normal" fill="url(#linear_fill_Wjzgw-ttKcPXmxVNnvdPz)" >
</path>
<g opacity="0.5">
<path d="M250.8 93.6678L266.46 93.6678C267.38 93.6678 268.12 92.8178 268.12 91.7578C268.12 90.6978 267.38 89.8478 266.46 89.8478L250.8 89.8478C249.88 89.8478 249.14 90.6978 249.14 91.7578C249.14 92.8178 249.88 93.6678 250.8 93.6678Z"  style="mix-blend-mode:normal" fill="#FFFFFF" >
</path>
<path d="M250.8 103.958L280.75 103.958C281.67 103.958 282.41 103.108 282.41 102.048C282.41 100.988 281.67 100.138 280.75 100.138L250.8 100.138C249.88 100.138 249.14 100.988 249.14 102.048C249.14 103.108 249.88 103.958 250.8 103.958Z"  style="mix-blend-mode:normal" fill="#FFFFFF" >
</path>
<path d="M250.8 114.728L280.75 114.728C281.67 114.728 282.41 113.878 282.41 112.818C282.41 111.758 281.67 110.908 280.75 110.908L250.8 110.908C249.88 110.908 249.14 111.758 249.14 112.818C249.14 113.878 249.88 114.728 250.8 114.728Z"  style="mix-blend-mode:normal" fill="#FFFFFF" >
</path>
<path d="M250.8 124.388L280.75 124.388C281.67 124.388 282.41 123.538 282.41 122.478C282.41 121.418 281.67 120.568 280.75 120.568L250.8 120.568C249.88 120.568 249.14 121.418 249.14 122.478C249.14 123.538 249.88 124.388 250.8 124.388Z"  style="mix-blend-mode:normal" fill="#FFFFFF" >
</path>
</g>
<path d="M263.31 138.408C263.14 138.408 262.98 138.348 262.84 138.228C262.55 137.968 262.52 137.528 262.78 137.238L267.66 131.728C268.35 130.948 269.43 130.678 270.41 131.048C271.39 131.418 272.02 132.328 272.02 133.378L272.02 134.318C272.02 134.888 272.4 135.218 272.75 135.348C273.1 135.468 273.6 135.448 273.96 134.998C274.6 134.198 275.32 133.368 276.11 132.528C276.57 132.038 277.26 131.898 277.87 132.178C278.48 132.458 278.83 133.068 278.77 133.738C278.72 134.278 278.66 134.858 278.6 135.398C278.55 135.838 278.75 136.228 279.12 136.458C279.5 136.688 279.94 136.668 280.3 136.418L280.69 136.148C281.01 135.928 281.45 135.998 281.67 136.318C281.89 136.638 281.81 137.078 281.5 137.298L281.11 137.568C280.3 138.138 279.26 138.178 278.41 137.668C277.56 137.158 277.1 136.228 277.21 135.248C277.27 134.718 277.33 134.148 277.38 133.608C277.38 133.578 277.39 133.508 277.3 133.468C277.21 133.428 277.16 133.478 277.14 133.498C276.38 134.308 275.68 135.108 275.07 135.878C274.4 136.718 273.31 137.028 272.3 136.678C271.29 136.318 270.63 135.398 270.63 134.328L270.63 133.388C270.63 132.688 270.09 132.438 269.93 132.368C269.77 132.308 269.19 132.138 268.73 132.668L263.85 138.178C263.71 138.338 263.52 138.418 263.32 138.418L263.31 138.408Z"  style="mix-blend-mode:normal" fill="#FFFFFF" >
</path>
<path d="M304.05 240.578C303.95 241.218 303.84 241.948 303.72 242.738C303.53 244.068 303.32 245.588 303.12 247.258C301.77 257.718 300.06 273.608 299.33 280.718L285.18 280.718C284.46 273.728 282.73 257.718 281.38 247.258C281.17 245.598 280.96 244.068 280.78 242.738C280.67 241.938 280.56 241.218 280.46 240.578L304.06 240.578L304.05 240.578Z"  style="mix-blend-mode:normal" fill="url(#linear_fill_pBsm_gkYigUzeMTCejkGV)" >
</path>
<g opacity="0.35">
<path d="M303.719 242.738C303.529 244.068 303.319 245.588 303.119 247.258L281.379 247.258C281.169 245.598 280.959 244.068 280.779 242.738L303.729 242.738L303.719 242.738Z"  style="mix-blend-mode:normal" fill="#FFFFFF" >
</path>
</g>
<path d="M279.859 239.798L304.66 239.798L304.66 244.998L279.859 244.998L279.859 239.798Z"  style="mix-blend-mode:normal" fill="url(#linear_fill_whHKxhFCQDVR_RSXLoU6n)" >
</path>
<path d="M304.65 239.798C304.65 240.058 302.41 240.308 299.02 240.438C298.95 240.438 298.89 240.438 298.82 240.438C298.72 240.438 298.62 240.438 298.52 240.448C298.47 240.448 298.419 240.448 298.359 240.448C297.419 240.478 296.39 240.508 295.32 240.528L294.62 240.528C294.449 240.528 294.28 240.528 294.1 240.528L293.89 240.528C293.36 240.528 292.81 240.538 292.26 240.538L292.08 240.538C291.28 240.538 290.5 240.538 289.75 240.518L289.24 240.518C288.579 240.498 287.94 240.498 287.32 240.478C287.18 240.478 287.03 240.478 286.9 240.458C282.74 240.338 279.859 240.078 279.859 239.778C279.859 239.478 282.61 239.218 286.64 239.108C286.77 239.108 286.9 239.108 287.04 239.088C287.71 239.078 288.4 239.058 289.12 239.048C289.29 239.048 289.46 239.048 289.63 239.048C290.45 239.038 291.31 239.028 292.19 239.028L292.27 239.028C292.81 239.028 293.329 239.028 293.859 239.038L293.99 239.038C294.12 239.038 294.25 239.038 294.37 239.038L295.28 239.038C296.46 239.058 297.56 239.078 298.58 239.128C298.65 239.128 298.72 239.128 298.79 239.138C298.87 239.138 298.95 239.138 299.03 239.138C299.11 239.138 299.19 239.138 299.26 239.138C302.52 239.278 304.65 239.508 304.65 239.768L304.65 239.798Z"  style="mix-blend-mode:normal" fill="url(#linear_fill_himifJJXz9PKh5oRxt9XR)" >
</path>
<path d="M293.979 239.048C293.949 239.548 293.929 240.048 293.889 240.548C293.359 240.548 292.809 240.558 292.259 240.558L292.079 240.558C292.119 240.048 292.159 239.538 292.189 239.038C292.679 230.938 292.149 222.768 291.759 214.658C291.689 213.198 291.619 211.748 291.549 210.288C291.529 209.838 291.509 209.398 291.489 208.938C291.279 204.228 291.119 199.508 291.319 194.808C291.339 194.248 291.359 193.688 291.399 193.128C291.539 190.718 291.779 188.308 292.159 185.908L293.379 186.108C293.209 187.348 293.069 188.588 292.969 189.828C292.919 190.288 292.889 190.738 292.859 191.198C292.409 197.438 292.629 203.698 292.999 209.958C293.009 210.138 293.029 210.308 293.039 210.498C293.069 211.088 293.109 211.668 293.149 212.258C293.179 212.758 293.209 213.268 293.239 213.778C293.579 218.828 293.939 223.878 294.049 228.918C294.139 232.288 294.159 235.668 293.999 239.048L293.979 239.048Z"  style="mix-blend-mode:normal" fill="#24683E" >
</path>
<path d="M293.02 210.498L292.28 211.038C292.08 210.768 291.82 210.468 291.54 210.288C291.34 210.158 291.13 210.088 290.93 210.138C289.38 210.498 287.79 215.778 287.15 219.408L285.94 219.198C286.22 217.608 287.75 209.628 290.65 208.948C290.93 208.888 291.199 208.888 291.479 208.948C291.999 209.058 292.5 209.398 292.99 209.968C293 210.148 293.02 210.318 293.03 210.508L293.02 210.498Z"  style="mix-blend-mode:normal" fill="#24683E" >
</path>
<path d="M297.9 217.828C297.14 216.118 295.46 213.348 294.2 213.218C294.07 213.208 293.71 213.168 293.24 213.798L292.25 213.078C292.98 212.088 293.78 211.938 294.33 211.998C296.69 212.248 298.78 216.808 299.02 217.328L297.9 217.828Z"  style="mix-blend-mode:normal" fill="#24683E" >
</path>
<path d="M298.009 196.118C297.439 193.978 295.979 190.488 294.479 190.248C293.829 190.148 293.119 190.668 292.389 191.818L291.619 191.318C292.569 189.838 293.579 189.188 294.629 189.338C297.209 189.748 298.739 195.248 298.909 195.878L298.019 196.108L298.009 196.118Z"  style="mix-blend-mode:normal" fill="#24683E" >
</path>
<path d="M291.27 194.818C290.42 192.998 289.45 192.018 288.37 191.908C286.69 191.728 285.2 193.678 285.19 193.698L284.46 193.148C284.53 193.048 286.29 190.778 288.47 190.998C289.89 191.148 291.12 192.308 292.11 194.438L291.28 194.828L291.27 194.818Z"  style="mix-blend-mode:normal" fill="#24683E" >
</path>
<path d="M288.419 214.298C288.419 214.298 274.02 218.728 275.309 239.038C281.889 234.758 294.039 224.768 288.419 214.298Z"  style="mix-blend-mode:normal" fill="url(#linear_fill_BKOxqmvFUiG-WTKuYLj-v)" >
</path>
<path d="M285.609 175.678C285.609 175.678 287.71 185.378 292.82 187.198C292.82 187.198 294 179.218 285.609 175.678Z"  style="mix-blend-mode:normal" fill="url(#linear_fill_KWoPgHHFlafbGCdYIhXoT)" >
</path>
<path d="M297.11 179.728C297.11 179.728 292.3 183.798 292.81 187.198C292.81 187.198 297.63 185.478 297.11 179.728Z"  style="mix-blend-mode:normal" fill="url(#linear_fill_EZuw_9uC0p1JU11PWJd4P)" >
</path>
<path d="M285.6 192.388C293.35 209.348 273.9 217.918 267.02 226.638C269.65 217.168 263.78 193.288 285.6 192.388Z"  style="mix-blend-mode:normal" fill="url(#linear_fill_fZ0P9UriBPe-LWGSzl1uu)" >
</path>
<path d="M297.84 193.508C297.84 193.508 306.35 195.138 307.15 204.728C307.95 214.318 311.26 216.608 311.26 216.608C300.7 214.288 291.33 203.878 297.84 193.508Z"  style="mix-blend-mode:normal" fill="url(#linear_fill__GNCFH7FLA-wwWgys9zdi)" >
</path>
<path d="M297.499 214.478C297.499 214.478 287.59 230.608 308.22 249.488C308.53 238.718 316.139 221.478 297.499 214.478Z"  style="mix-blend-mode:normal" fill="url(#linear_fill_-ImBxgjCTqgodDciGJR8f)" >
</path>
<path d="M10 169.138L38.74 169.138C44.2628 169.138 48.74 173.615 48.74 179.138L48.74 207.878C48.74 213.401 44.2628 217.878 38.74 217.878L10 217.878C4.47715 217.878 0 213.401 0 207.878L0 179.138C0 173.615 4.47715 169.138 10 169.138Z"  style="mix-blend-mode:normal" fill="#ABC8EE" >
</path>
<path d="M34.8797 192.408C34.9097 192.358 34.9297 192.308 34.9597 192.248C35.2997 191.558 36.0097 191.128 36.7797 191.178L37.7397 191.238C37.8397 191.238 37.9297 191.178 37.9497 191.088C38.2697 189.688 38.3097 188.218 38.0397 186.798C38.0197 186.698 37.9297 186.638 37.8397 186.638L36.8897 186.668C36.1297 186.688 35.4297 186.258 35.1197 185.558C35.0797 185.468 35.0397 185.388 34.9997 185.298C34.6797 184.618 34.8097 183.808 35.3197 183.258L35.9697 182.548C36.0397 182.478 36.0397 182.368 35.9797 182.288C35.5297 181.718 35.0197 181.198 34.4597 180.738C33.9097 180.278 33.3097 179.878 32.6797 179.548C32.5897 179.498 32.4897 179.528 32.4297 179.608L31.8297 180.388C31.3697 180.988 30.5797 181.238 29.8397 181.048C29.7897 181.038 29.7497 181.028 29.6997 181.018C29.0097 180.848 28.4797 180.308 28.3197 179.608L28.0697 178.508C28.0497 178.418 27.9697 178.348 27.8797 178.348C26.4397 178.348 24.9897 178.638 23.6697 179.218C23.5797 179.258 23.5297 179.358 23.5597 179.458L23.7997 180.318C23.9997 181.058 23.7497 181.868 23.1297 182.318C23.0897 182.348 23.0497 182.378 23.0097 182.408C22.4697 182.828 21.7397 182.918 21.1197 182.648L19.9897 182.158C19.9097 182.118 19.8097 182.148 19.7597 182.218C18.8397 183.358 18.1797 184.648 17.8097 186.048C17.7797 186.148 17.8397 186.248 17.9297 186.288L18.7397 186.618C19.4697 186.918 19.9397 187.628 19.9097 188.418C19.9097 188.508 19.9097 188.588 19.9097 188.678C19.9097 189.408 19.4497 190.058 18.7797 190.358L17.8297 190.778C17.7397 190.818 17.6897 190.908 17.7197 191.008C18.0397 192.418 18.6497 193.768 19.5097 194.928C19.5697 195.008 19.6697 195.028 19.7497 194.988L20.6897 194.558C21.3697 194.248 22.1697 194.358 22.7397 194.838L22.7697 194.858C22.7697 194.858 22.8197 194.898 22.8397 194.918C23.4197 195.388 23.6597 196.158 23.4597 196.878L23.1897 197.848C23.1597 197.938 23.2097 198.038 23.2897 198.078C24.5897 198.708 26.0297 199.068 27.4697 199.118C27.5597 199.118 27.6397 199.058 27.6697 198.968L27.9797 197.858C28.1697 197.178 28.7197 196.668 29.4097 196.528C29.4697 196.518 29.5197 196.508 29.5797 196.488C30.3197 196.318 31.0997 196.608 31.5197 197.248L32.0497 198.038C32.0997 198.118 32.2097 198.148 32.2997 198.108C33.6097 197.488 34.7497 196.608 35.6997 195.498C35.7597 195.418 35.7597 195.308 35.6997 195.238L35.1097 194.568C34.5797 193.978 34.4997 193.128 34.8697 192.418L34.8797 192.408ZM32.9797 189.588C31.7997 194.818 25.0797 195.448 22.9497 190.528C22.5897 189.698 22.4997 188.758 22.6997 187.878C23.8797 182.648 30.5997 182.018 32.7297 186.938C33.0897 187.768 33.1797 188.708 32.9797 189.588Z"  style="mix-blend-mode:normal" fill="#FFFFFF" >
</path>
<path d="M20.6697 204.738C20.6697 204.738 20.7197 204.638 20.7397 204.588C20.9297 204.188 21.3597 203.958 21.7997 203.978L22.3697 204.018C22.4297 204.018 22.4797 203.988 22.4897 203.928C22.6797 203.098 22.6998 202.228 22.5398 201.398C22.5298 201.338 22.4797 201.298 22.4197 201.298L21.8597 201.318C21.3897 201.328 20.9897 201.048 20.7997 200.618C20.7997 200.598 20.7797 200.578 20.7697 200.558C20.5797 200.138 20.6297 199.648 20.9397 199.308L21.3197 198.888C21.3197 198.888 21.3597 198.778 21.3197 198.738C21.0497 198.398 20.7497 198.098 20.4197 197.818C20.0897 197.548 19.7397 197.308 19.3697 197.118C19.3197 197.088 19.2598 197.108 19.2197 197.148L18.8697 197.608C18.5897 197.968 18.1297 198.118 17.6897 197.998C17.6697 197.998 17.6397 197.988 17.6197 197.978C17.2097 197.878 16.8897 197.558 16.7997 197.148L16.6497 196.498C16.6397 196.448 16.5898 196.408 16.5398 196.408C15.6898 196.408 14.8297 196.578 14.0497 196.918C13.9997 196.938 13.9697 196.998 13.9797 197.058L14.1197 197.558C14.2397 197.998 14.0898 198.478 13.7198 198.748C13.6997 198.768 13.6697 198.778 13.6497 198.798C13.3297 199.048 12.8997 199.098 12.5297 198.938L11.8597 198.648C11.8597 198.648 11.7498 198.648 11.7198 198.678C11.1798 199.358 10.7897 200.118 10.5697 200.948C10.5497 201.008 10.5897 201.068 10.6397 201.088L11.1197 201.278C11.5497 201.458 11.8297 201.878 11.8097 202.338C11.8097 202.388 11.8097 202.438 11.8097 202.488C11.8097 202.918 11.5397 203.308 11.1397 203.478L10.5797 203.728C10.5297 203.748 10.4997 203.808 10.5097 203.858C10.6997 204.688 11.0597 205.488 11.5697 206.178C11.5997 206.218 11.6597 206.238 11.7097 206.218L12.2697 205.968C12.6697 205.788 13.1397 205.848 13.4797 206.128L13.4997 206.128L13.5297 206.168C13.8797 206.458 14.0197 206.918 13.8997 207.348L13.7497 207.908C13.7297 207.958 13.7597 208.018 13.8097 208.048C14.5797 208.418 15.4297 208.628 16.2797 208.658C16.3297 208.658 16.3797 208.628 16.3997 208.568L16.5797 207.908C16.6897 207.508 17.0297 207.198 17.4397 207.118C17.4697 207.118 17.4897 207.108 17.5197 207.098C17.9697 206.998 18.4297 207.168 18.6797 207.548L18.9897 208.008C18.9897 208.008 19.0897 208.078 19.1397 208.048C19.9097 207.678 20.5897 207.158 21.1497 206.508C21.1897 206.468 21.1897 206.398 21.1497 206.348L20.7997 205.958C20.4997 205.618 20.4297 205.118 20.6397 204.718L20.6697 204.738ZM19.5197 203.228C18.7297 206.088 15.0297 206.438 13.7198 203.768C13.4298 203.178 13.3598 202.478 13.5398 201.848C14.3298 198.988 18.0297 198.638 19.3397 201.308C19.6297 201.898 19.6997 202.598 19.5197 203.228Z"  style="mix-blend-mode:normal" fill="#FFFFFF" >
</path>
<defs>
<linearGradient id="linear_fill_TT1R7ZVQG0hKhax-4JYmo_0" x1="9.041015625" y1="134.34814453125" x2="319.990478515625" y2="134.34814453125" gradientUnits="userSpaceOnUse">
<stop offset="0" stop-color="#B3DDFF"  />
<stop offset="1" stop-color="#3592DE"  />
</linearGradient>
<linearGradient id="linear_fill_vE6BPxGw53ubAe9wleoIu" x1="28.47393798828125" y1="43.2818603515625" x2="103.2757568359375" y2="53.210205078125" gradientUnits="userSpaceOnUse">
<stop offset="0" stop-color="#B3DDFF"  />
<stop offset="1" stop-color="#3592DE"  />
</linearGradient>
<linearGradient id="linear_fill__5YC8I983r9I8QR8EejYr" x1="166.5" y1="156.6177978515625" x2="161.010009765625" y2="265.577880859375" gradientUnits="userSpaceOnUse">
<stop offset="0" stop-color="#3A51A2"  />
<stop offset="1" stop-color="#1A2869"  />
</linearGradient>
<linearGradient id="linear_fill_iX92zrnX6e6u_ldQfth4x" x1="90.733642578125" y1="78.275390625" x2="86.05511474609375" y2="118.00390625" gradientUnits="userSpaceOnUse">
<stop offset="0" stop-color="#FFCFC1"  />
<stop offset="1" stop-color="#FF9E82"  />
</linearGradient>
<linearGradient id="linear_fill_VQCCSfS86yPE7a-Fl49-I" x1="78.6300048828125" y1="154.827880859375" x2="85.73956298828125" y2="235.3779296875" gradientUnits="userSpaceOnUse">
<stop offset="0" stop-color="#3A51A2"  />
<stop offset="1" stop-color="#1A2869"  />
</linearGradient>
<linearGradient id="linear_fill_tbvhKBln817lvvQ5w1RPR" x1="88.5621337890625" y1="162.847900390625" x2="92.31256103515625" y2="244.5179443359375" gradientUnits="userSpaceOnUse">
<stop offset="0" stop-color="#3A51A2"  />
<stop offset="1" stop-color="#1A2869"  />
</linearGradient>
<linearGradient id="linear_fill_RVZb0hYzQdyJQH056WL_Q" x1="141.02996826171875" y1="151.3814697265625" x2="126.8599853515625" y2="143.75830078125" gradientUnits="userSpaceOnUse">
<stop offset="0" stop-color="#FFCFC1"  />
<stop offset="1" stop-color="#FF9E82"  />
</linearGradient>
<linearGradient id="linear_fill_LuQVBNaLVQkfS70CZUeUL" x1="66.99981689453125" y1="112.1578369140625" x2="95.60162353515625" y2="161.48779296875" gradientUnits="userSpaceOnUse">
<stop offset="0" stop-color="#1B91FB"  />
<stop offset="1" stop-color="#2857E4"  />
</linearGradient>
<linearGradient id="linear_fill_3g83LpPa24CAnYdWBj1Cj" x1="136.82598876953125" y1="154.6715087890625" x2="108.360107421875" y2="143.2379150390625" gradientUnits="userSpaceOnUse">
<stop offset="0" stop-color="#FFCFC1"  />
<stop offset="1" stop-color="#FF9E82"  />
</linearGradient>
<linearGradient id="linear_fill_g6pn-vhrN-Qf9OVgfvZ1b" x1="141.18963623046875" y1="151.079833984375" x2="127.00994873046875" y2="143.4766845703125" gradientUnits="userSpaceOnUse">
<stop offset="0" stop-color="#FFCFC1"  />
<stop offset="1" stop-color="#FF9E82"  />
</linearGradient>
<linearGradient id="linear_fill_ruxhWuUEG8pryc7es05YY" x1="121.49139404296875" y1="160.286376953125" x2="122.62188720703125" y2="146.7081298828125" gradientUnits="userSpaceOnUse">
<stop offset="0" stop-color="#FFCFC1"  />
<stop offset="1" stop-color="#FF9E82"  />
</linearGradient>
<linearGradient id="linear_fill_zsnny_ozG9Zkm4WYTHg-R" x1="80.37017822265625" y1="104.197265625" x2="100.850830078125" y2="144.7799072265625" gradientUnits="userSpaceOnUse">
<stop offset="0" stop-color="#1B91FB"  />
<stop offset="1" stop-color="#2857E4"  />
</linearGradient>
<linearGradient id="linear_fill_z2NV7AMp8syBQNkiUvzcE" x1="164.76971435546875" y1="86.4078369140625" x2="156.01971435546875" y2="145.3477783203125" gradientUnits="userSpaceOnUse">
<stop offset="0" stop-color="#1B91FB"  />
<stop offset="1" stop-color="#2857E4"  />
</linearGradient>
<linearGradient id="linear_fill_W3WCYu6v4HKMsueXeeBGG" x1="195.6700439453125" y1="90.98779296875" x2="186.9300537109375" y2="149.937744140625" gradientUnits="userSpaceOnUse">
<stop offset="0" stop-color="#1B91FB"  />
<stop offset="1" stop-color="#2857E4"  />
</linearGradient>
<linearGradient id="linear_fill_xsGxfHMfgE0xdeY18342L" x1="206.003173828125" y1="84.707763671875" x2="176.67962646484375" y2="101.86767578125" gradientUnits="userSpaceOnUse">
<stop offset="0" stop-color="#FFCFC1"  />
<stop offset="1" stop-color="#FF9E82"  />
</linearGradient>
<linearGradient id="linear_fill_tjeg3roIKDkvUJDEXn5Id" x1="204.785400390625" y1="70.2587890625" x2="147.77349853515625" y2="106.1507568359375" gradientUnits="userSpaceOnUse">
<stop offset="0" stop-color="#FFCFC1"  />
<stop offset="1" stop-color="#FF9E82"  />
</linearGradient>
<linearGradient id="linear_fill_HxYPgP14GPVTebiXT5gfM" x1="94.029052734375" y1="80.04541015625" x2="89.40069580078125" y2="119.3074951171875" gradientUnits="userSpaceOnUse">
<stop offset="0" stop-color="#FFCFC1"  />
<stop offset="1" stop-color="#FF9E82"  />
</linearGradient>
<linearGradient id="linear_fill_24Bz9-bBEa8J0CscqJQyL" x1="184.09051513671875" y1="164.435546875" x2="213.326904296875" y2="147.270751953125" gradientUnits="userSpaceOnUse">
<stop offset="0" stop-color="#FFCFC1"  />
<stop offset="1" stop-color="#FF9E82"  />
</linearGradient>
<linearGradient id="linear_fill_0aTGzcK3oxxEX8bAhl4Qi" x1="215.610107421875" y1="93.94775390625" x2="206.8701171875" y2="152.88720703125" gradientUnits="userSpaceOnUse">
<stop offset="0" stop-color="#1B91FB"  />
<stop offset="1" stop-color="#2857E4"  />
</linearGradient>
<linearGradient id="linear_fill_YPxJaGNP-_yB4GiXBwzzO" x1="112.01953125" y1="56.6678466796875" x2="155.989501953125" y2="56.6678466796875" gradientUnits="userSpaceOnUse">
<stop offset="0" stop-color="#4EB387"  />
<stop offset="1" stop-color="#0C996A"  />
</linearGradient>
<linearGradient id="linear_fill_Wjzgw-ttKcPXmxVNnvdPz" x1="252.8399658203125" y1="141.687744140625" x2="287.7799072265625" y2="67.8477783203125" gradientUnits="userSpaceOnUse">
<stop offset="0" stop-color="#FFA826"  />
<stop offset="1" stop-color="#FFD05C"  />
</linearGradient>
<linearGradient id="linear_fill_pBsm_gkYigUzeMTCejkGV" x1="280.4599609375" y1="260.647705078125" x2="304.0499267578125" y2="260.647705078125" gradientUnits="userSpaceOnUse">
<stop offset="0" stop-color="#1B91FB"  />
<stop offset="1" stop-color="#2857E4"  />
</linearGradient>
<linearGradient id="linear_fill_whHKxhFCQDVR_RSXLoU6n" x1="279.8594970703125" y1="242.3978271484375" x2="304.6495361328125" y2="242.3978271484375" gradientUnits="userSpaceOnUse">
<stop offset="0" stop-color="#1B91FB"  />
<stop offset="1" stop-color="#2857E4"  />
</linearGradient>
<linearGradient id="linear_fill_himifJJXz9PKh5oRxt9XR" x1="291.029541015625" y1="234.557861328125" x2="291.719482421875" y2="237.497802734375" gradientUnits="userSpaceOnUse">
<stop offset="0" stop-color="#1B91FB"  />
<stop offset="1" stop-color="#2857E4"  />
</linearGradient>
<linearGradient id="linear_fill_BKOxqmvFUiG-WTKuYLj-v" x1="275.2296142578125" y1="226.6678466796875" x2="289.8741455078125" y2="226.6678466796875" gradientUnits="userSpaceOnUse">
<stop offset="0" stop-color="#4EB387"  />
<stop offset="1" stop-color="#0C996A"  />
</linearGradient>
<linearGradient id="linear_fill_KWoPgHHFlafbGCdYIhXoT" x1="285.6094970703125" y1="181.4378662109375" x2="292.882568359375" y2="181.4378662109375" gradientUnits="userSpaceOnUse">
<stop offset="0" stop-color="#4EB387"  />
<stop offset="1" stop-color="#0C996A"  />
</linearGradient>
<linearGradient id="linear_fill_EZuw_9uC0p1JU11PWJd4P" x1="292.7696533203125" y1="183.4677734375" x2="297.1524658203125" y2="183.4677734375" gradientUnits="userSpaceOnUse">
<stop offset="0" stop-color="#4EB387"  />
<stop offset="1" stop-color="#0C996A"  />
</linearGradient>
<linearGradient id="linear_fill_fZ0P9UriBPe-LWGSzl1uu" x1="267.01953125" y1="209.5078125" x2="287.3953857421875" y2="209.5078125" gradientUnits="userSpaceOnUse">
<stop offset="0" stop-color="#4EB387"  />
<stop offset="1" stop-color="#0C996A"  />
</linearGradient>
<linearGradient id="linear_fill__GNCFH7FLA-wwWgys9zdi" x1="295.68994140625" y1="205.057861328125" x2="311.2593994140625" y2="205.057861328125" gradientUnits="userSpaceOnUse">
<stop offset="0" stop-color="#4EB387"  />
<stop offset="1" stop-color="#0C996A"  />
</linearGradient>
<linearGradient id="linear_fill_-ImBxgjCTqgodDciGJR8f" x1="295.1295166015625" y1="231.977783203125" x2="310.0235595703125" y2="231.977783203125" gradientUnits="userSpaceOnUse">
<stop offset="0" stop-color="#4EB387"  />
<stop offset="1" stop-color="#0C996A"  />
</linearGradient>
</defs>
</svg>
