<svg xmlns="http://www.w3.org/2000/svg" xmlns:xlink="http://www.w3.org/1999/xlink" width="343.6099853515625" height="258.5899658203125" viewBox="0 0 343.6099853515625 258.5899658203125" fill="none">
<g opacity="0.15">
<path d="M24.6794 185.51C2.16937 158.62 -7.07063 122.54 5.97937 85.31C13.5594 63.67 29.8994 46.94 52.3394 41.02C99.2194 28.64 148.309 46.72 195.309 37.01C225.939 30.68 263.439 -7.02 293.019 20.16C313.529 39.01 306.689 71.86 309.139 97.73C313.089 139.38 369.019 187.65 329.619 224.18C305.899 246.17 258.749 244.44 229.189 243.68C176.929 242.34 120.529 240.7 71.3794 219.74C52.8894 211.85 36.8494 200.02 24.6894 185.5L24.6794 185.51Z"  style="mix-blend-mode:normal" fill="url(#linear_fill_ndBk2LPV7UDRko7Gv1kDi)" >
</path>
</g>
<path d="M194.333 78.2391C195.742 81.857 195.186 85.4511 193.091 86.2669C190.997 87.0827 188.157 84.8112 186.748 81.1933C185.338 77.5755 185.894 73.9813 187.989 73.1656C190.083 72.3498 192.923 74.6213 194.333 78.2391Z"  style="mix-blend-mode:normal" fill="#1C1D32" >
</path>
<path d="M216.659 207.8L229.679 258.05L231.589 258.05L218.569 207.82L218.059 205.98L212.579 186.48L210.809 186.98L216.149 205.96L216.659 207.8Z"  style="mix-blend-mode:normal" fill="url(#linear_fill_RsUJkkYlL1f0W9chF7Ktg)" >
</path>
<path d="M162.689 258.05L175.809 207.4L176.319 205.57L181.559 186.92L179.799 186.43L174.429 205.56L173.909 207.38L160.789 258.05L162.689 258.05Z"  style="mix-blend-mode:normal" fill="url(#linear_fill_dxKX7S_NR15OWCrMBM6SA)" >
</path>
<path d="M218.568 207.82L216.658 207.8L175.808 207.4L173.908 207.38L174.428 205.56L176.318 205.57L216.148 205.96L218.058 205.98L218.568 207.82Z"  style="mix-blend-mode:normal" fill="url(#linear_fill_O_o8kaXIhzjjgwnJSha3o)" >
</path>
<path d="M185.499 171.04C192.279 167.85 176.619 133.38 180.459 119.95C184.299 106.52 237.789 104.84 241.149 122.35C244.509 139.86 229.399 190.24 220.039 190.24L168.419 190.24C159.779 190.24 157.919 177.25 168.419 175.71C176.489 174.52 181.419 172.97 185.499 171.05L185.499 171.04Z"  style="mix-blend-mode:normal" fill="#ABC8EE" >
</path>
<path d="M214.799 190.23L163.169 190.23C163.169 190.23 152.669 177.24 163.169 175.7C170.339 174.64 175.039 173.3 178.849 171.67C179.329 171.47 179.799 171.26 180.259 171.04C181.139 170.63 181.639 169.68 181.849 168.32C183.299 159.25 171.879 131.63 175.219 119.94C179.059 106.51 232.549 104.83 235.909 122.34C239.269 139.85 224.159 190.22 214.809 190.22L214.799 190.23Z"  style="mix-blend-mode:normal" fill="#B7D5FF" >
</path>
<path d="M213.319 170.87C210.599 171.48 196.379 174.33 178.839 171.67C179.319 171.47 179.789 171.26 180.249 171.04C181.129 170.63 181.629 169.68 181.839 168.32C190.459 169.49 208.409 171.73 213.319 170.87Z"  style="mix-blend-mode:normal" fill="#ABC8EE" >
</path>
<path d="M184.87 258.05L181.73 240.78L171.12 240.78C171.12 240.78 171.37 247.54 169.41 251.25C168.77 252.73 160.69 255.24 158.57 255.72L158.02 258.05L184.88 258.05L184.87 258.05Z"  style="mix-blend-mode:normal" fill="#3B3E6A" >
</path>
<path d="M192.559 258.05L201.069 258.05L211.819 242.18L197.709 226.12L190.689 235.32C190.689 235.32 194.759 240.74 197.319 245.59C198.009 246.91 194.649 255.06 192.559 258.05Z"  style="mix-blend-mode:normal" fill="#3B3E6A" >
</path>
<path d="M183.169 240.78L170.259 244.77C170.259 244.77 147.059 203.79 138.489 172.79C138.489 172.79 136.849 161.49 161.999 160.19L200.549 158.58C200.549 158.58 203.009 181.88 188.969 182.21C174.939 182.54 165.869 187.87 165.869 187.87L183.159 240.78L183.169 240.78Z"  style="mix-blend-mode:normal" fill="url(#linear_fill_VCRvzty8rLLD-JZTfQeR8)" >
</path>
<path d="M205.839 235.28L193.399 243.91C193.399 243.91 156.629 187.19 155.559 170.1C155.559 170.1 154.709 161.4 179.569 157.38L217.709 157.25C217.709 157.25 223.599 180.99 209.689 182.85C195.779 184.71 186.439 184.47 186.439 184.47L205.839 235.28Z"  style="mix-blend-mode:normal" fill="url(#linear_fill_FyUKU8mqSXlpN8JXYkN1i)" >
</path>
<path d="M149.839 145.66L149.309 152.47L148.099 152.34L146.199 152.1C144.849 151.93 143.619 151.27 142.719 150.25L140.169 147.35L129.659 149.48C129.119 149.59 128.629 149.14 128.699 148.6L139.269 142.96C140.139 142.49 141.169 142.43 142.089 142.79L149.439 145.66L149.829 145.66L149.839 145.66Z"  style="mix-blend-mode:normal" fill="url(#linear_fill_bAk1xEnFlfW4N_e9zrbCq)" >
</path>
<path d="M178.429 145.57L149.319 152.47L149.849 145.66L172.369 134.84C172.369 134.84 174.759 120.52 179.759 109.22C179.799 109.14 179.849 109.06 179.889 108.98L182.579 104.18L189.929 112.8L178.439 145.57L178.429 145.57Z"  style="mix-blend-mode:normal" fill="url(#linear_fill_Zz9BN8Yk25eRAsHNZGfpK)" >
</path>
<path d="M198.619 107.1C194.979 107.1 194.489 101.29 194.489 101.29C194.489 101.29 195.079 101.31 195.579 100.82C195.949 100.47 196.269 99.86 196.269 98.76L196.269 93.73L203.059 92.04L206.459 91.19C206.459 91.19 205.829 100.54 207.169 102.17C208.499 103.8 202.249 107.09 198.619 107.09L198.619 107.1Z"  style="mix-blend-mode:normal" fill="url(#linear_fill_p9cbf4oH3MhJXa5jIbOH2)" >
</path>
<g style="mix-blend-mode:darken" opacity="0.3">
<path d="M205.559 94.54C204.319 96.53 201.899 100.04 195.579 100.82C195.949 100.47 196.269 99.86 196.269 98.76L196.269 93.73L203.059 92.04L205.569 94.54L205.559 94.54Z"  style="mix-blend-mode:normal" fill="#F38479" >
</path>
</g>
<path d="M211.279 86.16C210.969 87.28 210.609 88.39 210.129 89.47C209.689 90.45 209.169 91.39 208.519 92.25C208.259 92.6 206.459 94.05 206.459 94.32C206.269 94.41 206.079 94.48 205.879 94.55C205.879 94.55 192.039 103.35 190.459 94.55C189.439 88.88 189.119 83.06 189.019 79.63C188.969 77.73 188.979 76.56 188.979 76.56L210.329 76.56C210.329 76.56 211.709 81.42 211.279 86.16Z"  style="mix-blend-mode:normal" fill="url(#linear_fill_sGCKiOwP0qHsH58XxHKZj)" >
</path>
<path d="M217.819 132.34C218.059 134.47 216.899 158.05 218.889 160.07C215.879 165.15 173.389 163.81 174.479 157.29C176.849 151.06 180.649 104.83 182.919 103.64C185.189 102.45 195.389 100.97 195.389 100.97C196.389 110.85 207.089 102.22 207.089 102.22C211.359 103.25 219.879 104.56 219.229 110.81C218.679 117.47 217.639 124.99 217.819 132.34Z"  style="mix-blend-mode:normal" fill="url(#linear_fill_ahuI6jimi7V7nx5XG58X7)" >
</path>
<g style="mix-blend-mode:darken" opacity="0.16">
<path d="M218.889 160.07C218.619 160.4 218.249 160.76 217.77 161.14C216.07 162.51 208.1 163.16 199.439 163.02C199.049 163.02 198.66 163.01 198.27 163C198.059 163 197.859 162.99 197.649 162.98C197.269 162.97 196.88 162.96 196.499 162.94L196.449 162.94C196.049 162.92 195.649 162.91 195.249 162.89C195.079 162.89 194.899 162.88 194.729 162.87C196.579 162.26 198.63 161.5 200.88 160.55C215.439 154.42 216.869 126.93 216.869 126.93C217.209 126.93 217.539 126.98 217.859 127.05C217.859 127.37 217.859 127.72 217.85 128.09C217.85 128.23 217.85 128.37 217.85 128.51C217.85 128.65 217.85 128.79 217.85 128.93C217.85 129.13 217.85 129.34 217.85 129.57C217.85 129.79 217.85 130.02 217.85 130.26C217.85 130.61 217.839 130.98 217.839 131.37C217.839 131.69 217.839 132.01 217.839 132.35C217.809 136.33 217.789 142.05 217.789 150.29C217.789 159.85 218.389 158.37 218.91 160.08L218.889 160.07Z"  style="mix-blend-mode:darken" fill="url(#linear_fill_cdb5nZBXVUWYf_ZQ_h7cy)" >
</path>
</g>
<path d="M206.809 147.72L206.809 154.55L205.599 154.52L203.689 154.43C202.329 154.37 201.049 153.81 200.079 152.86L197.319 150.17L186.999 153.1C186.469 153.25 185.949 152.84 185.979 152.29L196.079 145.85C196.909 145.32 197.929 145.18 198.879 145.46L206.429 147.75L206.819 147.72L206.809 147.72Z"  style="mix-blend-mode:normal" fill="url(#linear_fill_DEOUVVs8EfMwt4Pzjej0f)" >
</path>
<path d="M238.749 150.26C238.749 150.33 238.749 150.41 238.749 150.48C238.629 153.17 236.379 155.27 233.709 155.23L220.669 154.9L206.829 154.54L206.829 147.71L216.489 146.87L225.199 146.12L209.899 121.35L217.829 106.8C228.949 120.56 237.279 144.21 238.419 148.44C238.559 148.81 238.659 149.2 238.709 149.6C238.729 149.82 238.749 150.03 238.749 150.25L238.749 150.26Z"  style="mix-blend-mode:normal" fill="url(#linear_fill_9kmVSEOslapHKFBfNZZjA)" >
</path>
<path d="M211.969 83.39C211.749 84.32 211.529 85.24 211.279 86.16C210.969 87.28 210.609 88.39 210.129 89.47C209.689 90.45 209.169 91.39 208.519 92.25C208.259 92.6 206.459 94.05 206.459 94.32L206.509 92.85C206.529 92.41 206.799 92.03 207.199 91.85C208.189 91.42 209.969 90.23 210.019 87.26C210.019 87.26 209.959 84.11 207.449 84.29C205.939 84.4 205.109 85.19 204.689 85.8C204.499 86.07 204.089 86.01 204.019 85.69C203.839 84.96 203.659 83.69 203.689 81.63C203.699 80.98 203.739 80.25 203.799 79.44C203.849 78.86 203.269 78.42 202.719 78.62C201.899 78.93 200.709 79.33 199.329 79.7C196.149 80.53 191.989 81.11 189.039 79.63C186.779 78.5 185.229 76.16 185.419 71.79C185.359 70.81 185.459 69.92 185.579 69.32C185.959 67.49 187.789 68.5 190.259 69.57C189.209 68.26 189.229 65.03 190.459 65.92C191.679 66.82 197.049 67.17 202.209 67.2C204.549 67.21 206.069 68.08 206.879 69.36C207.279 70 208.099 69.85 208.709 70.06C209.609 70.36 210.269 70.78 210.879 71.52C213.629 74.91 212.899 79.5 211.979 83.4L211.969 83.39Z"  style="mix-blend-mode:normal" fill="#1C1D32" >
</path>
<g opacity="0.33">
<path d="M23.2891 0L154.479 0C160.002 0 164.479 4.47715 164.479 10L164.479 97.78C164.479 103.303 160.002 107.78 154.479 107.78L23.2891 107.78C17.7662 107.78 13.2891 103.303 13.2891 97.78L13.2891 10C13.2891 4.47715 17.7662 0 23.2891 0Z"  style="mix-blend-mode:normal" fill="url(#linear_fill_VIvlrIs8Ebqj6nJKPwkUt)" >
</path>
</g>
<path d="M24.4291 92.97C24.4291 94.0304 23.5694 94.89 22.5091 94.89C21.4487 94.89 20.5891 94.0304 20.5891 92.97C20.5891 91.9096 21.4487 91.05 22.5091 91.05C23.5694 91.05 24.4291 91.9096 24.4291 92.97Z"  style="mix-blend-mode:normal" fill="#E6B500" >
</path>
<path d="M24.4295 83.8327C24.4702 84.8923 23.6442 85.7843 22.5846 85.825C21.525 85.8657 20.633 85.0397 20.5923 83.9801C20.5516 82.9205 21.3776 82.0285 22.4372 81.9878C23.4968 81.9471 24.3888 82.7731 24.4295 83.8327Z"  style="mix-blend-mode:normal" fill="#2C75FF" >
</path>
<path d="M24.9177 9.01904C24.9644 10.2332 24.0179 11.2552 22.8038 11.3019C21.5897 11.3485 20.5676 10.4021 20.521 9.18794C20.4743 7.97381 21.4208 6.95175 22.6349 6.90511C23.849 6.85847 24.8711 7.8049 24.9177 9.01904Z"  style="mix-blend-mode:normal" fill="url(#linear_fill_HHF7OGVE9hQpx3vTOFBoB)" >
</path>
<path d="M31.8023 9.01493C31.8489 10.2291 30.9025 11.2511 29.6883 11.2978C28.4742 11.3444 27.4522 10.398 27.4055 9.18384C27.3589 7.96971 28.3053 6.94765 29.5194 6.90101C30.7336 6.85436 31.7556 7.8008 31.8023 9.01493Z"  style="mix-blend-mode:normal" fill="#FFFFFF" >
</path>
<path d="M38.6775 9.0108C38.7241 10.2249 37.7777 11.247 36.5636 11.2936C35.3494 11.3403 34.3274 10.3938 34.2807 9.1797C34.2341 7.96557 35.1805 6.94351 36.3947 6.89687C37.6088 6.85023 38.6309 7.79667 38.6775 9.0108Z"  style="mix-blend-mode:normal" fill="#FFFFFF" >
</path>
<g opacity="0.6">
<path d="M46.2091 73.07C32.0791 73.07 20.5891 61.58 20.5891 47.45C20.5891 33.32 32.0791 21.83 46.2091 21.83C60.3391 21.83 71.8291 33.32 71.8291 47.45C71.8291 61.58 60.3391 73.07 46.2091 73.07ZM46.2091 28.37C35.6891 28.37 27.1291 36.93 27.1291 47.45C27.1291 57.97 35.6891 66.53 46.2091 66.53C56.7291 66.53 65.2891 57.97 65.2891 47.45C65.2891 36.93 56.7291 28.37 46.2091 28.37Z"  style="mix-blend-mode:normal" fill="#FFFFFF" >
</path>
</g>
<path d="M50.6294 22.22C48.3294 21.82 46.2394 23.88 46.8894 26.35C47.1794 27.46 48.4194 28.47 49.5494 28.67C59.0794 30.36 66.1894 39.14 65.2094 49.34C64.3494 58.22 57.2894 65.41 48.4294 66.41C37.9294 67.6 28.8594 60.2 27.3594 50.35C27.1194 48.75 25.7494 47.57 24.1294 47.57C22.1094 47.57 20.5994 49.38 20.8994 51.38C23.2194 66.42 38.6694 77.19 55.1394 71.56C62.3194 69.11 67.9794 63.38 70.3894 56.18C75.8094 39.97 65.3594 24.79 50.6394 22.22L50.6294 22.22Z"  style="mix-blend-mode:normal" fill="url(#linear_fill_9GWxza5_Lxu0w_MuZpHUh)" >
</path>
<g opacity="0.6">
<path d="M29.2991 82.27L70.5691 82.27C71.2705 82.27 71.8391 82.8386 71.8391 83.54L71.8391 84.29C71.8391 84.9914 71.2705 85.56 70.5691 85.56L29.2991 85.56C28.5977 85.56 28.0291 84.9914 28.0291 84.29L28.0291 83.54C28.0291 82.8386 28.5977 82.27 29.2991 82.27Z"  style="mix-blend-mode:normal" fill="#FFFFFF" >
</path>
</g>
<g opacity="0.6">
<path d="M29.2991 91.33L58.2491 91.33C58.9505 91.33 59.5191 91.8986 59.5191 92.6L59.5191 93.35C59.5191 94.0514 58.9505 94.62 58.2491 94.62L29.2991 94.62C28.5977 94.62 28.0291 94.0514 28.0291 93.35L28.0291 92.6C28.0291 91.8986 28.5977 91.33 29.2991 91.33Z"  style="mix-blend-mode:normal" fill="#FFFFFF" >
</path>
</g>
<g opacity="0.6">
<path d="M92.0086 55.64L93.1586 55.64C94.2135 55.64 95.0686 56.4952 95.0686 57.55L95.0686 71.27C95.0686 72.3249 94.2135 73.18 93.1586 73.18L92.0086 73.18C90.9538 73.18 90.0986 72.3249 90.0986 71.27L90.0986 57.55C90.0986 56.4952 90.9538 55.64 92.0086 55.64Z"  style="mix-blend-mode:normal" fill="#FFFFFF" >
</path>
</g>
<g opacity="0.6">
<path d="M105.619 38.97L106.769 38.97C107.824 38.97 108.679 39.8251 108.679 40.88L108.679 71.26C108.679 72.3149 107.824 73.17 106.769 73.17L105.619 73.17C104.564 73.17 103.709 72.3149 103.709 71.26L103.709 40.88C103.709 39.8251 104.564 38.97 105.619 38.97Z"  style="mix-blend-mode:normal" fill="#FFFFFF" >
</path>
</g>
<g opacity="0.6">
<path d="M119.219 46.12L120.369 46.12C121.423 46.12 122.279 46.9751 122.279 48.03L122.279 71.27C122.279 72.3249 121.423 73.18 120.369 73.18L119.219 73.18C118.164 73.18 117.309 72.3249 117.309 71.27L117.309 48.03C117.309 46.9751 118.164 46.12 119.219 46.12Z"  style="mix-blend-mode:normal" fill="#FFFFFF" >
</path>
</g>
<path d="M132.819 34.02L133.969 34.02C135.024 34.02 135.879 34.8751 135.879 35.93L135.879 71.27C135.879 72.3249 135.024 73.18 133.969 73.18L132.819 73.18C131.764 73.18 130.909 72.3249 130.909 71.27L130.909 35.93C130.909 34.8751 131.764 34.02 132.819 34.02Z"  style="mix-blend-mode:normal" fill="url(#linear_fill_ADFPbcwoEZJcabjdj8wdi)" >
</path>
<path d="M146.419 21.93L147.569 21.93C148.624 21.93 149.479 22.7851 149.479 23.84L149.479 71.26C149.479 72.3149 148.624 73.17 147.569 73.17L146.419 73.17C145.364 73.17 144.509 72.3149 144.509 71.26L144.509 23.84C144.509 22.7851 145.364 21.93 146.419 21.93Z"  style="mix-blend-mode:normal" fill="url(#linear_fill_yMTMGqgTrReGslkQFdLov)" >
</path>
<g opacity="0.6">
<path d="M45.1287 55.74L45.1287 53.81C43.7687 53.75 42.4487 53.36 41.6787 52.94L42.2887 50.56C43.1387 51.03 44.3387 51.45 45.6587 51.45C46.8387 51.45 47.6287 50.98 47.6287 50.19C47.6287 49.4 46.9787 48.93 45.4587 48.42C43.2887 47.69 41.7987 46.67 41.7987 44.7C41.7987 42.89 43.0587 41.49 45.2287 41.08L45.2287 39.15L47.2187 39.15L47.2187 40.94C48.5587 40.98 49.4787 41.29 50.1887 41.61L49.5787 43.91C49.0687 43.67 48.1187 43.2 46.6487 43.2C45.3287 43.2 44.8987 43.79 44.8987 44.36C44.8987 45.01 45.6087 45.46 47.3587 46.09C49.7787 46.94 50.7287 48.06 50.7287 49.91C50.7287 51.76 49.4687 53.26 47.1287 53.65L47.1287 55.74L45.1187 55.74L45.1287 55.74Z"  style="mix-blend-mode:normal" fill="#FFFFFF" >
</path>
</g>
<path d="M80.0986 22.17L80.6686 22.17L80.6686 94.62L80.0986 94.62L80.0986 22.17Z"  style="mix-blend-mode:normal" fill="#FFFFFF" >
</path>
<path d="M300.13 152.67L318.76 152.67L318.76 156.69L300.13 156.69L300.13 152.67Z"  style="mix-blend-mode:normal" fill="#ABC8EE" >
</path>
<path d="M224.999 156.69L277.229 156.69L277.229 258.05L224.999 258.05L224.999 156.69Z"  style="mix-blend-mode:normal" fill="#E4F1FF" >
</path>
<path d="M277.229 156.69L306.219 156.69L306.219 258.05L277.229 258.05L277.229 156.69Z"  style="mix-blend-mode:normal" fill="#D5EAFF" >
</path>
<path d="M90.1298 156.69L98.1598 156.69L98.1598 258.05L90.1298 258.05L90.1298 156.69Z"  style="mix-blend-mode:normal" fill="#D5EAFF" >
</path>
<path d="M82.1494 152.67L300.129 152.67L300.129 156.69L82.1494 156.69L82.1494 152.67Z"  style="mix-blend-mode:normal" fill="#B7D5FF" >
</path>
<path d="M178.7 131.4L173.25 85.34C173.1 84.07 172.03 83.12 170.75 83.12L95.9997 83.12C95.0697 83.12 94.2097 83.41 93.5097 83.9L93.4197 83.97C93.4197 83.97 93.3897 83.99 93.3797 84L91.1797 85.62L92.0597 85.62C91.7097 86.34 91.5497 87.17 91.6597 88.03L97.1097 134.09C97.2597 135.36 98.3297 136.31 99.6097 136.31L174.36 136.31C174.57 136.31 174.78 136.29 174.98 136.26L174.98 136.87L176.61 135.69C178.04 134.84 178.93 133.2 178.72 131.41L178.7 131.4Z"  style="mix-blend-mode:normal" fill="url(#linear_fill_NDD0W6cbyqw9qciOcVufn)" >
</path>
<path d="M177.12 135.5L171.47 87.7C171.31 86.35 170.16 85.33 168.8 85.33L92.2897 85.33C90.6797 85.33 89.4297 86.74 89.6197 88.34L95.2697 136.14C95.4297 137.49 96.5797 138.51 97.9397 138.51L174.45 138.51C176.06 138.51 177.31 137.1 177.12 135.5Z"  style="mix-blend-mode:normal" fill="url(#linear_fill_b-W88DWsxCKpWBF5qzFF4)" >
</path>
<path d="M156.54 152.67L138.23 152.67L138.23 147.42L151.3 147.42C154.2 147.42 156.55 149.77 156.55 152.67L156.54 152.67Z"  style="mix-blend-mode:normal" fill="url(#linear_fill_XNB-zc64NZDmmBrbNfA0K)" >
</path>
<path d="M143.61 118.72L140.87 148.21C140.51 152.05 147.39 152.67 147.39 152.67L127 152.67C124.88 152.67 122.97 151.43 122.1 149.5C121.72 148.65 121.57 147.72 121.65 146.8L124.26 118.72L143.61 118.72Z"  style="mix-blend-mode:normal" fill="url(#linear_fill_6DsYHz6f9a_hDTurN2qdk)" >
</path>
<path d="M164.48 152.67L213.99 152.67C215.23 152.67 216.23 152.39 216.23 151.34C216.23 150.31 215.26 150.04 214.04 150.02L164.53 149.06C163.27 149.04 162.23 149.89 162.23 150.95L162.23 151.35C162.23 152.4 163.23 152.68 164.47 152.68L164.48 152.67Z"  style="mix-blend-mode:normal" fill="#444679" >
</path>
<path d="M240.699 152.67L221.369 152.67C220.919 152.25 221.059 151.55 221.619 150.75C223.359 148.3 229.129 144.94 233.659 146.09C233.759 146.11 233.849 146.14 233.939 146.16C239.959 147.96 242.349 152.66 240.699 152.66L240.699 152.67Z"  style="mix-blend-mode:normal" fill="#444679" >
</path>
<path d="M233.659 146.09C233.179 147.51 232.229 149.02 230.369 149.98C227.549 151.44 223.859 151.14 221.619 150.75C223.359 148.3 229.129 144.94 233.659 146.09Z"  style="mix-blend-mode:normal" fill="#3A3C68" >
</path>
<path d="M227.049 146.936C227.212 147.218 226.58 147.888 225.638 148.432C224.696 148.976 223.8 149.188 223.637 148.906C223.474 148.624 224.106 147.954 225.048 147.41C225.99 146.866 226.886 146.654 227.049 146.936Z"  style="mix-blend-mode:normal" fill="#444679" >
</path>
<g opacity="0.2">
<path d="M101.7 132.68C101.7 133.696 100.876 134.52 99.8597 134.52C98.8435 134.52 98.0197 133.696 98.0197 132.68C98.0197 131.664 98.8435 130.84 99.8597 130.84C100.876 130.84 101.7 131.664 101.7 132.68Z"  style="mix-blend-mode:normal" fill="#FFFFFF" >
</path>
</g>
<g opacity="0.2">
<path d="M145.619 112.58C145.049 112.69 144.549 112.31 144.489 111.73L143.059 96.81C142.999 96.23 143.419 95.68 143.989 95.57C144.559 95.46 145.059 95.84 145.119 96.42L146.549 111.34C146.609 111.92 146.189 112.47 145.619 112.58Z"  style="mix-blend-mode:normal" fill="#FFFFFF" >
</path>
</g>
<g opacity="0.2">
<path d="M140.84 112.56C140.27 112.67 139.77 112.29 139.71 111.71L138.28 96.79C138.22 96.21 138.64 95.66 139.21 95.55C139.78 95.44 140.28 95.82 140.34 96.4L141.77 111.32C141.83 111.9 141.41 112.45 140.85 112.56L140.84 112.56Z"  style="mix-blend-mode:normal" fill="#FFFFFF" >
</path>
</g>
<g opacity="0.2">
<path d="M136.06 112.54C135.49 112.65 134.99 112.27 134.93 111.69L133.5 96.77C133.44 96.19 133.86 95.64 134.43 95.53C135 95.42 135.5 95.8 135.56 96.38L136.99 111.3C137.05 111.88 136.63 112.43 136.06 112.54Z"  style="mix-blend-mode:normal" fill="#FFFFFF" >
</path>
</g>
<g opacity="0.2">
<path d="M131.27 112.52C130.7 112.63 130.2 112.25 130.14 111.67L128.71 96.75C128.65 96.17 129.07 95.62 129.64 95.51C130.21 95.4 130.71 95.78 130.77 96.36L132.2 111.28C132.26 111.86 131.84 112.41 131.27 112.52Z"  style="mix-blend-mode:normal" fill="#FFFFFF" >
</path>
</g>
<g opacity="0.2">
<path d="M126.49 112.5C125.92 112.61 125.42 112.23 125.36 111.65L123.93 96.73C123.87 96.15 124.29 95.6 124.86 95.49C125.43 95.38 125.93 95.76 125.99 96.34L127.42 111.26C127.48 111.84 127.06 112.39 126.49 112.5Z"  style="mix-blend-mode:normal" fill="#FFFFFF" >
</path>
</g>
<g opacity="0.2">
<path d="M121.709 112.49C121.139 112.6 120.639 112.22 120.579 111.64L119.149 96.72C119.089 96.14 119.509 95.59 120.079 95.48C120.649 95.37 121.149 95.75 121.209 96.33L122.639 111.25C122.699 111.83 122.279 112.38 121.709 112.49Z"  style="mix-blend-mode:normal" fill="#FFFFFF" >
</path>
</g>
<path d="M262.93 110.84L275.36 110.84L275.36 152.67L262.93 152.67L262.93 110.84Z"  style="mix-blend-mode:normal" fill="url(#linear_fill_pTN3scdGSRldVFSx9_NGp)" >
</path>
<path d="M270.27 116.38C270.27 117.573 269.303 118.54 268.11 118.54C266.917 118.54 265.95 117.573 265.95 116.38C265.95 115.187 266.917 114.22 268.11 114.22C269.303 114.22 270.27 115.187 270.27 116.38Z"  style="mix-blend-mode:normal" fill="#FFFFFF" >
</path>
<path d="M269.78 116.38C269.78 117.302 269.033 118.05 268.11 118.05C267.188 118.05 266.44 117.302 266.44 116.38C266.44 115.458 267.188 114.71 268.11 114.71C269.033 114.71 269.78 115.458 269.78 116.38Z"  style="mix-blend-mode:normal" fill="url(#linear_fill_VznjPabsmJFUg8gZYSAwF)" >
</path>
<g opacity="0.5">
<path d="M273.29 143.24L273.29 149.34L262.93 149.34L262.93 143.24L273.29 143.24Z"  style="mix-blend-mode:normal" fill="#FFFFFF" >
</path>
</g>
<g opacity="0.5">
<path d="M269.779 140.24L266.439 140.24L266.439 121.4L269.779 121.4L269.779 140.24Z"  style="mix-blend-mode:normal" fill="#FFFFFF" >
</path>
</g>
<g opacity="0.1">
<path d="M273.29 110.84L275.88 110.84L275.88 152.67L273.29 152.67L273.29 110.84Z"  style="mix-blend-mode:normal" fill="#262743" >
</path>
</g>
<path d="M275.359 110.84L291.529 110.84L291.529 152.67L275.359 152.67L275.359 110.84Z"  style="mix-blend-mode:normal" fill="url(#linear_fill_Pxk4TEvE-zdRBpSGl9wA6)" >
</path>
<path d="M282.7 116.38C282.7 117.573 281.733 118.54 280.54 118.54C279.347 118.54 278.38 117.573 278.38 116.38C278.38 115.187 279.347 114.22 280.54 114.22C281.733 114.22 282.7 115.187 282.7 116.38Z"  style="mix-blend-mode:normal" fill="#FFFFFF" >
</path>
<path d="M282.21 116.38C282.21 117.302 281.462 118.05 280.54 118.05C279.618 118.05 278.87 117.302 278.87 116.38C278.87 115.458 279.618 114.71 280.54 114.71C281.462 114.71 282.21 115.458 282.21 116.38Z"  style="mix-blend-mode:normal" fill="url(#linear_fill_Brt76gjd6VFMi0DdhAe_9)" >
</path>
<g opacity="0.5">
<path d="M285.72 143.25L285.72 149.35L275.36 149.35L275.36 143.25L285.72 143.25Z"  style="mix-blend-mode:normal" fill="#FFFFFF" >
</path>
</g>
<g opacity="0.5">
<path d="M282.209 140.24L278.869 140.24L278.869 121.4L282.209 121.4L282.209 140.24Z"  style="mix-blend-mode:normal" fill="#FFFFFF" >
</path>
</g>
<g opacity="0.1">
<path d="M285.72 110.84L291.53 110.84L291.53 152.67L285.72 152.67L285.72 110.84Z"  style="mix-blend-mode:normal" fill="#262743" >
</path>
</g>
<path d="M48.9794 156.86C44.5394 158.33 45.4394 169.8 48.2994 179.82C50.9694 189.21 56.0994 197.83 62.1094 195.79C67.2194 194.06 66.0194 184.65 62.6194 175.53C58.8294 165.35 53.4194 155.38 48.9794 156.85L48.9794 156.86Z"  style="mix-blend-mode:normal" fill="url(#linear_fill_Rtl6Zpy4C-S_TUj-0kBrs)" >
</path>
<path d="M74.0194 118.34C67.2094 117.75 63.3194 133.3 62.1394 151.02C61.0694 167.02 62.5594 182.85 70.6494 182.98C80.0694 183.14 83.5794 167.64 83.4594 151.77C83.3394 135.63 80.8194 118.92 74.0194 118.33L74.0194 118.34Z"  style="mix-blend-mode:normal" fill="url(#linear_fill_deO0KHlCocQJMEn2k_N4c)" >
</path>
<path d="M91.0994 163.98C94.8894 165.24 94.1194 175.04 91.6794 183.6C89.3994 191.62 85.0094 198.99 79.8794 197.25C75.5194 195.77 76.5394 187.73 79.4394 179.94C82.6794 171.24 87.2994 162.72 91.0994 163.98Z"  style="mix-blend-mode:normal" fill="url(#linear_fill_7PxoCLkSO_SJMmdEZHdN4)" >
</path>
<path d="M91.0994 163.98C94.8894 165.24 94.1194 175.04 91.6794 183.6C89.3994 191.62 85.0094 198.99 79.8794 197.25C75.5194 195.77 76.5394 187.73 79.4394 179.94C82.6794 171.24 87.2994 162.72 91.0994 163.98Z"  style="mix-blend-mode:normal" fill="#000000" >
</path>
<path d="M91.0994 163.98C94.8894 165.24 94.1194 175.04 91.6794 183.6C89.3994 191.62 85.0094 198.99 79.8794 197.25C75.5194 195.77 76.5394 187.73 79.4394 179.94C82.6794 171.24 87.2994 162.72 91.0994 163.98Z"  style="mix-blend-mode:normal" fill="#3AA965" >
</path>
<path d="M59.5994 216.26L60.1094 220.77L60.5694 224.84L64.0294 258.05L80.0994 258.05L83.5694 224.84L84.0294 220.77L84.5394 216.26L84.9994 212.19L85.9494 203.84L58.1894 203.84L59.1394 212.19L59.5994 216.26Z"  style="mix-blend-mode:normal" fill="url(#linear_fill_zBuXCCm0TZtqcdW4q56XN)" >
</path>
<g opacity="0.35">
<path d="M84.9994 212.19L84.5394 216.26L59.5994 216.26L59.1394 212.19L84.9994 212.19Z"  style="mix-blend-mode:normal" fill="#FFFFFF" >
</path>
</g>
<g opacity="0.35">
<path d="M84.0294 220.77L83.5694 224.84L60.5694 224.84L60.1094 220.77L84.0294 220.77Z"  style="mix-blend-mode:normal" fill="#FFFFFF" >
</path>
</g>
<path d="M85.9394 203.85C85.9394 204.19 82.7194 204.49 78.0694 204.63C77.9194 204.63 77.7594 204.65 77.5994 204.65C75.8994 204.7 74.0294 204.72 72.0594 204.72C71.1394 204.72 70.2494 204.72 69.3794 204.7C69.1194 204.7 68.8794 204.7 68.6294 204.7C67.3594 204.68 66.1594 204.64 65.0494 204.61C64.8594 204.61 64.6694 204.59 64.4894 204.59C60.6994 204.44 58.1794 204.16 58.1794 203.86C58.1794 203.56 60.5694 203.29 64.2094 203.14C64.3894 203.14 64.5694 203.12 64.7494 203.12C65.9494 203.06 67.2694 203.03 68.6794 203.01C68.9294 203.01 69.1794 203.01 69.4294 203.01C70.2794 203.01 71.1594 202.99 72.0594 202.99C74.1494 202.99 76.1294 203.02 77.9094 203.07C78.0594 203.07 78.2094 203.07 78.3594 203.09C82.8594 203.23 85.9394 203.53 85.9394 203.87L85.9394 203.85Z"  style="mix-blend-mode:normal" fill="url(#linear_fill_gv8YlkLm_PHnvpQaXeBDK)" >
</path>
<path d="M65.0494 204.65C64.8594 204.65 64.6694 204.64 64.4894 204.63C64.3994 204.29 64.3094 203.96 64.2194 203.61C60.3594 189.29 55.5094 175.22 50.6894 161.21L50.8294 161.14C56.1694 175.1 60.6594 189.25 64.7594 203.6C64.8594 203.95 64.9594 204.3 65.0494 204.64L65.0494 204.65Z"  style="mix-blend-mode:normal" fill="#24683E" >
</path>
<path d="M72.6594 124.46L69.4394 203.52L69.3894 204.72C69.1294 204.72 68.8894 204.72 68.6394 204.72L68.6994 203.53L72.4294 124.46L72.6594 124.46Z"  style="mix-blend-mode:normal" fill="#24683E" >
</path>
<path d="M89.7094 168.12C85.6794 179.84 81.6294 191.61 78.3594 203.57C78.2594 203.93 78.1694 204.3 78.0694 204.66C77.9194 204.66 77.7594 204.67 77.5994 204.67C77.6994 204.3 77.8094 203.93 77.9094 203.56C81.3494 191.56 85.1294 179.73 89.5894 168.06L89.6994 168.12L89.7094 168.12Z"  style="mix-blend-mode:normal" fill="#24683E" >
</path>
<path d="M337.839 257.52L5.03906 257.52L5.03906 258.59L337.839 258.59L337.839 257.52Z"  style="mix-blend-mode:normal" fill="#181B3B" >
</path>
<defs>
<linearGradient id="linear_fill_ndBk2LPV7UDRko7Gv1kDi" x1="29.08953857421875" y1="249.56591796875" x2="312.75103759765625" y2="39.9095458984375" gradientUnits="userSpaceOnUse">
<stop offset="0" stop-color="#B3DDFF"  />
<stop offset="1" stop-color="#3592DE"  />
</linearGradient>
<linearGradient id="linear_fill_RsUJkkYlL1f0W9chF7Ktg" x1="210.80859375" y1="222.27001953125" x2="231.588623046875" y2="222.27001953125" gradientUnits="userSpaceOnUse">
<stop offset="0" stop-color="#3A51A2"  />
<stop offset="1" stop-color="#1A2869"  />
</linearGradient>
<linearGradient id="linear_fill_dxKX7S_NR15OWCrMBM6SA" x1="160.7890625" y1="222.239990234375" x2="181.55905151367188" y2="222.239990234375" gradientUnits="userSpaceOnUse">
<stop offset="0" stop-color="#3A51A2"  />
<stop offset="1" stop-color="#1A2869"  />
</linearGradient>
<linearGradient id="linear_fill_O_o8kaXIhzjjgwnJSha3o" x1="173.908203125" y1="206.68994140625" x2="218.56817626953125" y2="206.68994140625" gradientUnits="userSpaceOnUse">
<stop offset="0" stop-color="#3A51A2"  />
<stop offset="1" stop-color="#1A2869"  />
</linearGradient>
<linearGradient id="linear_fill_VCRvzty8rLLD-JZTfQeR8" x1="138.4686279296875" y1="201.669921875" x2="200.72116088867188" y2="201.669921875" gradientUnits="userSpaceOnUse">
<stop offset="0" stop-color="#3A51A2"  />
<stop offset="1" stop-color="#1A2869"  />
</linearGradient>
<linearGradient id="linear_fill_FyUKU8mqSXlpN8JXYkN1i" x1="155.55908203125" y1="200.5699462890625" x2="218.9471435546875" y2="200.5699462890625" gradientUnits="userSpaceOnUse">
<stop offset="0" stop-color="#3A51A2"  />
<stop offset="1" stop-color="#1A2869"  />
</linearGradient>
<linearGradient id="linear_fill_bAk1xEnFlfW4N_e9zrbCq" x1="128.70907592773438" y1="147.518798828125" x2="149.84237670898438" y2="147.518798828125" gradientUnits="userSpaceOnUse">
<stop offset="0" stop-color="#FFCFC1"  />
<stop offset="1" stop-color="#FF9E82"  />
</linearGradient>
<linearGradient id="linear_fill_Zz9BN8Yk25eRAsHNZGfpK" x1="157.51934814453125" y1="117.7598876953125" x2="176.0693359375" y2="140.5799560546875" gradientUnits="userSpaceOnUse">
<stop offset="0" stop-color="#1B91FB"  />
<stop offset="1" stop-color="#2857E4"  />
</linearGradient>
<linearGradient id="linear_fill_p9cbf4oH3MhJXa5jIbOH2" x1="194.48931884765625" y1="99.14990234375" x2="207.34674072265625" y2="99.14990234375" gradientUnits="userSpaceOnUse">
<stop offset="0" stop-color="#FFCFC1"  />
<stop offset="1" stop-color="#FF9E82"  />
</linearGradient>
<linearGradient id="linear_fill_sGCKiOwP0qHsH58XxHKZj" x1="188.97933959960938" y1="87.5093994140625" x2="211.365478515625" y2="87.5093994140625" gradientUnits="userSpaceOnUse">
<stop offset="0" stop-color="#FFCFC1"  />
<stop offset="1" stop-color="#FF9E82"  />
</linearGradient>
<linearGradient id="linear_fill_ahuI6jimi7V7nx5XG58X7" x1="189.820068359375" y1="123.7213134765625" x2="214.36236572265625" y2="156.813232421875" gradientUnits="userSpaceOnUse">
<stop offset="0" stop-color="#1B91FB"  />
<stop offset="1" stop-color="#2857E4"  />
</linearGradient>
<linearGradient id="linear_fill_cdb5nZBXVUWYf_ZQ_h7cy" x1="194.739501953125" y1="144.9805908203125" x2="218.88946533203125" y2="144.9805908203125" gradientUnits="userSpaceOnUse">
<stop offset="0" stop-color="#3F4584"  />
<stop offset="0.4000000059604645" stop-color="#3D437E"  />
<stop offset="0.8799999952316284" stop-color="#3A3E6F"  />
<stop offset="1" stop-color="#393D6B"  />
</linearGradient>
<linearGradient id="linear_fill_DEOUVVs8EfMwt4Pzjej0f" x1="185.97879028320312" y1="149.929443359375" x2="206.80755615234375" y2="149.929443359375" gradientUnits="userSpaceOnUse">
<stop offset="0" stop-color="#FFCFC1"  />
<stop offset="1" stop-color="#FF9E82"  />
</linearGradient>
<linearGradient id="linear_fill_9kmVSEOslapHKFBfNZZjA" x1="201.02911376953125" y1="115.4097900390625" x2="225.55908203125" y2="148.5093994140625" gradientUnits="userSpaceOnUse">
<stop offset="0" stop-color="#1B91FB"  />
<stop offset="1" stop-color="#2857E4"  />
</linearGradient>
<linearGradient id="linear_fill_VIvlrIs8Ebqj6nJKPwkUt" x1="113.97906494140625" y1="-21.7900390625" x2="69.46905517578125" y2="112.4300537109375" gradientUnits="userSpaceOnUse">
<stop offset="0" stop-color="#B3DDFF"  />
<stop offset="1" stop-color="#3592DE"  />
</linearGradient>
<linearGradient id="linear_fill_HHF7OGVE9hQpx3vTOFBoB" x1="20.515899658203125" y1="9.1015625" x2="24.9058837890625" y2="9.1015625" gradientUnits="userSpaceOnUse">
<stop offset="0" stop-color="#1B91FB"  />
<stop offset="1" stop-color="#2857E4"  />
</linearGradient>
<linearGradient id="linear_fill_9GWxza5_Lxu0w_MuZpHUh" x1="20.849395751953125" y1="47.6212158203125" x2="71.82907104492188" y2="47.6212158203125" gradientUnits="userSpaceOnUse">
<stop offset="0" stop-color="#1B91FB"  />
<stop offset="1" stop-color="#2857E4"  />
</linearGradient>
<linearGradient id="linear_fill_ADFPbcwoEZJcabjdj8wdi" x1="135.00906372070312" y1="73.719970703125" x2="132.25906372070312" y2="39.550048828125" gradientUnits="userSpaceOnUse">
<stop offset="0" stop-color="#FFA826"  />
<stop offset="1" stop-color="#FFD05C"  />
</linearGradient>
<linearGradient id="linear_fill_yMTMGqgTrReGslkQFdLov" x1="147.45880126953125" y1="20.4700927734375" x2="146.70880126953125" y2="63.570068359375" gradientUnits="userSpaceOnUse">
<stop offset="0" stop-color="#1B91FB"  />
<stop offset="1" stop-color="#2857E4"  />
</linearGradient>
<linearGradient id="linear_fill_NDD0W6cbyqw9qciOcVufn" x1="91.16964721679688" y1="109.989990234375" x2="178.72906494140625" y2="109.989990234375" gradientUnits="userSpaceOnUse">
<stop offset="0" stop-color="#3A51A2"  />
<stop offset="1" stop-color="#1A2869"  />
</linearGradient>
<linearGradient id="linear_fill_b-W88DWsxCKpWBF5qzFF4" x1="125.14035034179688" y1="96.489990234375" x2="162.36111450195312" y2="166.2999267578125" gradientUnits="userSpaceOnUse">
<stop offset="0" stop-color="#3A51A2"  />
<stop offset="1" stop-color="#1A2869"  />
</linearGradient>
<linearGradient id="linear_fill_XNB-zc64NZDmmBrbNfA0K" x1="171.32968139648438" y1="150.050048828125" x2="171.61968994140625" y2="150.050048828125" gradientUnits="userSpaceOnUse">
<stop offset="0" stop-color="#3A51A2"  />
<stop offset="1" stop-color="#1A2869"  />
</linearGradient>
<linearGradient id="linear_fill_6DsYHz6f9a_hDTurN2qdk" x1="153.1785888671875" y1="116.949951171875" x2="115.52984619140625" y2="157.5999755859375" gradientUnits="userSpaceOnUse">
<stop offset="0" stop-color="#3A51A2"  />
<stop offset="1" stop-color="#1A2869"  />
</linearGradient>
<linearGradient id="linear_fill_pTN3scdGSRldVFSx9_NGp" x1="262.92962646484375" y1="131.75" x2="275.359619140625" y2="131.75" gradientUnits="userSpaceOnUse">
<stop offset="0" stop-color="#FFA826"  />
<stop offset="1" stop-color="#FFD05C"  />
</linearGradient>
<linearGradient id="linear_fill_VznjPabsmJFUg8gZYSAwF" x1="266.44036865234375" y1="116.3800048828125" x2="269.7803955078125" y2="116.3800048828125" gradientUnits="userSpaceOnUse">
<stop offset="0" stop-color="#FFA826"  />
<stop offset="1" stop-color="#FFD05C"  />
</linearGradient>
<linearGradient id="linear_fill_Pxk4TEvE-zdRBpSGl9wA6" x1="275.35931396484375" y1="131.75" x2="291.529296875" y2="131.75" gradientUnits="userSpaceOnUse">
<stop offset="0" stop-color="#1B91FB"  />
<stop offset="1" stop-color="#2857E4"  />
</linearGradient>
<linearGradient id="linear_fill_Brt76gjd6VFMi0DdhAe_9" x1="278.87005615234375" y1="116.3800048828125" x2="282.2100830078125" y2="116.3800048828125" gradientUnits="userSpaceOnUse">
<stop offset="0" stop-color="#1B91FB"  />
<stop offset="1" stop-color="#2857E4"  />
</linearGradient>
<linearGradient id="linear_fill_Rtl6Zpy4C-S_TUj-0kBrs" x1="45.89935302734375" y1="176.4114990234375" x2="65.55978393554688" y2="176.4114990234375" gradientUnits="userSpaceOnUse">
<stop offset="0" stop-color="#4EB387"  />
<stop offset="1" stop-color="#0C996A"  />
</linearGradient>
<linearGradient id="linear_fill_deO0KHlCocQJMEn2k_N4c" x1="73.42019653320312" y1="121.940185546875" x2="72.29013061523438" y2="172.08203125" gradientUnits="userSpaceOnUse">
<stop offset="0" stop-color="#4EB387"  />
<stop offset="1" stop-color="#0C996A"  />
</linearGradient>
<linearGradient id="linear_fill_7PxoCLkSO_SJMmdEZHdN4" x1="76.93936157226562" y1="180.689208984375" x2="93.72576904296875" y2="180.689208984375" gradientUnits="userSpaceOnUse">
<stop offset="0" stop-color="#4EB387"  />
<stop offset="1" stop-color="#0C996A"  />
</linearGradient>
<linearGradient id="linear_fill_zBuXCCm0TZtqcdW4q56XN" x1="59.91937255859375" y1="212.68994140625" x2="90.4693603515625" y2="249.7099609375" gradientUnits="userSpaceOnUse">
<stop offset="0" stop-color="#1B91FB"  />
<stop offset="1" stop-color="#2857E4"  />
</linearGradient>
<linearGradient id="linear_fill_gv8YlkLm_PHnvpQaXeBDK" x1="71.51937866210938" y1="200.030029296875" x2="71.7393798828125" y2="201.5999755859375" gradientUnits="userSpaceOnUse">
<stop offset="0" stop-color="#1B91FB"  />
<stop offset="1" stop-color="#2857E4"  />
</linearGradient>
</defs>
</svg>
