<svg width="200" height="200" viewBox="0 0 200 200" xmlns="http://www.w3.org/2000/svg"><g fill="none" fill-rule="evenodd"><path fill="#FFF" d="M99 52h84v34H99z"/><path d="M23 163c-7.398 0-13.843-4.027-17.303-10A19.886 19.886 0 0 0 3 163c0 11.046 8.954 20 20 20h20v-20H23z" fill="#3ECC5F"/><path d="M112.98 57.376L183 53V43c0-11.046-8.954-20-20-20H73l-2.5-4.33c-1.112-1.925-3.889-1.925-5 0L63 23l-2.5-4.33c-1.111-1.925-3.889-1.925-5 0L53 23l-2.5-4.33c-1.111-1.925-3.889-1.925-5 0L43 23c-.022 0-.042.003-.065.003l-4.142-4.141c-1.57-1.571-4.252-.853-4.828 1.294l-1.369 5.104-5.192-1.392c-2.148-.575-4.111 1.389-3.535 3.536l1.39 5.193-5.102 1.367c-2.148.576-2.867 3.259-1.296 4.83l4.142 4.142c0 .021-.003.042-.003.064l-4.33 2.5c-1.925 1.111-1.925 3.889 0 5L23 53l-4.33 2.5c-1.925 1.111-1.925 3.889 0 5L23 63l-4.33 2.5c-1.925 1.111-1.925 3.889 0 5L23 73l-4.33 2.5c-1.925 1.111-1.925 3.889 0 5L23 83l-4.33 2.5c-1.925 1.111-1.925 3.889 0 5L23 93l-4.33 2.5c-1.925 1.111-1.925 3.889 0 5L23 103l-4.33 2.5c-1.925 1.111-1.925 3.889 0 5L23 113l-4.33 2.5c-1.925 1.111-1.925 3.889 0 5L23 123l-4.33 2.5c-1.925 1.111-1.925 3.889 0 5L23 133l-4.33 2.5c-1.925 1.111-1.925 3.889 0 5L23 143l-4.33 2.5c-1.925 1.111-1.925 3.889 0 5L23 153l-4.33 2.5c-1.925 1.111-1.925 3.889 0 5L23 163c0 11.046 8.954 20 20 20h120c11.046 0 20-8.954 20-20V83l-70.02-4.376A10.645 10.645 0 0 1 103 68c0-5.621 4.37-10.273 9.98-10.624" fill="#3ECC5F"/><path fill="#3ECC5F" d="M143 183h30v-40h-30z"/><path d="M193 158c-.219 0-.428.037-.639.064-.038-.15-.074-.301-.116-.451A5 5 0 0 0 190.32 148a4.96 4.96 0 0 0-3.016 1.036 26.531 26.531 0 0 0-.335-.336 4.955 4.955 0 0 0 1.011-2.987 5 5 0 0 0-9.599-1.959c-.148-.042-.297-.077-.445-.115.027-.211.064-.42.064-.639a5 5 0 0 0-5-5 5 5 0 0 0-5 5c0 .219.037.428.064.639-.148.038-.297.073-.445.115a4.998 4.998 0 0 0-9.599 1.959c0 1.125.384 2.151 1.011 2.987-3.717 3.632-6.031 8.693-6.031 14.3 0 11.046 8.954 20 20 20 9.339 0 17.16-6.41 19.361-15.064.211.027.42.064.639.064a5 5 0 0 0 5-5 5 5 0 0 0-5-5" fill="#44D860"/><path fill="#3ECC5F" d="M153 123h30v-20h-30z"/><path d="M193 115.5a2.5 2.5 0 1 0 0-5c-.109 0-.214.019-.319.032-.02-.075-.037-.15-.058-.225a2.501 2.501 0 0 0-.963-4.807c-.569 0-1.088.197-1.508.518a6.653 6.653 0 0 0-.168-.168c.314-.417.506-.931.506-1.494a2.5 2.5 0 0 0-4.8-.979A9.987 9.987 0 0 0 183 103c-5.522 0-10 4.478-10 10s4.478 10 10 10c.934 0 1.833-.138 2.69-.377a2.5 2.5 0 0 0 4.8-.979c0-.563-.192-1.077-.506-1.494.057-.055.113-.111.168-.168.42.321.939.518 1.508.518a2.5 2.5 0 0 0 .963-4.807c.021-.074.038-.15.058-.225.105.013.21.032.319.032" fill="#44D860"/><path d="M63 55.5a2.5 2.5 0 0 1-2.5-2.5c0-4.136-3.364-7.5-7.5-7.5s-7.5 3.364-7.5 7.5a2.5 2.5 0 1 1-5 0c0-6.893 5.607-12.5 12.5-12.5S65.5 46.107 65.5 53a2.5 2.5 0 0 1-2.5 2.5" fill="#000"/><path d="M103 183h60c11.046 0 20-8.954 20-20V93h-60c-11.046 0-20 8.954-20 20v70z" fill="#FFFF50"/><path d="M168.02 124h-50.04a1 1 0 1 1 0-2h50.04a1 1 0 1 1 0 2m0 20h-50.04a1 1 0 1 1 0-2h50.04a1 1 0 1 1 0 2m0 20h-50.04a1 1 0 1 1 0-2h50.04a1 1 0 1 1 0 2m0-49.814h-50.04a1 1 0 1 1 0-2h50.04a1 1 0 1 1 0 2m0 19.814h-50.04a1 1 0 1 1 0-2h50.04a1 1 0 1 1 0 2m0 20h-50.04a1 1 0 1 1 0-2h50.04a1 1 0 1 1 0 2M183 61.611c-.012 0-.022-.006-.034-.005-3.09.105-4.552 3.196-5.842 5.923-1.346 2.85-2.387 4.703-4.093 4.647-1.889-.068-2.969-2.202-4.113-4.46-1.314-2.594-2.814-5.536-5.963-5.426-3.046.104-4.513 2.794-5.807 5.167-1.377 2.528-2.314 4.065-4.121 3.994-1.927-.07-2.951-1.805-4.136-3.813-1.321-2.236-2.848-4.75-5.936-4.664-2.994.103-4.465 2.385-5.763 4.4-1.373 2.13-2.335 3.428-4.165 3.351-1.973-.07-2.992-1.51-4.171-3.177-1.324-1.873-2.816-3.993-5.895-3.89-2.928.1-4.399 1.97-5.696 3.618-1.232 1.564-2.194 2.802-4.229 2.724a1 1 0 0 0-.072 2c3.017.101 4.545-1.8 5.872-3.487 1.177-1.496 2.193-2.787 4.193-2.855 1.926-.082 2.829 1.115 4.195 3.045 1.297 1.834 2.769 3.914 5.731 4.021 3.103.104 4.596-2.215 5.918-4.267 1.182-1.834 2.202-3.417 4.15-3.484 1.793-.067 2.769 1.35 4.145 3.681 1.297 2.197 2.766 4.686 5.787 4.796 3.125.108 4.634-2.62 5.949-5.035 1.139-2.088 2.214-4.06 4.119-4.126 1.793-.042 2.728 1.595 4.111 4.33 1.292 2.553 2.757 5.445 5.825 5.556l.169.003c3.064 0 4.518-3.075 5.805-5.794 1.139-2.41 2.217-4.68 4.067-4.773v-2z" fill="#000"/><path fill="#3ECC5F" d="M83 183h40v-40H83z"/><path d="M143 158c-.219 0-.428.037-.639.064-.038-.15-.074-.301-.116-.451A5 5 0 0 0 140.32 148a4.96 4.96 0 0 0-3.016 1.036 26.531 26.531 0 0 0-.335-.336 4.955 4.955 0 0 0 1.011-2.987 5 5 0 0 0-9.599-1.959c-.148-.042-.297-.077-.445-.115.027-.211.064-.42.064-.639a5 5 0 0 0-5-5 5 5 0 0 0-5 5c0 .219.037.428.064.639-.148.038-.297.073-.445.115a4.998 4.998 0 0 0-9.599 1.959c0 1.125.384 2.151 1.011 2.987-3.717 3.632-6.031 8.693-6.031 14.3 0 11.046 8.954 20 20 20 9.339 0 17.16-6.41 19.361-15.064.211.027.42.064.639.064a5 5 0 0 0 5-5 5 5 0 0 0-5-5" fill="#44D860"/><path fill="#3ECC5F" d="M83 123h40v-20H83z"/><path d="M133 115.5a2.5 2.5 0 1 0 0-5c-.109 0-.214.019-.319.032-.02-.075-.037-.15-.058-.225a2.501 2.501 0 0 0-.963-4.807c-.569 0-1.088.197-1.508.518a6.653 6.653 0 0 0-.168-.168c.314-.417.506-.931.506-1.494a2.5 2.5 0 0 0-4.8-.979A9.987 9.987 0 0 0 123 103c-5.522 0-10 4.478-10 10s4.478 10 10 10c.934 0 1.833-.138 2.69-.377a2.5 2.5 0 0 0 4.8-.979c0-.563-.192-1.077-.506-1.494.057-.055.113-.111.168-.168.42.321.939.518 1.508.518a2.5 2.5 0 0 0 .963-4.807c.021-.074.038-.15.058-.225.105.013.21.032.319.032" fill="#44D860"/><path d="M143 41.75c-.16 0-.33-.02-.49-.05a2.52 2.52 0 0 1-.47-.14c-.15-.06-.29-.14-.431-.23-.13-.09-.259-.2-.38-.31-.109-.12-.219-.24-.309-.38s-.17-.28-.231-.43a2.619 2.619 0 0 1-.189-.96c0-.16.02-.33.05-.49.03-.16.08-.31.139-.47.061-.15.141-.29.231-.43.09-.13.2-.26.309-.38.121-.11.25-.22.38-.31.141-.09.281-.17.431-.23.149-.06.31-.11.47-.14.32-.07.65-.07.98 0 .159.03.32.08.47.14.149.06.29.14.43.23.13.09.259.2.38.31.11.12.22.25.31.38.09.14.17.28.23.43.06.16.11.31.14.47.029.16.05.33.05.49 0 .66-.271 1.31-.73 1.77-.121.11-.25.22-.38.31-.14.09-.281.17-.43.23a2.565 2.565 0 0 1-.96.19m20-1.25c-.66 0-1.3-.27-1.771-.73a3.802 3.802 0 0 1-.309-.38c-.09-.14-.17-.28-.231-.43a2.619 2.619 0 0 1-.189-.96c0-.66.27-1.3.729-1.77.121-.11.25-.22.38-.31.141-.09.281-.17.431-.23.149-.06.31-.11.47-.14.32-.07.66-.07.98 0 .159.03.32.08.47.14.149.06.29.14.43.23.13.09.259.2.38.31.459.47.73 1.11.73 1.77 0 .16-.021.33-.05.49-.03.16-.08.32-.14.47-.07.15-.14.29-.23.43-.09.13-.2.26-.31.38-.121.11-.25.22-.38.31-.14.09-.281.17-.43.23a2.565 2.565 0 0 1-.96.19" fill="#000"/></g></svg><svg xmlns="http://www.w3.org/2000/svg" xmlns:xlink="http://www.w3.org/1999/xlink" width="913.847900390625" height="485.7923583984375" viewBox="0 0 913.847900390625 485.7923583984375" fill="none">
<path     fill="#FFFFFF"  d="M0 485.792L913.847 485.792L913.847 0L0 0L0 485.792Z">
</path>
<path d="M80.9219 421.572C136.1 397.725 898.788 417.555 913.183 443.891C935.679 485.051 381.056 498.381 257.566 472.637C196.399 459.885 318.756 457.774 317.799 449.725C315.343 429.051 53.2115 433.547 80.9219 421.572Z"   fill="#DBE5E5" >
</path>
<path d="M194.26 449.39C194.26 452.591 166.624 455.187 132.533 455.187C98.4423 455.187 70.8063 452.591 70.8063 449.39C70.8063 446.188 98.4423 443.592 132.533 443.592C166.624 443.592 194.26 446.188 194.26 449.39Z"   fill="#DBE5E5" >
</path>
<path d="M138.827 295.832C189.027 295.832 193.933 373.57 212.064 373.656C221.912 373.703 231.297 346.643 258.648 350.637C297.934 356.376 272.769 396.915 304.161 390.763C335.553 384.611 329.408 403.07 329.408 403.07C368.164 394.909 381.567 407.04 385.02 411.433C233.329 409.578 102.585 412.208 80.9195 421.572C79.4148 422.223 78.7639 422.825 78.8829 423.385C6.42485 412.562 47.1692 401.901 60.1099 400.137C73.6408 398.289 30.4562 295.832 138.827 295.832Z"   fill="#41C480" >
</path>
<path d="M175.344 268.682C175.344 276.412 169.077 282.679 161.347 282.679C153.616 282.679 147.349 276.412 147.349 268.682C147.349 260.951 153.616 254.684 161.347 254.684C169.077 254.684 175.344 260.951 175.344 268.682Z"   fill="#41C480" >
</path>
<path d="M913.119 443.788C906.303 432.798 768.112 422.89 606.931 416.894C623.63 373.679 696.109 400.223 696.109 400.223C696.109 400.223 724.716 329.02 808.061 342.134C876.586 352.914 877.295 416.619 877.295 416.619C912.434 418.429 913.159 441.073 913.119 443.788Z"   fill="#43CF7C" >
</path>
<path d="M895.856 401.46C895.856 405.325 892.723 408.459 888.857 408.459C884.992 408.459 881.859 405.325 881.859 401.46C881.859 397.594 884.992 394.461 888.857 394.461C892.723 394.461 895.856 397.594 895.856 401.46Z"   fill="#43CF7C" >
</path>
<path d="M741.216 478.336L717.033 480.067L717.033 480.067L709.293 469.796L720.75 474.933L708.22 449.224L727.406 471.897L745.045 429.693L737.005 473.533L748.77 468.046L741.216 478.336Z" fill-rule="evenodd"  fill="#FFFFFF" >
</path>
<path d="M239.469 410.875L239.469 410.875L226.752 401.425L241.926 406.149L232.946 385.015L249.046 406.07L249.046 394.923L254.075 407.306L267.933 367.287L260.976 410.875L239.469 410.875Z" fill-rule="evenodd"  fill="#2A82E4" >
</path>
<path d="M263.186 410.875L276.81 399.258L269.172 410.952L263.186 410.875L263.186 410.875Z" fill-rule="evenodd"  fill="#2A82E4" >
</path>
<path d="M703.841 186.041L801.609 150.877C801.609 150.877 817.503 164.368 818.947 203.859C820.391 243.351 814.129 306.445 832.431 341.121C842.696 360.55 837.437 392.679 830.838 417.174L771.936 417.177C770.732 361.607 749.589 261.655 749.589 261.655C749.589 261.655 696.632 312.919 687.002 322.796C669.92 340.293 689.815 366.506 617.614 409.287L569.752 373.325C595.892 346.004 682.03 212.529 703.841 186.041Z"   fill="#A0505A" >
</path>
<path    stroke="rgba(66, 60, 82, 1.00)" stroke-width="1.1625"  stroke-linecap="round"  d="M794.372 150.877C794.372 150.877 810.266 164.368 811.71 203.859C813.154 243.351 806.893 306.445 825.194 341.121C835.459 360.55 830.201 392.679 823.601 417.174">
</path>
<path    stroke="rgba(66, 60, 82, 1.00)" stroke-width="1.1625"  stroke-linecap="round"  d="M749.589 261.653L749.589 261.653ZM749.589 261.653L739.476 195.351">
</path>
<path d="M810.17 163.453L681.132 231.724C678.05 233.498 674.236 233.408 671.241 231.491C685.544 210.728 697.449 193.798 703.836 186.041L801.604 150.877C801.604 150.877 805.862 154.488 810.17 163.453Z"   fill="#423C52" >
</path>
<path    stroke="rgba(66, 60, 82, 1.00)" stroke-width="1.1625"  stroke-linecap="round"  d="M780.955 178.909C780.955 178.909 788.817 195.837 811.729 203.577">
</path>
<path d="M617.614 408.804C602.039 421.255 588.94 429.693 588.94 429.693L531.058 387.665C531.058 387.665 533.699 383.884 538.057 384.698C551.088 387.133 560.558 386.986 568.067 376.446C568.623 375.669 569.183 374.87 569.749 374.05L617.614 408.804Z" stroke="rgba(255, 195, 0, 1)" stroke-width="1.1625"      fill="#FFFFFF" >
</path>
<path d="M573.414 424.962C572.812 424.533 572.672 423.698 573.099 423.095L573.099 423.095C573.527 422.492 573.385 421.657 572.782 421.229L564.566 415.259C563.973 414.822 563.139 414.946 562.699 415.537L562.699 415.537C562.258 416.125 561.425 416.248 560.833 415.812L528.545 392.396C527.943 391.969 527.801 391.133 528.228 390.53L530.561 387.315L589.351 429.991L587.018 433.206C586.578 433.797 585.744 433.921 585.151 433.484L573.414 424.962Z" fill-rule="evenodd"  fill="#FFC300" >
</path>
<path d="M575.509 391.727L562.513 382.293L566.586 378.364L578.782 387.22L575.509 391.727L575.509 391.727Z" fill-rule="evenodd"  fill="#FFC300" >
</path>
<path d="M830.35 417.177C825.171 436.402 819.647 450.927 819.647 450.927L749.589 450.927C749.589 450.927 749.508 446.317 753.432 444.416C765.161 438.728 772.58 433.045 772.466 420.104C772.456 419.143 772.442 418.167 772.422 417.177L830.35 417.177Z" stroke="rgba(255, 195, 0, 1)" stroke-width="1.1625"      fill="#FFFFFF" >
</path>
<path d="M804.623 456.216C803.892 456.216 803.3 455.623 803.3 454.893L803.3 454.893C803.3 454.161 802.707 453.568 801.975 453.568L792.025 453.568C791.293 453.568 790.7 454.161 790.7 454.893L790.7 454.893C790.7 455.244 790.56 455.581 790.312 455.829C790.063 456.077 789.726 456.216 789.375 456.216L750.315 456.216C749.964 456.216 749.626 456.077 749.378 455.829C749.129 455.581 748.99 455.244 748.99 454.893L748.99 450.927L820.144 450.927L820.144 454.893C820.144 455.623 819.551 456.216 818.821 456.216L804.623 456.216Z" fill-rule="evenodd"  fill="#FFC300" >
</path>
<path d="M787.156 428.099L771.425 428.099L772.393 422.526L787.156 422.526L787.156 428.099L787.156 428.099Z" fill-rule="evenodd"  fill="#FFC300" >
</path>
<path d="M703.841 186.041L658.116 142.823C655.783 140.616 654.357 142.056 654.045 145.252C653.095 154.987 653.842 172.932 652.01 192.783L600.612 192.783L602.284 129.876C602.939 105.294 616.216 82.7841 637.413 70.3187L716.595 23.7491C745.663 6.65347 783.137 18.4557 797.157 49.1242L818.527 95.8502C829.09 118.932 817.542 146.096 793.593 154.509L703.841 186.041Z"   fill="#41C480" >
</path>
<g opacity="0.5">
<g opacity="0.5">
<path d="M609.866 99.7321L609.866 192.783L608.658 192.783L608.658 102.266C609.044 101.412 609.446 100.567 609.866 99.7321Z"   fill="#FFFFFF" >
</path>
</g>
<g opacity="0.5">
<path d="M618.75 86.1756L618.75 192.79L617.542 192.79L617.542 87.671C617.721 87.4377 617.91 87.2044 618.104 86.9711C618.297 86.7378 618.531 86.4369 618.75 86.1756Z"   fill="#FFFFFF" >
</path>
</g>
<g opacity="0.5">
<path d="M627.634 77.2382L627.634 192.783L626.425 192.783L626.425 78.2786L626.659 78.0803C626.979 77.7942 627.304 77.5134 627.634 77.2382Z"   fill="#FFFFFF" >
</path>
</g>
<g opacity="0.5">
<path d="M636.518 70.8553L636.518 192.783L635.307 192.783L635.307 71.6065C635.706 71.3523 636.112 71.1003 636.518 70.8553Z"   fill="#FFFFFF" >
</path>
</g>
<g opacity="0.5">
<path d="M645.401 65.6202L645.401 192.783L644.19 192.783L644.19 66.3318L645.401 65.6202L645.401 65.6202Z" fill-rule="evenodd"  fill="#FFFFFF" >
</path>
</g>
<g opacity="0.5">
<path d="M653.524 156.812C653.524 157.211 653.508 157.612 653.496 158.022C653.452 160.425 653.41 162.994 653.354 165.695C653.354 166.094 653.338 166.498 653.331 166.904C653.277 169.365 653.212 171.929 653.123 174.579C653.109 174.951 653.095 175.324 653.081 175.699L653.081 61.1061L654.285 60.3945L654.285 143.845C654.171 144.305 654.093 144.773 654.052 145.245C653.969 146.08 653.9 146.974 653.844 147.928C653.816 148.322 653.795 148.723 653.774 149.139C653.655 151.425 653.583 153.998 653.524 156.812Z"   fill="#FFFFFF" >
</path>
</g>
<g opacity="0.5">
<path d="M663.169 55.1711L663.169 147.599L661.958 146.456L661.958 55.8827L663.169 55.1711L663.169 55.1711Z" fill-rule="evenodd"  fill="#FFFFFF" >
</path>
</g>
<g opacity="0.5">
<path d="M672.05 49.9454L672.05 155.995L670.842 154.852L670.842 50.6569L671.586 50.2207L672.05 49.9454L672.05 49.9454Z" fill-rule="evenodd"  fill="#FFFFFF" >
</path>
</g>
<g opacity="0.5">
<path d="M680.934 44.7197L680.934 164.394L679.725 163.248L679.725 45.4312L680.934 44.7197L680.934 44.7197Z" fill-rule="evenodd"  fill="#FFFFFF" >
</path>
</g>
<g opacity="0.5">
<path d="M689.815 39.4986L689.815 172.787L688.607 171.644L688.607 40.2078L689.815 39.4986L689.815 39.4986Z" fill-rule="evenodd"  fill="#FFFFFF" >
</path>
</g>
<g opacity="0.5">
<path d="M698.699 34.2752L698.699 181.186L697.491 180.043L697.491 34.9867L698.699 34.2752L698.699 34.2752Z" fill-rule="evenodd"  fill="#FFFFFF" >
</path>
</g>
<g opacity="0.5">
<path d="M707.583 29.0495L707.583 184.725L706.372 185.147L706.372 29.761L707.583 29.0495L707.583 29.0495Z" fill-rule="evenodd"  fill="#FFFFFF" >
</path>
</g>
<g opacity="0.5">
<path d="M716.466 23.8237L716.466 181.603L715.256 182.03L715.256 24.5353L716.466 23.8237L716.466 23.8237Z" fill-rule="evenodd"  fill="#FFFFFF" >
</path>
</g>
<g opacity="0.5">
<path d="M725.35 19.5452L725.35 178.482L724.14 178.909L724.14 20.0374C724.541 19.8578 724.944 19.7015 725.35 19.5452Z"   fill="#FFFFFF" >
</path>
</g>
<g opacity="0.5">
<path d="M734.232 16.986L734.232 175.363L733.023 175.788L733.023 17.2449C733.424 17.1539 733.828 17.0699 734.232 16.986Z"   fill="#FFFFFF" >
</path>
</g>
<g opacity="0.5">
<path d="M743.115 15.9268L743.115 172.232L741.907 172.657L741.907 15.9875C742.308 15.9618 742.712 15.9408 743.115 15.9268Z"   fill="#FFFFFF" >
</path>
</g>
<g opacity="0.5">
<path d="M751.999 16.2721L751.999 169.12L750.791 169.547L750.791 16.1414C751.199 16.1787 751.598 16.2231 751.999 16.2721Z"   fill="#FFFFFF" >
</path>
</g>
<g opacity="0.5">
<path d="M760.883 18.0358L760.883 165.999L759.674 166.426L759.674 17.7092C760.078 17.8118 760.482 17.9238 760.883 18.0358Z"   fill="#FFFFFF" >
</path>
</g>
<g opacity="0.5">
<path d="M769.764 21.3602L769.764 162.879L768.554 163.304L768.554 20.8073C768.962 20.9962 769.363 21.1689 769.764 21.3602Z"   fill="#FFFFFF" >
</path>
</g>
<g opacity="0.5">
<path d="M778.648 26.5953L778.648 159.758L777.437 160.185L777.437 25.7391C777.843 26.012 778.261 26.2943 778.648 26.5953Z"   fill="#FFFFFF" >
</path>
</g>
<g opacity="0.5">
<path d="M787.532 34.4945L787.532 156.637L787.019 156.819L786.319 157.052L786.319 33.2044C786.468 33.3584 786.615 33.51 786.76 33.671C787.021 33.9393 787.278 34.2146 787.532 34.4945Z"   fill="#FFFFFF" >
</path>
</g>
<g opacity="0.5">
<path d="M796.415 47.5518L796.415 153.406C796.014 153.581 795.611 153.746 795.205 153.907L795.205 45.2329C795.622 45.9934 796.028 46.7656 796.415 47.5518Z"   fill="#FFFFFF" >
</path>
</g>
<g opacity="0.5">
<path d="M805.297 66.908L805.297 148.25C804.9 148.55 804.498 148.842 804.089 149.127L804.089 64.2625L805.297 66.908Z"   fill="#FFFFFF" >
</path>
</g>
<g opacity="0.5">
<path d="M814.188 86.3319L814.188 140.262L813.39 140.262C813.257 140.439 813.119 140.612 812.979 140.787L812.979 83.6887L813.924 85.7533L814.188 86.3319Z"   fill="#FFFFFF" >
</path>
</g>
<g opacity="0.5">
<path d="M652.708 183.47C652.682 183.871 652.659 184.275 652.631 184.678L600.985 184.678L600.985 183.47L652.708 183.47Z"   fill="#FFFFFF" >
</path>
</g>
<g opacity="0.5">
<path d="M711.157 183.47L707.713 184.678L702.394 184.678L701.114 183.47L711.157 183.47L711.157 183.47Z" fill-rule="evenodd"  fill="#FFFFFF" >
</path>
</g>
<g opacity="0.5">
<path d="M653.116 174.586C653.102 174.958 653.088 175.331 653.074 175.706L653.074 175.795L601.064 175.795L601.095 174.586L653.116 174.586Z"   fill="#FFFFFF" >
</path>
</g>
<g opacity="0.5">
<path d="M736.441 174.586L734.234 175.363L733.023 175.788L733.023 175.795L692.997 175.795L691.717 174.586L736.441 174.586L736.441 174.586Z" fill-rule="evenodd"  fill="#FFFFFF" >
</path>
</g>
<g opacity="0.5">
<path d="M653.347 165.702C653.347 166.101 653.331 166.505 653.324 166.911L601.3 166.911L601.332 165.702L653.347 165.702Z"   fill="#FFFFFF" >
</path>
</g>
<g opacity="0.5">
<path d="M761.73 165.702L760.883 165.999L759.674 166.426L758.286 166.913L683.598 166.913L682.317 165.702L761.73 165.702L761.73 165.702Z" fill-rule="evenodd"  fill="#FFFFFF" >
</path>
</g>
<g opacity="0.5">
<path d="M653.517 156.819C653.517 157.218 653.501 157.619 653.489 158.029L601.535 158.029L601.568 156.819L653.517 156.819Z"   fill="#FFFFFF" >
</path>
</g>
<g opacity="0.5">
<path d="M787.018 156.819L786.321 157.064L783.573 158.029L674.201 158.029L672.923 156.819L787.018 156.819L787.018 156.819Z" fill-rule="evenodd"  fill="#FFFFFF" >
</path>
</g>
<g opacity="0.5">
<path d="M653.837 147.935C653.809 148.329 653.788 148.73 653.767 149.146L601.771 149.146L601.804 147.935L653.837 147.935Z"   fill="#FFFFFF" >
</path>
</g>
<g opacity="0.5">
<path d="M805.712 147.935C805.575 148.042 805.435 148.145 805.297 148.25C804.9 148.55 804.498 148.842 804.089 149.127L804.089 149.146L664.813 149.146L663.533 147.935L805.712 147.935Z"   fill="#FFFFFF" >
</path>
</g>
<g opacity="0.5">
<path d="M814.29 139.042L814.181 139.191L814.181 140.253L602.009 140.253L602.042 139.042L814.29 139.042Z"   fill="#FFFFFF" >
</path>
</g>
<g opacity="0.5">
<path d="M819.215 130.177C819.052 130.585 818.879 130.986 818.697 131.387L602.245 131.387L602.277 130.177L819.215 130.177Z"   fill="#FFFFFF" >
</path>
</g>
<g opacity="0.5">
<path d="M821.798 121.286C821.725 121.69 821.647 122.093 821.564 122.494L602.868 122.494C602.919 122.091 602.975 121.687 603.036 121.286L821.798 121.286Z"   fill="#FFFFFF" >
</path>
</g>
<g opacity="0.5">
<path d="M822.458 113.613L604.613 113.613C604.718 113.209 604.829 112.806 604.944 112.405L822.439 112.405C822.451 112.808 822.458 113.209 822.458 113.613Z"   fill="#FFFFFF" >
</path>
</g>
<g opacity="0.5">
<path d="M821.492 104.729L607.587 104.729C607.753 104.326 607.925 103.922 608.096 103.521L821.212 103.521C821.31 103.922 821.406 104.326 821.492 104.729Z"   fill="#FFFFFF" >
</path>
</g>
<g opacity="0.5">
<path d="M818.534 95.8479L611.978 95.8479C612.211 95.4396 612.444 95.0383 612.698 94.6371L817.979 94.6371L818.534 95.8479Z"   fill="#FFFFFF" >
</path>
</g>
<g opacity="0.5">
<path d="M814.47 86.9641L618.104 86.9641C618.314 86.7005 618.531 86.4368 618.75 86.1756C618.864 86.0332 618.983 85.8933 619.105 85.7533L813.917 85.7533L814.181 86.3319L814.47 86.9641Z"   fill="#FFFFFF" >
</path>
</g>
<g opacity="0.5">
<path d="M810.408 78.0804L626.652 78.0804C626.977 77.7926 627.304 77.5119 627.634 77.2382C627.778 77.1122 627.923 76.9909 628.072 76.8696L809.853 76.8696L810.408 78.0804Z"   fill="#FFFFFF" >
</path>
</g>
<g opacity="0.5">
<path d="M806.344 69.1966L639.322 69.1966L641.377 67.9858L805.792 67.9858L806.344 69.1966L806.344 69.1966Z" fill-rule="evenodd"  fill="#FFFFFF" >
</path>
</g>
<g opacity="0.5">
<path d="M802.28 60.3129L654.425 60.3129L656.48 59.1021L801.73 59.1021L802.28 60.3129L802.28 60.3129Z" fill-rule="evenodd"  fill="#FFFFFF" >
</path>
</g>
<g opacity="0.5">
<path d="M798.219 51.4292L669.531 51.4292L670.842 50.657L671.586 50.2207L797.666 50.2207L798.219 51.4292L798.219 51.4292Z" fill-rule="evenodd"  fill="#FFFFFF" >
</path>
</g>
<g opacity="0.5">
<path d="M793.628 42.5477L684.629 42.5477L686.685 41.3393L792.846 41.3393C793.115 41.7382 793.373 42.1418 793.628 42.5477Z"   fill="#FFFFFF" >
</path>
</g>
<g opacity="0.5">
<path d="M786.762 33.664L699.744 33.664L701.799 32.4555L785.591 32.4555C785.84 32.7028 786.086 32.9524 786.33 33.2044C786.47 33.3607 786.617 33.51 786.762 33.664Z"   fill="#FFFFFF" >
</path>
</g>
<g opacity="0.5">
<path d="M775.977 24.7826L714.838 24.7826L715.256 24.5353L716.466 23.8354L716.595 23.7607L716.898 23.5834L773.989 23.5834C774.659 23.9614 775.321 24.3626 775.977 24.7826Z"   fill="#FFFFFF" >
</path>
</g>
</g>
<path    stroke="rgba(66, 60, 82, 1.00)" stroke-width="1.1625"  stroke-linecap="round"  d="M762.912 116.688L762.912 116.688ZM762.912 116.688L751.355 87.1484">
</path>
<path    stroke="rgba(66, 60, 82, 1.00)" stroke-width="1.1625"  stroke-linecap="round"  d="M710.333 28.058L710.333 28.058ZM710.333 28.058L701.83 95.4443">
</path>
<path    stroke="rgba(66, 60, 82, 1.00)" stroke-width="1.1625"  stroke-linecap="round"  d="M701.83 95.4442L701.83 95.4442ZM701.83 95.4442L649.181 64.0245">
</path>
<path    stroke="rgba(66, 60, 82, 1.00)" stroke-width="1.1625"  stroke-linecap="round"  d="M701.587 94.9613L725.348 145.905M725.348 145.905L725.348 145.905Z">
</path>
<path d="M704.853 113.998C704.853 115.668 703.5 117.021 701.83 117.021C700.16 117.021 698.806 115.668 698.806 113.998C698.806 112.328 700.16 110.974 701.83 110.974C703.5 110.974 704.853 112.328 704.853 113.998Z" stroke="rgba(66, 60, 82, 1.00)" stroke-width="1.1625"  stroke-linecap="round" >
</path>
<path d="M713.599 134.026C713.599 135.696 712.246 137.049 710.576 137.049C708.906 137.049 707.552 135.696 707.552 134.026C707.552 132.356 708.906 131.003 710.576 131.003C712.246 131.003 713.599 132.356 713.599 134.026Z" stroke="rgba(66, 60, 82, 1.00)" stroke-width="1.1625"  stroke-linecap="round" >
</path>
<path d="M640.138 269.599C639.258 279.319 634.358 288.23 626.621 294.181C616.51 301.956 603.406 311.715 601.094 311.911C598.295 312.144 593.748 300.505 591.443 294.062C590.562 291.594 591.342 288.839 593.386 287.201L598.206 283.818L599.487 235.172L600.616 192.792L652.015 192.792L640.138 269.599Z" stroke="rgba(66, 60, 82, 1.00)" stroke-width="1.1625"      fill="#FFFFFF" >
</path>
<path d="M651.74 194.467L649.173 210.893C649.211 203.171 638.909 197.799 625.163 197.596C611.882 197.404 601.027 203.006 600.138 210.357L600.604 192.778C600.714 185.021 612.169 179.987 625.961 180.18C639.753 180.374 651.854 186.71 651.74 194.467Z" stroke="rgba(66, 60, 82, 1.00)" stroke-width="1.1625"      fill="#FFFFFF" >
</path>
<path d="M610.965 193.595C610.965 195.264 609.611 196.618 607.942 196.618C606.272 196.618 604.918 195.264 604.918 193.595C604.918 191.925 606.272 190.571 607.942 190.571C609.611 190.571 610.965 191.925 610.965 193.595Z" stroke="rgba(66, 60, 82, 1.00)" stroke-width="1.1625"  stroke-linecap="round"    fill="#FFFFFF" >
</path>
<path d="M491.821 451.547L491.821 451.547C477.494 441.283 474.891 420.188 485.942 403.935L504.568 375.73L559.592 415.476L538.67 442.02C526.772 457.534 506.065 461.745 491.821 451.547Z" stroke="rgba(66, 60, 82, 1.00)" stroke-width="1.1625"    fill-rule="evenodd"  fill="#FFFFFF" >
</path>
<path    stroke="rgba(66, 60, 82, 1.00)" stroke-width="2.325"  stroke-linecap="round"  d="M638.008 247.406L638.008 247.406ZM638.008 247.406L533.153 396.512">
</path>
<path d="M691.024 247.406L638.008 247.406L638.008 200.514C638.008 196.117 643.183 193.763 646.498 196.653L694.39 238.412C697.957 241.534 695.757 247.406 691.024 247.406Z" stroke="rgba(255, 195, 0, 1)" stroke-width="2.325"   >
</path>
<path d="M513.367 424.294L513.367 424.294C510.717 422.428 513.088 414.596 518.715 406.629L528.319 392.886L538.449 400.202L528.417 413.64C522.657 421.444 516.004 426.151 513.367 424.294Z" stroke="rgba(66, 60, 82, 1.00)" stroke-width="1.1625"    fill-rule="evenodd"  fill="#FFFFFF" >
</path>
<path d="M591.814 294.834L598.022 309.254C598.524 310.42 599.54 311.288 600.771 311.601C602.002 311.914 603.309 311.637 604.307 310.852L630.923 288.96L627.321 281.914C626.198 282.62 624.827 282.811 623.553 282.441C622.28 282.07 621.226 281.173 620.656 279.975L617.812 273.992C617.497 273.329 616.911 272.836 616.205 272.637C615.498 272.438 614.741 272.553 614.126 272.953L594.38 286.069C591.502 287.974 590.418 291.677 591.814 294.834Z"   fill="#FFFFFF" >
</path>
<path    stroke="rgba(66, 60, 82, 1.00)" stroke-width="1.1625"  stroke-linecap="round"  d="M627.321 281.914C626.198 282.62 624.827 282.811 623.553 282.441C622.28 282.07 621.226 281.173 620.656 279.975L617.812 273.992C617.497 273.329 616.911 272.836 616.205 272.637C615.498 272.438 614.741 272.553 614.126 272.953L593.377 287.184C591.333 288.823 590.553 291.578 591.434 294.045C593.739 300.489 598.295 312.128 601.085 311.894C603.397 311.703 616.501 301.945 626.612 294.164">
</path>
<path    stroke="rgba(66, 60, 82, 1.00)" stroke-width="1.1625"  stroke-linecap="round"  d="M608.058 307.793C604.046 307.793 599.31 297.454 597.488 289.939C596.87 287.392 597.385 284.718 599.431 283.078">
</path>
<path    stroke="rgba(66, 60, 82, 1.00)" stroke-width="1.1625"  stroke-linecap="round"  d="M614.231 303.498C611.432 303.732 606.052 293.359 603.777 285.586C603.042 283.069 603.677 280.365 605.721 278.725">
</path>
<path    stroke="rgba(66, 60, 82, 1.00)" stroke-width="1.1625"  stroke-linecap="round"  d="M621.654 297.869C618.855 298.102 614.231 287.821 612.003 280.02C611.282 277.5 612.087 274.593 614.131 272.953">
</path>
<path d="M757.192 118.734L757.192 118.734C771.725 124.666 782.255 137.568 785.154 152.995L786.321 159.156L680.353 232.125C676.671 234.658 671.724 234.292 668.455 231.246L650.818 214.827C649.624 213.716 649.08 212.073 649.374 210.469L651.583 195.771C652.341 191.633 655.252 188.214 659.217 186.806L681.279 179.14L757.192 118.734Z" stroke="rgba(66, 60, 82, 1.00)" stroke-width="1.1625"    fill-rule="evenodd"  fill="#FFFFFF" >
</path>
<path    stroke="rgba(66, 60, 82, 1.00)" stroke-width="1.1625"  stroke-linecap="round"  d="M649.561 212.867L661.914 198.445M661.914 198.445L661.914 198.445Z">
</path>
<path    stroke="rgba(66, 60, 82, 1.00)" stroke-width="1.1625"  stroke-linecap="round"  d="M656.163 219.327L668.518 204.905M668.518 204.905L668.518 204.905Z">
</path>
<path    stroke="rgba(66, 60, 82, 1.00)" stroke-width="1.1625"  stroke-linecap="round"  d="M663.012 226.025L675.365 211.602M675.365 211.602L675.365 211.602Z">
</path>
<path    stroke="rgba(66, 60, 82, 1.00)" stroke-width="1.1625"  stroke-linecap="round"  d="M669.363 231.519L681.718 217.096M681.718 217.096L681.718 217.096Z">
</path>
<path d="M792.594 154.906L779.441 163.894C785.285 158.851 782.409 147.37 773.532 136.877C764.949 126.738 753.48 122.455 747.354 126.612L760.328 116.051C766.249 111.037 778.272 115.51 787.182 126.038C796.091 136.567 798.517 149.894 792.594 154.906Z" stroke="rgba(66, 60, 82, 1.00)" stroke-width="1.1625"      fill="#FFFFFF" >
</path>
<path d="M768.257 121.258C768.257 122.928 766.904 124.281 765.234 124.281C763.564 124.281 762.21 122.928 762.21 121.258C762.21 119.588 763.564 118.234 765.234 118.234C766.904 118.234 768.257 119.588 768.257 121.258Z" stroke="rgba(66, 60, 82, 1.00)" stroke-width="1.1625"  stroke-linecap="round"    fill="#FFFFFF" >
</path>
<path d="M654.229 47.2579C669.668 43.1636 666.827 36.7597 669.922 34.2938C674.49 30.6545 678.638 37.217 679.872 39.4636L683.052 36.6268C682.912 35.7496 680.624 22.1044 674.019 22.6829C670.856 22.9605 668.42 30.7828 657.5 29.593C643.365 28.0486 633.965 33.6546 640.313 43.8238C641.743 46.1217 648.282 48.2913 654.229 47.2579Z"   fill="#FF8D1A" >
</path>
<path d="M689.066 40.0305L701.587 94.9613L662.716 55.493L689.066 40.0305L689.066 40.0305Z" fill-rule="evenodd"  fill="#FFFFFF" >
</path>
<path d="M688.049 48.5246C690.538 62.4638 684.685 74.0327 681.174 74.2473L662.718 55.5047L684.774 42.5593L688.049 48.5246Z"   fill="#423C52" >
</path>
<path d="M669.925 34.2938C666.836 36.7551 669.67 43.1589 654.229 47.2579C654.229 47.2579 661.823 62.0135 663.614 62.0135C665.406 62.0135 668.817 60.7351 668.817 60.7351C668.817 60.7351 674.672 67.7059 676.238 67.7059C679.737 67.7059 687.436 57.9589 687.436 48.3217L691.406 44.9506C693.485 43.1008 693.671 39.9166 691.821 37.8375L690.699 36.5754C688.848 34.498 685.664 34.3122 683.584 36.1602L679.872 39.4636C678.641 37.217 674.493 30.6545 669.925 34.2938Z" stroke="rgba(66, 60, 82, 1.00)" stroke-width="1.1625"      fill="#FFFFFF" >
</path>
<path    stroke="rgba(66, 60, 82, 1.00)" stroke-width="1.1625"  stroke-linecap="round"  d="M663.444 47.6241C663.444 47.6241 666.855 46.0027 670.522 46.2593">
</path>
<path d="M669.871 50.9031C670.456 51.8162 670.537 52.8091 670.052 53.1208C669.566 53.4324 668.697 52.9448 668.111 52.0317C667.525 51.1186 667.444 50.1257 667.93 49.814C668.416 49.5024 669.285 49.9899 669.871 50.9031Z"   fill="#423C52" >
</path>
<path    stroke="rgba(66, 60, 82, 1.00)" stroke-width="1.1625"  stroke-linecap="round"  d="M685.576 43.5065C684.48 41.8151 684.909 39.5849 686.537 38.5304">
</path>
<path d="M280.601 299.199C280.601 299.199 278.396 318.305 249.862 334.108C231.085 344.509 199.8 357.468 178.431 367.28L141.141 310.044L141.141 310.044L175.419 287.912C188.274 279.613 196.038 265.357 196.037 250.056L196.037 173.004C196.229 187.996 198.508 201.296 202.212 213.086L202.212 213.086C208.262 232.335 218.1 247.562 228.843 259.577C249.806 283.02 274.213 294.232 280.601 299.199Z" fill-rule="evenodd"  fill="#423C52" >
</path>
<path d="M409.121 347.478L345.773 373.567C332.667 349.373 311.666 319.987 280.589 299.206C268.925 290.133 197.148 260.246 196.023 172.995C196.023 172.995 246.788 178.039 255.37 153.039C255.37 153.039 265.047 161.064 283.72 161.064C283.72 161.064 275.704 169.794 301.217 193.413C336.332 225.922 383.44 266.993 409.121 347.478Z"   fill="#1C8C52" >
</path>
<path    stroke="rgba(66, 60, 82, 1.00)" stroke-width="1.1625"  stroke-linecap="round"  d="M196.49 178.37C196.49 178.37 249.12 183.414 257.703 158.414">
</path>
<path    stroke="rgba(66, 60, 82, 1.00)" stroke-width="1.1625"  stroke-linecap="round"  d="M255.394 164.963C255.394 164.963 247.009 180.068 272.527 203.689C307.637 236.189 354.745 277.26 380.426 357.746">
</path>
<path d="M228.831 259.583C218.1 247.569 208.25 232.342 202.201 213.093L202.201 213.093L233.912 213.093C233.912 213.093 249.319 254.754 228.831 259.583Z" stroke="rgba(66, 60, 82, 1.00)" stroke-width="1.1625"  stroke-linecap="round" >
</path>
<path d="M112.58 387.371C112.075 386.636 112.262 385.632 112.997 385.127C113.439 384.837 113.703 384.342 113.697 383.814C113.698 383.482 113.601 383.158 113.419 382.88L110.536 378.429C110.071 377.669 109.078 377.43 108.317 377.895C108.072 378.051 107.787 378.132 107.496 378.128C106.928 378.124 106.401 377.831 106.096 377.351L103.176 372.844C102.673 372.109 102.859 371.105 103.593 370.6C104.035 370.31 104.299 369.815 104.293 369.287C104.293 368.955 104.195 368.63 104.013 368.353L101.125 363.935C100.659 363.175 99.6674 362.935 98.9063 363.398C98.6599 363.553 98.374 363.634 98.0828 363.632C97.5148 363.626 96.988 363.334 96.683 362.855L93.7622 358.345C93.2598 357.609 93.4476 356.605 94.1822 356.101C94.6243 355.811 94.8881 355.316 94.882 354.787C94.8823 354.456 94.7858 354.132 94.6044 353.854L91.7209 349.405C91.2555 348.646 90.2634 348.406 89.5023 348.869C89.2565 349.025 88.9702 349.106 88.6788 349.102C88.1106 349.098 87.5834 348.805 87.2791 348.325L84.3583 343.816C84.1162 343.463 84.0242 343.029 84.1025 342.608C84.1808 342.188 84.4231 341.816 84.7758 341.574L93.5033 336.64L93.8089 337.155C92.0793 338.383 91.6219 340.754 92.7707 342.537L141.732 418.096L136.527 421.469C135.766 421.932 134.774 421.692 134.308 420.933L131.387 416.425C130.885 415.69 131.071 414.686 131.805 414.181C132.248 413.892 132.511 413.396 132.505 412.868C132.505 412.536 132.409 412.212 132.227 411.935L129.344 407.486C128.878 406.726 127.886 406.486 127.125 406.949C126.88 407.105 126.595 407.186 126.304 407.182C125.736 407.178 125.209 406.885 124.904 406.406L121.984 401.898C121.481 401.163 121.667 400.159 122.401 399.654C122.843 399.364 123.107 398.869 123.101 398.341C123.101 398.009 123.005 397.685 122.823 397.408L119.94 392.956C119.717 392.591 119.358 392.329 118.941 392.229C118.525 392.129 118.086 392.198 117.721 392.422C117.476 392.578 117.191 392.659 116.9 392.655C116.332 392.651 115.805 392.358 115.5 391.879L112.58 387.371Z"   fill="#423C52" >
</path>
<path d="M92.7708 342.523C92.1541 341.565 91.9798 340.387 92.2924 339.29C92.605 338.194 93.3742 337.285 94.4038 336.796L108.81 330.007C118.811 325.299 130.459 318.45 144.417 308.257L178.011 366.979C177.04 367.446 176.068 367.912 175.076 368.353C128.126 389.158 153.695 409.039 141.417 417.636L92.7708 342.523Z" stroke="rgba(66, 60, 82, 1.00)" stroke-width="1.1625"  stroke-linecap="round"    fill="#FFFFFF" >
</path>
<path    stroke="rgba(66, 60, 82, 1.00)" stroke-width="1.1625"  stroke-linecap="round"  d="M140.183 311.498L173.182 369.186M173.182 369.186L173.182 369.186Z">
</path>
<path d="M388.867 429.793C388.071 430.192 387.102 429.873 386.699 429.079C386.434 428.533 385.877 428.189 385.269 428.197C385.014 428.198 384.762 428.255 384.532 428.365L379.736 430.626C378.92 430.986 378.551 431.938 378.91 432.754C379.005 432.954 379.053 433.173 379.052 433.395C379.043 434.036 378.665 434.615 378.082 434.881L373.225 437.172C372.428 437.573 371.458 437.254 371.055 436.458L367.301 427.157L367.852 426.924C368.838 428.802 371.127 429.572 373.047 428.671L454.487 390.255L457.133 395.854C457.305 396.246 457.314 396.69 457.159 397.089C457.004 397.488 456.696 397.809 456.304 397.981L451.447 400.275C450.651 400.675 449.681 400.355 449.28 399.558C449.014 399.012 448.455 398.669 447.848 398.679C447.593 398.679 447.341 398.736 447.11 398.845L442.316 401.108C441.501 401.467 441.131 402.419 441.488 403.235C441.583 403.435 441.633 403.655 441.633 403.877C441.622 404.518 441.243 405.096 440.66 405.363L435.803 407.654C435.007 408.055 434.037 407.735 433.635 406.94C433.369 406.392 432.81 406.048 432.201 406.058C431.947 406.059 431.696 406.115 431.466 406.224L426.669 408.487C425.855 408.847 425.485 409.798 425.841 410.614C425.936 410.815 425.986 411.034 425.986 411.256C425.976 411.897 425.598 412.475 425.015 412.742L420.156 415.035C419.36 415.436 418.389 415.115 417.989 414.319C417.722 413.772 417.164 413.43 416.556 413.439C416.302 413.44 416.051 413.496 415.821 413.605L411.025 415.868C410.21 416.228 409.839 417.179 410.197 417.995C410.292 418.196 410.341 418.415 410.341 418.637C410.331 419.278 409.953 419.856 409.371 420.123L404.511 422.414C403.716 422.813 402.747 422.494 402.344 421.7C402.078 421.153 401.52 420.809 400.912 420.818C400.657 420.819 400.407 420.875 400.177 420.984L395.38 423.247C394.565 423.607 394.195 424.559 394.554 425.375C394.648 425.575 394.697 425.793 394.697 426.014C394.687 426.655 394.309 427.234 393.726 427.502L388.867 429.793Z"   fill="#423C52" >
</path>
<path d="M373.047 428.671C372.015 429.154 370.825 429.169 369.781 428.713C368.736 428.257 367.938 427.374 367.591 426.289C365.988 421.229 364.45 416.365 362.787 411.104C359.458 400.564 354.228 388.104 345.99 372.907L408.676 347.478C409.002 348.5 409.343 349.529 409.646 350.57C423.986 399.88 447.106 377.2 453.971 390.516L373.047 428.671Z" stroke="rgba(66, 60, 82, 1.00)" stroke-width="1.1625"  stroke-linecap="round"    fill="#FFFFFF" >
</path>
<path    stroke="rgba(66, 60, 82, 1.00)" stroke-width="1.1625"  stroke-linecap="round"  d="M348.64 377.538L410.225 352.55M410.225 352.55L410.225 352.55Z">
</path>
<path d="M291.677 157.705L291.677 157.705C285.289 157.705 279.17 155.132 274.702 150.567C270.233 146.002 267.791 139.83 267.926 133.443L269.498 64.3278L302.579 63.5393L315.07 129.754C317.671 144.319 306.475 157.705 291.677 157.705Z" fill-rule="evenodd"  fill="#423C52" >
</path>
<path d="M269.498 64.3138L269.16 46.6793C269.083 42.1441 272.426 37.8142 276.91 37.2007L301.359 34.4991L302.572 63.5393L269.498 64.3138Z"   fill="#FF8D1A" >
</path>
<path d="M290.448 44.7197C372.585 41.7289 397.811 8.73911 421.213 9.34566C435.875 9.72593 436.925 72.5234 416.738 72.0008C397.429 71.5015 379.276 48.9772 311.811 45.7648L290.448 44.7197Z"   fill="#41C480" >
</path>
<path d="M290.448 44.7197C372.585 41.7289 397.811 8.73911 421.213 9.34566C435.875 9.72593 436.925 72.5234 416.738 72.0008C397.429 71.5015 379.276 48.9772 311.811 45.7648L290.448 44.7197Z" stroke="rgba(66, 60, 82, 1.00)" stroke-width="1.1625"   >
</path>
<path    stroke="rgba(66, 60, 82, 1.00)" stroke-width="1.1625"    d="M426.231 12.3901L426.231 12.3901ZM426.231 12.3901L425.687 66.7657">
</path>
<path    stroke="rgba(66, 60, 82, 1.00)" stroke-width="1.1625"    d="M419.927 9.34564L419.927 9.34564ZM419.927 9.34564L419.302 71.7045">
</path>
<path    stroke="rgba(66, 60, 82, 1.00)" stroke-width="1.1625"    d="M413.584 10.2252L413.584 10.2252ZM413.584 10.2252L412.968 71.6345">
</path>
<path    stroke="rgba(66, 60, 82, 1.00)" stroke-width="1.1625"    d="M407.229 12.2291L407.229 12.2291ZM407.229 12.2291L406.651 70.0085">
</path>
<path    stroke="rgba(66, 60, 82, 1.00)" stroke-width="1.1625"    d="M400.867 14.947L400.867 14.947ZM400.867 14.947L400.34 67.5846">
</path>
<path    stroke="rgba(66, 60, 82, 1.00)" stroke-width="1.1625"    d="M394.503 17.9005L394.503 17.9005ZM394.503 17.9005L394.032 64.848">
</path>
<path    stroke="rgba(66, 60, 82, 1.00)" stroke-width="1.1625"    d="M388.134 21.2132L388.134 21.2132ZM388.134 21.2132L387.726 62.1139">
</path>
<path    stroke="rgba(66, 60, 82, 1.00)" stroke-width="1.1625"    d="M381.772 24.0291L381.772 24.0291ZM381.772 24.0291L381.415 59.5384">
</path>
<path    stroke="rgba(66, 60, 82, 1.00)" stroke-width="1.1625"    d="M375.41 26.7422L375.41 26.7422ZM375.41 26.7422L375.105 57.1937">
</path>
<path    stroke="rgba(66, 60, 82, 1.00)" stroke-width="1.1625"    d="M369.049 29.3434L369.049 29.3434ZM369.049 29.3434L368.792 55.1012">
</path>
<path    stroke="rgba(66, 60, 82, 1.00)" stroke-width="1.1625"    d="M362.689 31.758L362.689 31.758ZM362.689 31.758L362.474 53.2581">
</path>
<path    stroke="rgba(66, 60, 82, 1.00)" stroke-width="1.1625"    d="M356.334 33.8693L356.334 33.8693ZM356.334 33.8693L356.157 51.6554">
</path>
<path    stroke="rgba(66, 60, 82, 1.00)" stroke-width="1.1625"    d="M349.979 35.7916L349.979 35.7916ZM349.979 35.7916L349.835 50.272">
</path>
<path    stroke="rgba(66, 60, 82, 1.00)" stroke-width="1.1625"    d="M343.629 37.4993L343.629 37.4993ZM343.629 37.4993L343.513 49.0962">
</path>
<path    stroke="rgba(66, 60, 82, 1.00)" stroke-width="1.1625"    d="M337.279 39.0017L337.279 39.0017ZM337.279 39.0017L337.188 48.1071">
</path>
<path    stroke="rgba(66, 60, 82, 1.00)" stroke-width="1.1625"    d="M330.931 40.3081L330.931 40.3081ZM330.931 40.3081L330.861 47.2929">
</path>
<path    stroke="rgba(66, 60, 82, 1.00)" stroke-width="1.1625"    d="M324.586 41.4302L324.586 41.4302ZM324.586 41.4302L324.532 46.6396">
</path>
<path    stroke="rgba(66, 60, 82, 1.00)" stroke-width="1.1625"    d="M318.24 42.3774L318.24 42.3774ZM318.24 42.3774L318.203 46.1358">
</path>
<path    stroke="rgba(66, 60, 82, 1.00)" stroke-width="1.1625"    d="M311.899 43.1613L311.899 43.1613ZM311.899 43.1613L311.871 45.7648">
</path>
<path    stroke="rgba(66, 60, 82, 1.00)" stroke-width="1.1625"    d="M400.87 14.7744L427.845 15.0426M427.845 15.0426L427.845 15.0426Z">
</path>
<path    stroke="rgba(66, 60, 82, 1.00)" stroke-width="1.1625"    d="M388.136 20.9822L430.115 21.4022M430.115 21.4022L430.115 21.4022Z">
</path>
<path    stroke="rgba(66, 60, 82, 1.00)" stroke-width="1.1625"    d="M375.229 27.1878L431.347 27.7477M431.347 27.7477L431.347 27.7477Z">
</path>
<path    stroke="rgba(66, 60, 82, 1.00)" stroke-width="1.1625"    d="M357.965 33.3491L431.953 34.0886M431.953 34.0886L431.953 34.0886Z">
</path>
<path    stroke="rgba(66, 60, 82, 1.00)" stroke-width="1.1625"    d="M335.413 39.4589L432.061 40.4248M432.061 40.4248L432.061 40.4248Z">
</path>
<path    stroke="rgba(66, 60, 82, 1.00)" stroke-width="1.1625"    d="M305.516 45.4942L431.69 46.7563M431.69 46.7563L431.69 46.7563Z">
</path>
<path    stroke="rgba(66, 60, 82, 1.00)" stroke-width="1.1625"    d="M359.061 52.3646L430.785 53.0808M430.785 53.0808L430.785 53.0808Z">
</path>
<path    stroke="rgba(66, 60, 82, 1.00)" stroke-width="1.1625"    d="M379.778 58.9061L429.18 59.4007M429.18 59.4007L429.18 59.4007Z">
</path>
<path    stroke="rgba(66, 60, 82, 1.00)" stroke-width="1.1625"    d="M395.278 65.3963L426.373 65.7066M426.373 65.7066L426.373 65.7066Z">
</path>
<path    stroke="rgba(66, 60, 82, 1.00)" stroke-width="1.1625"    d="M127.972 40.1775C127.972 40.1775 168.203 62.6855 202.523 56.6899">
</path>
<path    stroke="rgba(66, 60, 82, 1.00)" stroke-width="1.1625"    d="M99.6738 106.794C99.6738 106.794 122.14 74.7256 167.184 64.9741">
</path>
<path    stroke="rgba(66, 60, 82, 1.00)" stroke-width="1.1625"    d="M51.4128 81.8853C51.4128 81.8853 73.6361 92.0615 106.47 82.3309">
</path>
<path    stroke="rgba(66, 60, 82, 1.00)" stroke-width="1.1625"    d="M290.448 44.7197C283.419 44.813 196.511 45.2282 19.0996 112.673">
</path>
<path d="M374.678 57.742C361.982 53.3095 345.563 49.1335 322.978 47.2042L322.253 47.0479C322.253 47.0479 324.065 42.8697 326.335 40.4388C339.499 38.2331 352.428 34.8044 364.954 30.1973L374.678 57.742Z"   fill="#423C52" >
</path>
<path d="M112.552 27.7267C112.552 27.7267 125.068 26.432 133.412 43.5089C133.412 43.5089 118.843 43.7515 112.552 27.7267Z"   fill="#41C480" >
</path>
<path d="M0 123.717C0 123.717 3.13311 108.187 22.9209 110.601C22.9209 110.601 18.0264 127.776 0 123.717Z"   fill="#41C480" >
</path>
<path d="M83.4787 114.469C83.4787 114.469 85.471 98.7523 105.385 99.7205C105.385 99.7205 101.75 117.206 83.4787 114.469Z"   fill="#41C480" >
</path>
<path d="M108.858 117.502C108.858 117.502 101.638 107.522 113.454 97.4879C113.454 97.4879 120.684 109.344 108.858 117.502Z"   fill="#423C52" >
</path>
<path d="M116.438 117.7C116.438 117.7 106.04 111.098 113.312 97.4039C113.312 97.4085 124.412 105.749 116.438 117.7Z"   fill="#41C480" >
</path>
<path d="M145.226 37.5926C145.226 37.5926 157.25 36.6594 162.896 52.8709C162.896 52.8709 149.073 52.7589 145.226 37.5926Z"   fill="#423C52" >
</path>
<path d="M150.569 30.1436C150.569 30.1436 164.072 33.9579 162.917 53.3235C162.917 53.3235 147.921 47.6965 150.569 30.1436Z"   fill="#41C480" >
</path>
<path d="M124.111 52.7636C124.111 52.7636 130.16 43.5182 144.874 47.5728C144.874 47.5728 137.423 58.1573 124.111 52.7636Z"   fill="#423C52" >
</path>
<path d="M44.1505 117.241C44.1505 117.241 45.009 105.851 61.1807 100.651C61.1807 100.651 59.69 114.003 44.1505 117.241Z"   fill="#423C52" >
</path>
<path d="M26.7375 95.197C26.7375 95.197 36.6081 89.451 50.0667 99.8302C50.0597 99.8302 38.2132 106.166 26.7375 95.197Z"   fill="#41C480" >
</path>
<path d="M42.3541 83.4041C42.3541 83.4041 51.1795 76.1534 66.1171 84.2463C66.1171 84.2463 55.4371 92.3975 42.3541 83.4041Z"   fill="#423C52" >
</path>
<path d="M44.2974 66.8567C44.2974 66.8567 58.7615 65.2237 66.1545 84.4912C66.1545 84.4912 49.4882 84.9508 44.2974 66.8567Z"   fill="#41C480" >
</path>
<path d="M275.893 45.2306L278.923 45.0486L279.623 39.389C279.857 38.3695 281.319 37.2894 282.724 37.1004L304.285 34.3009C307.422 33.895 309.391 35.2551 308.95 37.5226L307.357 46.936C306.965 49.2689 304.557 51.1539 301.758 51.4082L275.482 53.6734C273.938 53.8157 275.667 46.3691 275.893 45.2306Z"   fill="#FF8D1A" >
</path>
<path    stroke="rgba(66, 60, 82, 1.00)" stroke-width="1.1625"  stroke-linecap="round"  d="M278.923 44.8154L277.246 44.9133C276.004 45.0356 274.999 45.9758 274.794 47.2066L274.23 52.0101C273.996 53.1952 274.946 53.9441 276.549 53.8111C287.401 52.9059 302.983 51.5505 304.98 50.6197C307.597 49.4042 308.689 41.3207 309.09 36.9511C309.247 35.2761 307.8 34.2542 305.495 34.3989">
</path>
<path    stroke="rgba(66, 60, 82, 1.00)" stroke-width="1.1625"  stroke-linecap="round"  d="M305.493 34.3989L305.493 34.3989ZM305.493 34.3989L277.241 37.7746">
</path>
<path    stroke="rgba(66, 60, 82, 1.00)" stroke-width="1.1625"  stroke-linecap="round"  d="M297.51 51.8677C301.186 49.9501 302.784 42.4404 302.463 37.7559C302.353 36.1695 301.172 35.0591 298.865 35.206">
</path>
<path    stroke="rgba(66, 60, 82, 1.00)" stroke-width="1.1625"  stroke-linecap="round"  d="M290.719 52.409C293.493 51.3942 295.525 43.5882 295.548 38.5561C295.548 36.9231 294.258 35.8593 291.95 36.0039">
</path>
<path    stroke="rgba(66, 60, 82, 1.00)" stroke-width="1.1625"  stroke-linecap="round"  d="M282.43 53.3375C285.045 52.122 286.566 44.6893 286.54 39.6666C286.54 38.0452 285.206 36.8251 282.719 37.1004">
</path>
<path    stroke="rgba(66, 60, 82, 1.00)" stroke-width="1.1625"  stroke-linecap="round"  d="M278.923 44.8154L278.923 44.8154ZM278.923 44.8154L278.368 48.4267">
</path>
<path d="M234.976 49.7658C256.782 49.7658 274.302 67.2883 274.302 88.9028L274.302 96.984L315.567 48.6926L357.272 57.0281L321.499 136.525C314.862 151.453 300.057 161.073 283.72 161.074C265.057 161.074 255.37 153.049 255.37 153.049C246.788 178.048 196.023 173.004 196.023 173.004L196.023 87.734C196.023 77.664 200.023 68.0063 207.143 60.8857C214.264 53.7652 223.921 49.7651 233.991 49.7658L234.976 49.7658Z"   fill="#FFC300" >
</path>
<path d="M283.72 161.074C253.518 161.074 225.903 131.861 220.834 113.716C220.834 113.716 226.857 168.982 283.72 173.004L283.72 161.074Z"   fill="#423C52" >
</path>
<path    stroke="rgba(66, 60, 82, 1.00)" stroke-width="1.1625"  stroke-linecap="round"  d="M276.646 93.3866L276.646 93.3866ZM276.646 93.3866L268.563 104.006">
</path>
<path d="M367.056 27.4654C366.856 29.0495 365.444 29.7843 363.902 30.2089C361.6 30.8411 360.148 31.0348 360.004 31.0978C358.702 31.6577 356.271 35.5816 353.178 40.1448C355.375 41.4349 357.711 43.4389 358.592 45.8441C359.372 47.9548 359.482 50.2545 358.907 52.4299L357.039 57.2614L315.343 48.9142C315.343 48.9142 324.306 31.3427 327.999 29.7517C330.388 28.7252 342.971 26.8542 353.194 25.8744C359.885 25.2328 365.573 24.9692 366.741 25.5734C366.989 25.7017 367.131 25.9957 367.189 26.4273L367.189 26.4273L367.056 27.4654Z" fill-rule="evenodd"  fill="#FF8D1A" >
</path>
<path    stroke="rgba(66, 60, 82, 1.00)" stroke-width="1.1625"  stroke-linecap="round"  d="M327.075 39.8929C329.79 35.7729 332.543 29.8847 334.4 29.0845C335.371 28.6669 339.782 27.9857 343.685 27.5331">
</path>
<path    stroke="rgba(66, 60, 82, 1.00)" stroke-width="1.1625"  stroke-linecap="round"  d="M335.191 39.8928C338.24 35.2643 341.387 28.6178 343.478 27.7197C344.565 27.2531 349.142 26.6419 352.959 26.3969">
</path>
<path    stroke="rgba(66, 60, 82, 1.00)" stroke-width="1.1625"  stroke-linecap="round"  d="M343.804 39.8929C346.853 35.2644 350.649 27.5284 352.737 26.6186C353.826 26.152 356.887 25.4521 360.708 25.3168C362.725 25.2427 364.745 25.3261 366.748 25.5664L366.515 27.3908C366.349 28.6972 365.372 29.4251 364.133 29.873C362.575 30.4376 360.594 31.2191 360.013 31.4687C357.914 32.3669 354.664 37.9169 353.049 40.3338L353.049 40.3338C357.886 42.823 360.993 48.4547 356.817 56.5919L315.807 48.9073">
</path>
<path d="M265.152 25.7717C246.93 29.8846 231.267 31.8933 226.293 30.9368C225.322 30.7501 224.76 30.4492 224.66 30.0316C224.639 29.9466 224.639 29.8577 224.66 29.7726C225.199 27.0781 241.97 21.2482 263.043 16.4914C283.664 11.8255 301.004 9.87753 303.284 11.8558C303.397 11.9456 303.479 12.0689 303.517 12.2081L303.517 12.2221C304.114 14.793 286.93 20.8539 265.152 25.7717Z"   fill="#423C52" >
</path>
<path d="M276.716 8.1652C296.528 7.31602 302.113 11.2237 303.095 12.4648C300.818 10.4981 283.683 12.0402 263.06 16.6967C241.986 21.4488 225.826 27.2811 225.283 29.9756C225.579 24.001 247.711 14.639 247.711 14.639L248.479 7.407C248.609 6.18227 249.502 5.175 250.702 4.89912L269.111 0.662546C270.242 0.400927 271.419 0.84211 272.1 1.78235L276.716 8.1652Z" stroke="rgba(66, 60, 82, 1.00)" stroke-width="1.1625"  stroke-linecap="round"    fill="#FFFFFF" >
</path>
<path    stroke="rgba(66, 60, 82, 1.00)" stroke-width="1.1625"  stroke-linecap="round"  d="M276.716 8.16522C272.384 8.91409 267.695 9.77027 262.826 10.8714C257.405 12.0939 252.3 13.3536 247.711 14.6461">
</path>
<path d="M270.418 35.5793L262.453 55.1151L260.743 59.3144L260.743 59.3144C253.581 53.1327 244.429 49.743 234.969 49.7681L233.991 49.7681C228.399 49.7603 222.874 50.9929 217.815 53.3771L217.855 53.3351L231.934 38.2808L246.281 22.9442L270.418 35.5793Z" fill-rule="evenodd"  fill="#FF8D1A" >
</path>
<path d="M270.42 35.5793L262.507 54.9962C259.728 50.0854 256.887 43.4972 256.814 39.403C256.768 36.8927 256.814 31.5947 256.688 28.4033L270.42 35.5793Z"   fill="#423C52" >
</path>
<path d="M255.448 22.3081C254.579 21.4041 253.383 20.8876 252.13 20.875L252.13 20.875C252.13 20.875 256.448 19.7085 261.627 18.4394C261.627 18.4394 261.627 18.4627 261.627 18.493C261.536 19.0226 260.832 23.2265 261.007 26.7679C261.107 28.8162 261.504 30.6429 262.479 31.4104C265.262 33.5987 275.219 33.4004 277.521 32.7378C277.521 32.7378 278.385 44.4654 276.588 44.7314C274.792 44.9973 259.672 40.9357 257.692 36.9767C256.324 34.2379 256.812 30.8015 256.684 27.6101L256.747 25.6808C256.784 24.4277 256.316 23.2122 255.448 22.3081Z" fill-rule="evenodd"  fill="#DBE5E5" >
</path>
<path    stroke="rgba(66, 60, 82, 1.00)" stroke-width="1.1625"    d="M256.723 32.5652L250.483 32.5652C247.186 32.5652 244.651 30.2323 244.651 27.3605L244.651 23.8168">
</path>
<path d="M249.232 20.8586L252.38 20.8586C254.775 20.8599 256.718 22.7997 256.723 25.1955L256.723 31.7277L250.555 31.7277C247.57 31.7277 245.15 29.3076 245.15 26.3223L245.15 24.9436C245.15 22.6836 246.982 20.8516 249.242 20.8516L249.232 20.8586Z"   fill="#FF8D1A" >
</path>
<path    stroke="rgba(66, 60, 82, 1.00)" stroke-width="1.1625"  stroke-linecap="round"  d="M254.521 27.3161C254.521 25.1792 252.384 23.4458 249.746 23.4458">
</path>
<path d="M282.215 30.6148C280.888 31.7149 279.291 32.4398 277.589 32.7145L277.51 32.7284C275.207 33.391 265.25 33.5893 262.467 31.401C261.492 30.6335 261.095 28.8068 260.995 26.7585C260.82 23.2172 261.525 19.0132 261.616 18.4837C262.746 18.213 263.896 17.9463 265.066 17.6835C269.356 16.713 273.464 15.8848 277.281 15.2083C277.281 15.2176 281.277 20.8492 282.215 30.6148Z"   fill="#FF8D1A" >
</path>
<path    stroke="rgba(66, 60, 82, 1.00)" stroke-width="1.1625"  stroke-linecap="round"  d="M268.115 22.9278C269.656 21.2261 271.85 20.2621 274.146 20.2777">
</path>
<path d="M273.091 24.4956C273.091 25.422 272.632 26.173 272.065 26.173C271.498 26.173 271.038 25.422 271.038 24.4956C271.038 23.5692 271.498 22.8182 272.065 22.8182C272.632 22.8182 273.091 23.5692 273.091 24.4956Z"   fill="#423C52" >
</path>
<path d="M262.567 55.2364L260.745 59.312L260.745 59.312C253.584 53.1304 244.432 49.7407 234.971 49.7658L233.991 49.7658C228.399 49.758 222.874 50.9906 217.815 53.3748L231.836 38.2715C248.04 39.4053 262.567 55.2364 262.567 55.2364Z" fill-rule="evenodd"  fill="#E5F1EF" >
</path>
<path    stroke="rgba(66, 60, 82, 1.00)" stroke-width="1.1625"  stroke-linecap="round"  d="M216.901 53.818C222.2 51.1446 228.055 49.7564 233.991 49.7658L234.976 49.7658C244.436 49.7407 253.588 53.1304 260.75 59.3121">
</path>
<path d="M548.247 473.535C548.247 475.772 542.553 477.585 535.53 477.585C528.507 477.585 522.813 475.772 522.813 473.535C522.813 471.299 528.507 469.485 535.53 469.485C542.553 469.485 548.247 471.299 548.247 473.535Z"   fill="#423C52" >
</path>
<path d="M515.747 469.485C515.747 470.995 512.901 472.219 509.39 472.219C505.879 472.219 503.033 470.995 503.033 469.485C503.033 467.975 505.879 466.751 509.39 466.751C512.901 466.751 515.747 467.975 515.747 469.485Z"   fill="#423C52" >
</path>
<path d="M579.123 450.871C584.002 448.335 589.734 448.012 594.867 449.984C600 451.956 604.042 456.034 605.968 461.185L605.968 462.183L410.094 462.186C410.094 462.109 410.094 462.032 410.094 461.952C410.094 455.625 415.744 450.498 422.71 450.498C425.217 450.486 427.677 451.174 429.814 452.485C430.177 445.764 434.122 439.755 440.144 436.747C446.166 433.74 453.339 434.197 458.931 437.944C460.699 427.089 471.669 418.733 484.931 418.733C499.428 418.733 511.184 428.72 511.184 441.035C511.181 442.012 511.103 442.987 510.951 443.952C511.832 443.818 512.721 443.751 513.612 443.751C520.227 443.749 526.273 447.491 529.222 453.411L528.891 453.491L541.992 453.491C543.535 444.833 550.764 438.331 559.537 437.712C568.309 437.093 576.38 442.515 579.123 450.871Z"   fill="#423C52" >
</path>
</svg>
